<?xml version="1.0" encoding="UTF-8"?>
<svg width="345.6pt" height="259.2pt" version="1.1" viewBox="0 0 345.6 259.2" xmlns="http://www.w3.org/2000/svg" xmlns:xlink="http://www.w3.org/1999/xlink">
<defs>
<g id="v">
<path d="m5.6562-9.0938c0.75 0 1.5156 0.17188 2.2656 0.53125l0.5-1c-0.79688-0.39062-1.7031-0.57812-2.75-0.57812-0.98438 0-1.8438 0.21875-2.5625 0.625-0.73438 0.42188-1.2969 1.0312-1.6719 1.7969-0.39062 0.76562-0.57812 1.6719-0.57812 2.7031 0 1.6562 0.40625 2.9219 1.1875 3.8125 0.8125 0.89062 1.9531 1.3438 3.4219 1.3438 1.0156 0 1.8594-0.14062 2.5625-0.39062v-1.0156c-0.90625 0.25-1.6875 0.375-2.3906 0.375-1.1406 0-2.0156-0.35938-2.625-1.0781s-0.92188-1.7188-0.92188-3.0312c0-1.2656 0.32812-2.2812 0.95312-3 0.64062-0.73438 1.5-1.0938 2.6094-1.0938z"/>
</g>
<g id="b">
<path d="m2.3438 0v-10.641h-1.1406v10.641z"/>
</g>
<g id="g">
<path d="m5.8125 0h0.84375v-5.1094c0-0.875-0.21875-1.5156-0.65625-1.9062-0.42188-0.40625-1.0781-0.59375-1.9844-0.59375-0.4375 0-0.875 0.046875-1.3281 0.17188-0.4375 0.10938-0.82812 0.26562-1.2031 0.46875l0.34375 0.85938c0.79688-0.375 1.5-0.5625 2.125-0.5625 0.54688 0 0.95312 0.14062 1.2188 0.40625 0.25 0.29688 0.375 0.71875 0.375 1.3125v0.46875l-1.2812 0.03125c-2.4062 0.078125-3.625 0.875-3.625 2.375 0 0.70312 0.21875 1.25 0.625 1.6406 0.4375 0.375 1.0156 0.57812 1.75 0.57812 0.5625 0 1.0312-0.078125 1.4062-0.25 0.35938-0.17188 0.73438-0.48438 1.1094-0.95312h0.046875zm-2.5625-0.79688c-0.45312 0-0.79688-0.10938-1.0469-0.32812-0.25-0.20312-0.375-0.51562-0.375-0.9375 0-0.51562 0.20312-0.90625 0.60938-1.1562 0.39062-0.25 1.0469-0.39062 1.9375-0.42188l1.1406-0.046875v0.67188c0 0.70312-0.20312 1.25-0.60938 1.6406-0.39062 0.39062-0.95312 0.57812-1.6562 0.57812z"/>
</g>
<g id="e">
<path d="m4.625-7.625c-0.46875 0-0.90625 0.125-1.2969 0.39062s-0.71875 0.64062-1 1.125h-0.0625l-0.125-1.3906h-0.9375v7.5h1.1406v-4.0156c0-0.73438 0.21875-1.3438 0.64062-1.8438 0.4375-0.48438 0.95312-0.73438 1.5625-0.73438 0.23438 0 0.5 0.03125 0.8125 0.09375l0.15625-1.0469c-0.26562-0.0625-0.5625-0.078125-0.89062-0.078125z"/>
</g>
<g id="i">
<path d="m2.3281-3.8281h-0.0625c0.03125-0.53125 0.0625-0.92188 0.0625-1.1719v-5.6406h-1.125v10.641h1.125v-2.7969l0.84375-0.75 2.6562 3.5469h1.375l-3.25-4.2969 3.0312-3.2031h-1.3438l-2.4219 2.5781c-0.40625 0.4375-0.70312 0.8125-0.89062 1.0938z"/>
</g>
<g id="r">
<path d="m3.9219-5-2.6562-5h-1.2656l3.3281 6.1719v3.8281h1.1719v-3.875l3.3438-6.125h-1.2656z"/>
</g>
<g id="a">
<path d="m2.3438 0v-7.5h-1.1406v7.5zm-1.2344-9.5156c0 0.25 0.0625 0.4375 0.1875 0.5625s0.29688 0.1875 0.48438 0.1875 0.34375-0.0625 0.46875-0.1875 0.20312-0.3125 0.20312-0.5625c0-0.26562-0.078125-0.45312-0.20312-0.57812s-0.28125-0.1875-0.46875-0.1875-0.35938 0.0625-0.48438 0.1875-0.1875 0.3125-0.1875 0.57812z"/>
</g>
<g id="d">
<path d="m4.5781-6.6094v-0.89062h-1.9062v-0.48438c0-0.625 0.10938-1.0781 0.3125-1.375 0.20312-0.26562 0.51562-0.42188 0.95312-0.42188 0.29688 0 0.67188 0.078125 1.1094 0.21875l0.29688-0.90625c-0.53125-0.15625-1-0.25-1.3906-0.25-1.6094 0-2.4219 0.92188-2.4219 2.7656v0.42188l-1.3281 0.40625v0.51562h1.3281v6.6094h1.1406v-6.6094z"/>
</g>
<g id="h">
<path d="m7.6719-3.75c0-1.1875-0.3125-2.1406-0.9375-2.8281-0.60938-0.70312-1.4375-1.0469-2.4844-1.0469-1.0938 0-1.9375 0.34375-2.5469 1.0156-0.60938 0.6875-0.92188 1.625-0.92188 2.8594 0 0.78125 0.15625 1.4688 0.42188 2.0625 0.28125 0.59375 0.6875 1.0312 1.2031 1.3594 0.53125 0.3125 1.125 0.46875 1.7969 0.46875 1.0781 0 1.9219-0.34375 2.5469-1.0312 0.60938-0.6875 0.92188-1.6406 0.92188-2.8594zm-5.7031 0c0-0.96875 0.1875-1.7031 0.5625-2.1875s0.9375-0.73438 1.6875-0.73438 1.3125 0.25 1.7031 0.75c0.375 0.5 0.57812 1.2188 0.57812 2.1719s-0.20312 1.6875-0.57812 2.1875c-0.39062 0.5-0.95312 0.75-1.7031 0.75-0.73438 0-1.2969-0.25-1.6875-0.75-0.375-0.5-0.5625-1.2344-0.5625-2.1875z"/>
</g>
<g id="o">
<path d="m4.4531 0v-8.9688h3.1562v-1.0312h-7.4844v1.0312h3.1562v8.9688z"/>
</g>
<g id="n">
<path d="m8.9219-10h-1.1562v6.5156c0 0.84375-0.23438 1.4844-0.6875 1.9219-0.45312 0.45312-1.1094 0.6875-1.9531 0.6875-0.875 0-1.5469-0.23438-2-0.67188-0.46875-0.45312-0.6875-1.0938-0.6875-1.9219v-6.5312h-1.1719v6.4375c0 1.1562 0.32812 2.0625 0.98438 2.7188 0.67188 0.65625 1.5938 0.98438 2.7969 0.98438s2.1562-0.32812 2.8438-0.98438c0.6875-0.64062 1.0312-1.5469 1.0312-2.6875z"/>
</g>
<g id="m">
<path d="m9.3594-5.0938c0-1.5469-0.4375-2.75-1.2969-3.6094s-2.0781-1.2969-3.625-1.2969h-3.0625v10h2.7656c1.6875 0 2.9688-0.4375 3.875-1.3125 0.89062-0.875 1.3438-2.1406 1.3438-3.7812zm-1.2344 0.046875c0 1.3281-0.35938 2.3438-1.0469 3.0156-0.70312 0.6875-1.7344 1.0312-3.125 1.0312h-1.4219v-7.9844h1.6875c1.2969 0 2.2656 0.32812 2.9219 0.98438 0.65625 0.67188 0.98438 1.6406 0.98438 2.9531z"/>
</g>
<g id="c">
<path d="m4.375 0.14062c0.5 0 0.9375-0.046875 1.2812-0.10938 0.35938-0.09375 0.75-0.20312 1.1406-0.375v-1.0156c-0.78125 0.32812-1.5781 0.5-2.3906 0.5-0.76562 0-1.3594-0.21875-1.7812-0.67188-0.42188-0.46875-0.64062-1.125-0.65625-2.0156h5.1562v-0.71875c0-1-0.28125-1.8125-0.82812-2.4375s-1.2812-0.92188-2.2188-0.92188c-1.0156 0-1.8125 0.34375-2.3906 1.0625-0.60938 0.70312-0.90625 1.6719-0.90625 2.875s0.32812 2.1406 0.96875 2.8125 1.5156 1.0156 2.625 1.0156zm-0.3125-6.8125c0.59375 0 1.0469 0.1875 1.3594 0.5625 0.32812 0.375 0.48438 0.92188 0.48438 1.6406h-3.9219c0.0625-0.6875 0.28125-1.2344 0.64062-1.625s0.82812-0.57812 1.4375-0.57812z"/>
</g>
<g id="f">
<path d="m3.625-0.79688c-0.375 0-0.67188-0.125-0.89062-0.35938-0.20312-0.25-0.3125-0.59375-0.3125-1.0469v-4.4062h2.1719v-0.89062h-2.1719v-1.7344h-0.65625l-0.48438 1.6094-1.0625 0.46875v0.54688h1.0625v4.4531c0 1.5312 0.73438 2.2969 2.1719 2.2969 0.20312 0 0.42188-0.03125 0.65625-0.0625s0.42188-0.078125 0.54688-0.14062v-0.875c-0.10938 0.03125-0.26562 0.0625-0.45312 0.09375s-0.375 0.046875-0.57812 0.046875z"/>
</g>
<g id="l">
<path d="m7.0781-10-2.2812 6.4375c-0.26562 0.71875-0.46875 1.4688-0.64062 2.2031-0.15625-0.70312-0.35938-1.4219-0.625-2.1719l-2.2969-6.4688h-1.2344l3.5781 10h1.1562l3.5938-10z"/>
</g>
<g id="k">
<path d="m6.875-7.6406c0-0.78125-0.26562-1.3906-0.79688-1.8281-0.54688-0.4375-1.2969-0.67188-2.2656-0.67188-0.59375 0-1.1562 0.09375-1.6875 0.28125-0.54688 0.17188-1.0156 0.4375-1.4219 0.76562l0.5625 0.76562c0.5-0.32812 0.9375-0.54688 1.3281-0.65625 0.39062-0.125 0.79688-0.1875 1.2344-0.1875 0.57812 0 1.0469 0.14062 1.375 0.42188s0.5 0.65625 0.5 1.1406c0 0.60938-0.23438 1.0938-0.6875 1.4375s-1.0781 0.51562-1.8438 0.51562h-1v0.98438h0.98438c1.9062 0 2.8594 0.60938 2.8594 1.8125 0 1.3594-0.875 2.0312-2.5938 2.0312-0.4375 0-0.90625-0.046875-1.3906-0.17188-0.5-0.10938-0.95312-0.26562-1.3906-0.48438v1.0781c0.42188 0.20312 0.84375 0.34375 1.2812 0.42188s0.92188 0.125 1.4531 0.125c1.2188 0 2.1562-0.26562 2.8125-0.76562 0.67188-0.53125 1-1.25 1-2.2031 0-0.67188-0.1875-1.2031-0.57812-1.6094-0.39062-0.42188-0.98438-0.67188-1.7969-0.76562v-0.0625c0.65625-0.14062 1.1719-0.40625 1.5312-0.8125s0.53125-0.92188 0.53125-1.5625z"/>
</g>
<g id="u">
<path d="m4.2031 0.14062c0.75 0 1.3906-0.14062 1.8906-0.39062v-1.0156c-0.65625 0.28125-1.2969 0.40625-1.9219 0.40625-0.73438 0-1.2812-0.23438-1.6562-0.73438-0.375-0.48438-0.54688-1.2031-0.54688-2.125 0-1.9375 0.75-2.9062 2.2812-2.9062 0.21875 0 0.48438 0.03125 0.78125 0.10938 0.29688 0.0625 0.5625 0.14062 0.82812 0.23438l0.34375-0.95312c-0.20312-0.10938-0.48438-0.20312-0.84375-0.28125-0.375-0.078125-0.71875-0.10938-1.0938-0.10938-1.1094 0-1.9688 0.34375-2.5625 1.0156-0.60938 0.6875-0.92188 1.6562-0.92188 2.9062 0 1.2344 0.29688 2.1719 0.90625 2.8438 0.57812 0.65625 1.4219 1 2.5156 1z"/>
</g>
<g id="j">
<path d="m6.3281 0h1.1406v-4.8906c0-0.95312-0.23438-1.6562-0.6875-2.0781-0.45312-0.4375-1.1406-0.65625-2.0312-0.65625-0.51562 0-0.98438 0.09375-1.4062 0.29688s-0.75 0.48438-0.98438 0.85938h-0.046875l-0.1875-1.0312h-0.92188v7.5h1.1406v-3.9375c0-0.96875 0.17188-1.6719 0.54688-2.0938 0.35938-0.42188 0.9375-0.64062 1.7188-0.64062 0.59375 0 1.0312 0.15625 1.2969 0.45312 0.28125 0.3125 0.42188 0.76562 0.42188 1.375z"/>
</g>
<g id="t">
<path d="m4.6875 0.14062c0.98438 0 1.7344-0.34375 2.2812-1.0312 0.5625-0.67188 0.82812-1.625 0.82812-2.8594s-0.26562-2.1875-0.8125-2.8594c-0.53125-0.67188-1.2969-1.0156-2.2969-1.0156-0.5 0-0.9375 0.078125-1.3281 0.26562s-0.73438 0.48438-1.0156 0.89062h-0.0625l-0.15625-1.0312h-0.92188v10.859h1.1406v-3.0781c0-0.39062-0.03125-0.8125-0.09375-1.25h0.09375c0.26562 0.375 0.60938 0.65625 1 0.82812 0.42188 0.1875 0.85938 0.28125 1.3438 0.28125zm-0.15625-6.8125c0.65625 0 1.1719 0.26562 1.5469 0.75 0.35938 0.5 0.54688 1.2188 0.54688 2.1562 0 0.92188-0.1875 1.6406-0.54688 2.1719-0.375 0.51562-0.875 0.78125-1.5312 0.78125-0.76562 0-1.3281-0.23438-1.6875-0.67188-0.34375-0.46875-0.51562-1.2188-0.51562-2.2656v-0.25c0-0.92188 0.17188-1.6094 0.51562-2.0312s0.90625-0.64062 1.6719-0.64062z"/>
</g>
<g id="s">
<path d="m10.75 0h1.1406v-4.8906c0-0.95312-0.21875-1.6562-0.64062-2.0781-0.42188-0.4375-1.0469-0.65625-1.8906-0.65625-0.54688 0-1.0312 0.10938-1.4531 0.34375-0.42188 0.21875-0.75 0.53125-0.96875 0.92188h-0.0625c-0.35938-0.84375-1.125-1.2656-2.2969-1.2656-0.48438 0-0.90625 0.09375-1.3125 0.29688-0.375 0.21875-0.6875 0.5-0.90625 0.85938h-0.046875l-0.1875-1.0312h-0.92188v7.5h1.1406v-3.9375c0-0.96875 0.15625-1.6562 0.48438-2.0938 0.34375-0.42188 0.85938-0.64062 1.5625-0.64062 0.54688 0 0.95312 0.15625 1.2031 0.45312s0.375 0.75 0.375 1.3438v4.875h1.1406v-4.1875c0-0.84375 0.17188-1.4688 0.5-1.875 0.34375-0.39062 0.875-0.60938 1.5781-0.60938 0.53125 0 0.9375 0.15625 1.1875 0.45312s0.375 0.75 0.375 1.3438z"/>
</g>
<clipPath id="ae">
<path d="m0 0h345.6v259.2h-345.6z"/>
</clipPath>
<clipPath id="ad">
<path d="m0 0h345.6v259.2h-345.6z"/>
</clipPath>
<clipPath id="ac">
<path d="m43 0h260v259.2h-260z"/>
</clipPath>
<clipPath id="ab">
<rect width="346" height="260"/>
</clipPath>
<g id="q" clip-path="url(#ab)">
<g clip-path="url(#ad)">
<path d="m0-0.011719h345.62v259.21h-345.62z" fill="#fff"/>
</g>
<g clip-path="url(#ac)">
<path d="m43.199-0.011719h259.21v259.21h-259.21z" fill="#fff"/>
</g>
<path transform="matrix(1 0 0 1 0 -.012965)" d="m291.92 241.58-6.9372-1.6405-2.3124-0.53904-4.6248-1.0624-4.6248-1.039-4.6248-1.0156-4.6248-0.98823-4.6248-0.9687-4.6248-0.94526-4.6248-0.91792-4.6248-0.89058-4.6248-0.86714-4.6248-0.8398-4.6248-0.80855-4.6248-0.78512-4.6209-0.75778-4.6248-0.73434-4.6248-0.69137-4.6248-0.66794-4.6248-0.62888-4.6248-0.59372-4.6248-0.54685-4.6287-0.51169-4.6248-0.46482-4.6248-0.43357-4.6248-0.38279-4.6209-0.33983-4.6248-0.29686-4.6248-0.24608-4.6248-0.19921-4.6248-0.13671-4.6248-0.082027-4.6248-0.027343-4.6248 0.031249-4.6248 0.074215-4.6248 0.11328-4.6209 0.15624-4.6248 0.21093-4.6248 0.28905-4.6248 0.39451-4.6287 0.5156-4.6248 0.66012-4.6248 0.80465-4.6248 0.95308-4.6248 1.121-4.6248 1.2968-4.6209 1.5195-4.6248 1.7733-2.3124 1.039-2.3124 1.1874-2.3124 1.414-2.3124 1.7694-1.8515 1.7343-0.92574 0.95308-0.92183 1.1132-0.46482 0.72262-0.23046 0.48044-0.11718 0.3203-0.11328 0.54294 0.11328 1.0781 0.11718 0.29295 0.23046 0.43357 0.46482 0.62497 0.92183 0.87105 0.92574 0.62106 1.8515 0.76559 2.3124 0.53904 2.3124 0.44138 2.3124 0.35154 2.3124 0.24999 4.6248 0.30858 4.6209 0.21483 4.6248 0.13281 4.6248 0.066403h4.6248l4.6248-0.046873 4.6248-0.085933 4.6287-0.12109 4.6248-0.14452 4.6248-0.16405 4.6248-0.17187 4.6209-0.17577 4.6248-0.17577 4.6248-0.16796 4.6248-0.17187 18.499-0.67184 4.6248-0.17187 4.6248-0.16796 4.6209-0.17187 4.6248-0.17187 4.6248-0.16796 4.6248-0.17187 9.2534-0.33592 4.6248-0.17187 4.6248-0.16796 4.6248-0.17187 4.6248-0.16796 4.6248-0.17187 4.6209-0.16796 4.6248-0.17187 4.6248-0.16796 4.6248-0.17187 4.6248-0.16796 4.6248-0.17187 4.6248-0.16796 4.6248-0.17187 4.6248-0.16796 4.6248-0.17187 4.6248-0.16796 4.6248-0.17187 4.6248-0.16796 4.6248-0.17187 2.3124-0.082027 2.3124-0.085933" fill-opacity=".1" stroke="#000" stroke-linejoin="round" stroke-opacity=".8" stroke-width="1.5"/>
</g>
<clipPath id="aa">
<path d="m147 249h33v10.199h-33z"/>
</clipPath>
<clipPath id="z">
<path d="m183 250h8v9.1992h-8z"/>
</clipPath>
<clipPath id="y">
<path d="m195 249h36v10.199h-36z"/>
</clipPath>
<clipPath id="x">
<path d="m0 0h345.6v259.2h-345.6z"/>
</clipPath>
<clipPath id="w">
<rect width="346" height="260"/>
</clipPath>
<g id="p" clip-path="url(#w)">
<path transform="matrix(1 0 0 1 0 -.012965)" d="m61.899 190.99 0.65622-0.97651 0.7773-0.87886 0.88667-0.76949 0.98042-0.65231 1.0585-0.5156 1.1132-0.37498 1.1562-0.22655 1.1757-0.078121 1.1757 0.078121 1.1523 0.23046 1.1171 0.37889 1.0546 0.5195 0.97651 0.65231 0.88277 0.7773 0.7773 0.88277 0.65231 0.97261 0.5195 1.0546 0.37498 1.1093 0.23046 1.1523 0.074215 1.1679-0.078121 1.1679-0.23436 1.1523-0.37889 1.1093-0.52341 1.0507-0.65622 0.97261-0.7773 0.88277-0.88668 0.76949-0.98042 0.6484-1.0546 0.51951-1.1171 0.37498-1.1523 0.22655-1.1757 0.074215-1.1757-0.078121-1.1562-0.23046-1.1132-0.37889-1.0546-0.5195-0.97651-0.65231-0.88667-0.7734-0.7734-0.88277-0.65231-0.97651-0.51951-1.0507-0.37889-1.1132-0.22655-1.1484-0.074215-1.1718 0.078121-1.1679 0.23046-1.1484 0.38279-1.1093 0.03906-0.10937 0.41014-1.0742 0.41014-1.0781 0.21093-0.54294 0.54685-1.0117 0.54685-1.0156 0.25389-0.47263 0.84761-0.85152 0.82027-0.82027 0.81636-0.82418 0.82027-0.82027 0.4492-0.4531 5.5505-3.574 7.3199-2.9217 8.8902-1.9022 8.855-0.83199 3.4686-0.3242 8.8863 0.41404 8.8824 0.41014 8.2965 0.3867 1.8671 0.08984 8.8238 1.1249 8.8199 1.1288 8.8238 1.1288 1.0468 0.13281 8.8199 1.1288 8.8238 1.1288 8.8199 1.1249 8.3199 1.0664 8.8238 1.1288 8.8238 1.1249 8.8238 1.1288 8.316 1.0624 8.8238 1.1288 8.8199 1.1288 8.8238 1.1288 8.316 1.0624 8.8277 1.1288 8.8199 1.1249 5.5466 0.7109 7.2887 0.92964-7.2887-0.92964-5.5466-0.7109-8.8199-1.1249-8.8277-1.1288-8.316-1.0624-8.8238-1.1288-8.8199-1.1288-8.8238-1.1288-8.316-1.0624-8.8238-1.1288-8.8238-1.1249-8.8238-1.1288-8.3199-1.0664-8.8199-1.1249-8.8238-1.1288-8.8199-1.1288-1.0468-0.13281-8.8238-1.1288-8.8199-1.1288-8.8238-1.1249-1.8671-0.08984-8.2965-0.3867-8.8824-0.41014-8.8863-0.41404-3.4686 0.3242-8.855 0.83199-8.8902 1.9022-7.3199 2.9217-5.5505 3.574-0.4492 0.4531-0.82027 0.82027-0.81636 0.82418-0.82027 0.82027-0.84761 0.85152-0.25389 0.47263-0.54685 1.0156-0.54685 1.0117-0.21093 0.54294-0.41014 1.0781-0.41014 1.0742-0.03906 0.10937" fill-opacity=".1" stroke="#000" stroke-linejoin="round" stroke-opacity=".8" stroke-width="1.5"/>
<path transform="matrix(1 0 0 1 0 -.012965)" d="m81.418 125.58 0.20702 8.6597-0.20702-8.6597 0.21093-7.7379 0.30077-5.7341 0.60934-6.3122 0.93745-3.3983 0.65622-2.3671 2.5077-1.8632 16.874-3.1522-1.1562 8.1637 2.5311 41.795-2.5311-41.795 1.1562-8.1637 12.714-2.0233 14.968-1.0351-1.4335 6.8981 1.953 48.642-1.953-48.642 1.4335-6.8981 14.218-1.332 15.331-0.38279 0.21483 57.942-0.21483-57.942 15.554-0.24218 15.558 0.24218-0.21093 57.942 0.21093-57.942 15.335 0.38279 14.218 1.332 1.4335 6.8981-1.953 48.642 1.953-48.642-1.4335-6.8981 14.964 1.0351 12.714 2.0233 1.1562 8.1637-2.5311 41.795 2.5311-41.795-1.1562-8.1637 10.722 1.6952 6.152 1.457 2.5116 1.8632 0.65231 2.3671-2.1249 35.432 2.0663-34.6 0.99604 2.5663 0.61325 6.3122 0.30077 5.7341 0.21093 7.7379-0.21093 8.6597 0.21093-8.6597" fill="none" stroke="#000" stroke-linejoin="round" stroke-width="7.5"/>
<path transform="matrix(1 0 0 1 0 -.012965)" d="m81.625 134.24-0.20702-8.6597 0.21093-7.7379 0.30077-5.7341 0.60934-6.3122 1.5937-5.7653 2.5077-1.8632 6.152-1.457 10.382-1.8124 13.054-1.9062 14.058-1.2929 15.128-1.0742 15.159-0.49998 15.726-0.12499 15.73 0.12499 15.163 0.49998 15.128 1.0742 14.054 1.2929 13.054 1.9062 10.382 1.8124 6.152 1.457 2.5116 1.8632 1.5898 5.7653 0.61325 6.3122 0.30077 5.7341 0.21093 7.7379-0.21093 8.6597-3.9764 3.5506-8.0152 3.3084-3.9764 1.3007-7.2379 2.4491-8.8746-0.070309-7.3981 0.79684-10.312 1.7069-11.078-0.22655-6.7458 0.10546-11.706 0.9687-10.015-0.53904-5.3435 0.011718-5.3396-0.011718-10.015 0.53904-11.703-0.9687-6.7458-0.10546-11.078 0.22655-10.316-1.7069-7.3981-0.79684-8.8746 0.070309-7.2379-2.4491-3.9764-1.3007-8.0152-3.3084-3.9764-3.5506 0.91402-28.444" fill="#fff" fill-opacity=".5" stroke="#000" stroke-linejoin="round" stroke-opacity=".8" stroke-width="1.5"/>
</g>
</defs>
<g clip-path="url(#ae)">
<use xlink:href="#q"/>
</g>
<g clip-path="url(#aa)">
<g>
<use x="146.243" y="260.212" xlink:href="#v"/>
<use x="155.075663" y="260.212" xlink:href="#b"/>
<use x="158.616288" y="260.212" xlink:href="#g"/>
<use x="166.403144" y="260.212" xlink:href="#e"/>
<use x="172.117985" y="260.212" xlink:href="#i"/>
</g>
</g>
<g clip-path="url(#z)">
<g>
<use x="183.106663" y="260.212" xlink:href="#r"/>
</g>
</g>
<g clip-path="url(#y)">
<g>
<use x="194.588145" y="260.212" xlink:href="#g"/>
<use x="202.375001" y="260.212" xlink:href="#a"/>
<use x="205.915626" y="260.212" xlink:href="#e"/>
<use x="211.630467" y="260.212" xlink:href="#d"/>
<use x="216.375101" y="260.212" xlink:href="#h"/>
<use x="224.831161" y="260.212" xlink:href="#a"/>
<use x="228.371787" y="260.212" xlink:href="#b"/>
</g>
</g>
<g>
<use x="118.494" y="207.03" xlink:href="#o"/>
<use x="126.238855" y="207.03" xlink:href="#n"/>
<use x="140.070954" y="207.03" xlink:href="#m"/>
<use x="150.277027" y="207.03" xlink:href="#c"/>
<use x="158.131083" y="207.03" xlink:href="#b"/>
<use x="161.671708" y="207.03" xlink:href="#d"/>
<use x="166.416342" y="207.03" xlink:href="#f"/>
<use x="174.998404" y="207.03" xlink:href="#l"/>
<use x="183.331263" y="207.03" xlink:href="#k"/>
<use x="194.962546" y="207.03" xlink:href="#i"/>
<use x="202.311199" y="207.03" xlink:href="#a"/>
<use x="205.851824" y="207.03" xlink:href="#f"/>
<use x="210.793859" y="207.03" xlink:href="#c"/>
<use x="222.287941" y="207.03" xlink:href="#u"/>
<use x="228.953389" y="207.03" xlink:href="#c"/>
<use x="236.807445" y="207.03" xlink:href="#j"/>
<use x="245.400706" y="207.03" xlink:href="#f"/>
<use x="250.342742" y="207.03" xlink:href="#c"/>
<use x="258.196798" y="207.03" xlink:href="#e"/>
<use x="267.551665" y="207.03" xlink:href="#g"/>
<use x="275.33852" y="207.03" xlink:href="#a"/>
<use x="278.879146" y="207.03" xlink:href="#e"/>
<use x="284.593986" y="207.03" xlink:href="#d"/>
<use x="289.33862" y="207.03" xlink:href="#h"/>
<use x="297.794681" y="207.03" xlink:href="#a"/>
<use x="301.335306" y="207.03" xlink:href="#b"/>
<use x="123.119" y="163.097" xlink:href="#o"/>
<use x="130.863855" y="163.097" xlink:href="#n"/>
<use x="144.695954" y="163.097" xlink:href="#m"/>
<use x="154.902027" y="163.097" xlink:href="#c"/>
<use x="162.756083" y="163.097" xlink:href="#b"/>
<use x="166.296708" y="163.097" xlink:href="#d"/>
<use x="171.041342" y="163.097" xlink:href="#f"/>
<use x="179.623404" y="163.097" xlink:href="#l"/>
<use x="187.956263" y="163.097" xlink:href="#k"/>
<use x="199.587546" y="163.097" xlink:href="#i"/>
<use x="206.936199" y="163.097" xlink:href="#a"/>
<use x="210.476824" y="163.097" xlink:href="#f"/>
<use x="215.418859" y="163.097" xlink:href="#c"/>
<use x="226.912941" y="163.097" xlink:href="#t"/>
<use x="235.492203" y="163.097" xlink:href="#b"/>
<use x="239.032828" y="163.097" xlink:href="#g"/>
<use x="246.819684" y="163.097" xlink:href="#j"/>
<use x="255.412945" y="163.097" xlink:href="#d"/>
<use x="260.157579" y="163.097" xlink:href="#h"/>
<use x="268.613639" y="163.097" xlink:href="#e"/>
<use x="274.32848" y="163.097" xlink:href="#s"/>
</g>
<g clip-path="url(#x)">
<use xlink:href="#p"/>
</g>
</svg>
