<svg xmlns="http://www.w3.org/2000/svg" xmlns:dc="http://purl.org/dc/elements/1.1/" xmlns:ns2="http://creativecommons.org/ns#" xmlns:ns4="http://www.w3.org/1999/xlink" xmlns:rdf="http://www.w3.org/1999/02/22-rdf-syntax-ns#" width="460.8" height="345.6" viewBox="0 0 460.8 345.6" version="1.1">
 <defs>
</defs><metadata>
  <rdf:RDF>
   <ns2:Work>
    <dc:type rdf:resource="http://purl.org/dc/dcmitype/StillImage" />
    <dc:date>2024-10-04T09:07:35.269117</dc:date>
    <dc:format>image/svg+xml</dc:format>
    <dc:creator>
     <ns2:Agent>
      <dc:title>Matplotlib v3.9.2, https://matplotlib.org/</dc:title>
     </ns2:Agent>
    </dc:creator>
   </ns2:Work>
  </rdf:RDF>
 </metadata>
 <defs>
  <style type="text/css">*{stroke-linejoin: round; stroke-linecap: butt}</style>
 </defs>
 <g id="figure_1">
  <g id="patch_1">
   <path d="M 0 345.6  L 460.8 345.6  L 460.8 0  L 0 0  z " style="fill: #ffffff" />
  </g>
  <g id="patch_2">
   <path d="M 57.6 345.6  L 403.2 345.6  L 403.2 0  L 57.6 0  z " style="fill: #ffffff" />
  </g>
  <g id="axes_1">
   <g id="polygon_1">
    <defs>
     <path id="mc3c1be54c3" d="M 389.224446 -23.500864  L 386.141362 -24.231462  L 383.058279 -24.960457  L 379.975195 -25.685999  L 376.892112 -26.406331  L 370.725945 -27.824765  L 364.559778 -29.209594  L 358.393611 -30.562112  L 352.227444 -31.883706  L 346.061277 -33.173946  L 339.89511 -34.431721  L 333.728943 -35.655982  L 327.562776 -36.845775  L 321.396609 -38.000236  L 315.230442 -39.118902  L 309.064275 -40.201372  L 302.898108 -41.247277  L 296.731941 -42.256371  L 290.565774 -43.227974  L 284.399607 -44.159157  L 278.233439 -45.046345  L 272.067272 -45.885962  L 265.901105 -46.674553  L 259.734938 -47.408881  L 253.568771 -48.088054  L 247.402604 -48.711823  L 241.236437 -49.280128  L 235.07027 -49.792752  L 228.904103 -50.249049  L 222.737936 -50.645379  L 216.571769 -50.976749  L 210.405602 -51.238256  L 204.239435 -51.424937  L 198.073268 -51.532845  L 191.907101 -51.565341  L 185.740934 -51.528744  L 179.574767 -51.429407  L 173.4086 -51.273619  L 167.242433 -51.064339  L 161.076266 -50.781436  L 154.910099 -50.395064  L 148.743932 -49.874793  L 142.577765 -49.189393  L 136.411598 -48.310252  L 130.245431 -47.231789  L 124.079264 -45.957027  L 117.913097 -44.472337  L 111.74693 -42.738935  L 105.580763 -40.714181  L 99.414596 -38.348316  L 96.331512 -36.966539  L 93.248429 -35.379676  L 90.165345 -33.496899  L 87.082262 -31.138956  L 84.615795 -28.821896  L 83.382561 -27.55071  L 82.149328 -26.067377  L 81.532711 -25.105054  L 81.224403 -24.465191  L 81.070249 -24.037228  L 80.916095 -23.316095  L 81.070249 -21.876295  L 81.224403 -21.484188  L 81.532711 -20.907806  L 82.149328 -20.074972  L 83.382561 -18.91154  L 84.615795 -18.083084  L 87.082262 -17.065975  L 90.165345 -16.346599  L 93.248429 -15.756035  L 96.331512 -15.286142  L 99.414596 -14.952398  L 105.580763 -14.541793  L 111.74693 -14.258427  L 117.913097 -14.078159  L 124.079264 -13.992727  L 130.245431 -13.988349  L 136.411598 -14.051737  L 142.577765 -14.169942  L 148.743932 -14.330602  L 154.910099 -14.523726  L 161.076266 -14.740066  L 167.242433 -14.970311  L 173.4086 -15.205149  L 179.574767 -15.436812  L 185.740934 -15.664621  L 191.907101 -15.889871  L 198.073268 -16.113826  L 204.239435 -16.337812  L 210.405602 -16.562847  L 216.571769 -16.78896  L 222.737936 -17.015721  L 228.904103 -17.242852  L 235.07027 -17.469982  L 241.236437 -17.696805  L 247.402604 -17.92335  L 253.568771 -18.14971  L 259.734938 -18.376008  L 265.901105 -18.602276  L 272.067272 -18.828636  L 278.233439 -19.055057  L 284.399607 -19.28151  L 290.565774 -19.508024  L 296.731941 -19.734507  L 302.898108 -19.960991  L 309.064275 -20.187443  L 315.230442 -20.413896  L 321.396609 -20.640348  L 327.562776 -20.8668  L 333.728943 -21.093253  L 339.89511 -21.319705  L 346.061277 -21.546158  L 352.227444 -21.77261  L 358.393611 -21.999063  L 364.559778 -22.225515  L 370.725945 -22.451968  L 376.892112 -22.67842  L 379.975195 -22.791631  L 383.058279 -22.904842  L 386.141362 -23.018084  L 389.224446 -23.131325  " style="stroke: #000000; stroke-opacity: 0.8; stroke-width: 2" />
    </defs>
    <g>
     <use ns4:href="#mc3c1be54c3" x="0" y="345.6" style="fill-opacity: 0.1; stroke: #000000; stroke-opacity: 0.8; stroke-width: 2" />
    </g>
   </g>
   <g id="text_1">
    <g>
     <text style="font: 20px 'DejaVu Sans', 'Bitstream Vera Sans', 'Computer Modern Sans Serif', 'Lucida Grande', 'Verdana', 'Geneva', 'Lucid', 'Arial', 'Helvetica', 'Avant Garde', sans-serif; text-anchor: start" x="194.990185" y="346.948574" transform="rotate(-0 194.990185 346.948574)">Clark Y airfoil</text>
    </g>
   </g>
   <g id="text_2">
    <g>
     <text style="font: 20px 'DejaVu Sans', 'Bitstream Vera Sans', 'Computer Modern Sans Serif', 'Lucida Grande', 'Verdana', 'Geneva', 'Lucid', 'Arial', 'Helvetica', 'Avant Garde', sans-serif; text-anchor: start" x="157.993182" y="276.037653" transform="rotate(-0 157.993182 276.037653)">TU Delft V3 kite  center airfoil</text>
    </g>
   </g>
   <g id="text_3">
    <g>
     <text style="font: 20px 'DejaVu Sans', 'Bitstream Vera Sans', 'Computer Modern Sans Serif', 'Lucida Grande', 'Verdana', 'Geneva', 'Lucid', 'Arial', 'Helvetica', 'Avant Garde', sans-serif; text-anchor: start" x="164.159349" y="217.459066" transform="rotate(-0 164.159349 217.459066)">TU Delft V3 kite  planform</text>
    </g>
   </g>
   <g id="polygon_2">
    <defs>
     <path id="mbfe1c04f6f" d="M 82.533493 -90.950428  L 83.407067 -92.248855  L 84.443927 -93.42298  L 85.626626 -94.451174  L 86.932882 -95.317663  L 88.342764 -96.007897  L 89.829207 -96.508398  L 91.369815 -96.810507  L 92.937352 -96.911415  L 94.503438 -96.805928  L 96.043076 -96.499576  L 97.528956 -95.994296  L 98.935988 -95.301548  L 100.239695 -94.431616  L 101.418387 -93.398387  L 102.451704 -92.2217  L 103.321893 -90.921433  L 104.014167 -89.517514  L 104.516471 -88.03703  L 104.820363 -86.503567  L 104.920684 -84.943136  L 104.815557 -83.384173  L 104.506839 -81.851614  L 103.999923 -80.371638  L 103.303286 -78.970474  L 102.429 -77.672035  L 101.392022 -76.497908  L 100.210034 -75.469726  L 98.903185 -74.603227  L 97.494489 -73.913011  L 96.00686 -73.412491  L 94.466252 -73.110383  L 92.8999 -73.009493  L 91.332629 -73.114962  L 89.794177 -73.421333  L 88.308297 -73.926613  L 86.901265 -74.619361  L 85.596946 -75.490469  L 84.418154 -76.52251  L 83.385312 -77.699205  L 82.514174 -78.999457  L 81.822848 -80.403391  L 81.32007 -81.883867  L 81.015704 -83.417323  L 80.916095 -84.977765  L 81.02051 -86.536717  L 81.329347 -88.069278  L 81.837093 -89.549267  L 81.888182 -89.692408  L 82.438149 -91.128001  L 82.986929 -92.563574  L 83.263606 -93.286735  L 83.992834 -94.637419  L 84.723191 -95.991679  L 85.064207 -96.622167  L 86.193031 -97.756247  L 87.284517 -98.851777  L 88.376003 -99.947307  L 89.466302 -101.042818  L 90.069842 -101.647843  L 97.468382 -106.410427  L 107.230998 -110.30813  L 119.0859 -112.84678  L 130.893058 -113.954289  L 135.518139 -114.388617  L 147.364343 -113.836276  L 159.210528 -113.28512  L 170.268007 -112.770013  L 172.756173 -112.654325  L 184.519464 -111.150634  L 196.282656 -109.645755  L 208.045971 -108.142063  L 209.441926 -107.963885  L 221.205181 -106.460193  L 232.968408 -104.955315  L 244.731699 -103.451623  L 255.822679 -102.033279  L 267.585971 -100.529587  L 279.349143 -99.025894  L 291.112434 -97.522202  L 302.203533 -96.10386  L 313.966824 -94.600168  L 325.729996 -93.096475  L 337.493662 -91.591603  L 348.584505 -90.174442  L 360.348052 -88.669569  L 372.110395 -87.165862  L 379.50508 -86.221101  L 389.224446 -84.977765  L 379.50508 -86.221101  L 372.110395 -87.165862  L 360.348052 -88.669569  L 348.584505 -90.174442  L 337.493662 -91.591603  L 325.729996 -93.096475  L 313.966824 -94.600168  L 302.203533 -96.10386  L 291.112434 -97.522202  L 279.349143 -99.025894  L 267.585971 -100.529587  L 255.822679 -102.033279  L 244.731699 -103.451623  L 232.968408 -104.955315  L 221.205181 -106.460193  L 209.441926 -107.963885  L 208.045971 -108.142063  L 196.282656 -109.645755  L 184.519464 -111.150634  L 172.756173 -112.654325  L 170.268007 -112.770013  L 159.210528 -113.28512  L 147.364343 -113.836276  L 135.518139 -114.388617  L 130.893058 -113.954289  L 119.0859 -112.84678  L 107.230998 -110.30813  L 97.468382 -106.410427  L 90.069842 -101.647843  L 89.466302 -101.042818  L 88.376003 -99.947307  L 87.284517 -98.851777  L 86.193031 -97.756247  L 85.064207 -96.622167  L 84.723191 -95.991679  L 83.992834 -94.637419  L 83.263606 -93.286735  L 82.986929 -92.563574  L 82.438149 -91.128001  L 81.888182 -89.692408  L 81.837093 -89.549267  " style="stroke: #000000; stroke-opacity: 0.8; stroke-width: 2" />
    </defs>
    <g>
     <use ns4:href="#mbfe1c04f6f" x="0" y="345.6" style="fill-opacity: 0.1; stroke: #000000; stroke-opacity: 0.8; stroke-width: 2" />
    </g>
   </g>
   <g id="polygon_3">
    <defs>
     <path id="mbc2f1b07ed" d="M 108.558096 -178.152372  L 108.834865 -166.605607  L 108.558096 -178.152372  L 108.837331 -188.467352  L 109.239458 -196.117808  L 110.05444 -204.532622  L 111.303952 -209.062781  L 112.175232 -212.221616  L 115.521395 -214.704639  L 138.01958 -218.909225  L 136.480227 -208.022302  L 139.853028 -152.298157  L 136.480227 -208.022302  L 138.01958 -218.909225  L 154.971946 -221.606091  L 174.927944 -222.982872  L 173.016833 -213.785079  L 175.61988 -148.932294  L 173.016833 -213.785079  L 174.927944 -222.982872  L 193.887427 -224.76064  L 214.328641 -225.270397  L 214.615121 -148.011284  L 214.328641 -225.270397  L 235.07027 -225.594059  L 235.07027 -225.594059  L 255.8119 -225.270397  L 255.525419 -148.011284  L 255.8119 -225.270397  L 276.253113 -224.76064  L 295.212597 -222.982872  L 297.123708 -213.785079  L 294.520661 -148.932294  L 297.123708 -213.785079  L 295.212597 -222.982872  L 315.168595 -221.606091  L 332.120961 -218.909225  L 333.660313 -208.022302  L 330.287512 -152.298157  L 333.660313 -208.022302  L 332.120961 -218.909225  L 346.415862 -216.649263  L 354.619146 -214.704639  L 357.965309 -212.221616  L 358.836588 -209.062781  L 356.006256 -161.816931  L 358.761423 -207.95207  L 360.0861 -204.532622  L 360.901083 -196.117808  L 361.303209 -188.467352  L 361.582444 -178.152372  L 361.305676 -166.605607  L 361.582444 -178.152372  " style="stroke: #000000; stroke-width: 10" />
    </defs>
    <g>
     <use ns4:href="#mbc2f1b07ed" x="0" y="345.6" style="fill-opacity: 0; stroke: #000000; stroke-width: 10" />
    </g>
   </g>
   <g id="polygon_4">
    <defs>
     <path id="m96b22bef4d" d="M 108.834865 -166.605607  L 108.558096 -178.152372  L 108.837331 -188.467352  L 109.239458 -196.117993  L 110.05444 -204.532622  L 112.175232 -212.221616  L 115.521395 -214.704639  L 123.724678 -216.649263  L 137.568833 -219.063903  L 154.971946 -221.606091  L 173.713764 -223.328424  L 193.884344 -224.76064  L 214.100894 -225.429423  L 235.07027 -225.594059  L 256.039647 -225.429423  L 276.256196 -224.76064  L 296.426777 -223.328424  L 315.168595 -221.606091  L 332.571707 -219.063903  L 346.415862 -216.649263  L 354.619146 -214.704639  L 357.965309 -212.221616  L 360.0861 -204.532622  L 360.901083 -196.117808  L 361.303209 -188.467352  L 361.582444 -178.152372  L 361.305676 -166.605607  L 361.305676 -166.605607  L 356.004622 -161.868881  L 345.319703 -157.461552  L 340.016059 -155.727286  L 330.365083 -152.46338  L 318.52894 -152.552481  L 308.668838 -151.49523  L 294.917608 -149.218465  L 280.144119 -149.515767  L 271.149192 -149.379649  L 255.54475 -148.089748  L 242.194166 -148.80635  L 235.07027 -148.787419  L 227.946374 -148.80635  L 214.59579 -148.089748  L 198.991349 -149.379649  L 189.996422 -149.515767  L 175.222933 -149.218465  L 161.471702 -151.49523  L 151.6116 -152.552481  L 139.775458 -152.46338  L 130.124481 -155.727286  L 124.820838 -157.461552  L 114.135919 -161.868881  L 108.834865 -166.605607  L 110.05444 -204.532622  " style="stroke: #000000; stroke-opacity: 0.8; stroke-width: 2" />
    </defs>
    <g>
     <use ns4:href="#m96b22bef4d" x="0" y="345.6" style="fill: #ffffff; fill-opacity: 0.5; stroke: #000000; stroke-opacity: 0.8; stroke-width: 2" />
    </g>
   </g>
  </g>
 </g>
 <defs>
  </defs>
</svg>