<?xml version="1.0" encoding="UTF-8"?>
<svg width="450pt" height="450pt" version="1.1" viewBox="0 0 450 450" xmlns="http://www.w3.org/2000/svg" xmlns:xlink="http://www.w3.org/1999/xlink">
<defs>
<g id="i">
<path d="m20.328-8.8438c0-5.5156-3.5781-9.2969-9.3594-9.2969-5.7969 0-9.3594 3.8125-9.3594 9.2969s3.6406 9.1562 9.3594 9.1562 9.3594-3.6719 9.3594-9.1562zm-3.6562-0.35938c0 2.5781-0.29688 4.7344-1.5938 6.5312-0.64062 0.875-2.0781 2-4.1094 2-1.6875 0-3.3281-0.8125-4.3125-2.2969-1.25-1.8906-1.375-4.3438-1.375-6.2344 0-1.5938 0.078125-3.7656 1.1406-5.5312 1.1406-1.8281 3.0156-2.4844 4.5469-2.4844 2.1094 0 3.6719 1.125 4.4219 2.2969 0.96875 1.5 1.2812 3.125 1.2812 5.7188z"/>
</g>
<g id="h">
<path d="m21.656 0v-1.125h-0.70312c-1.4062 0-1.5-0.125-1.7656-0.48438l-7-9.3594 6.1875-5.25c0.34375-0.29688 0.57812-0.5 2.8906-0.5v-1.125l-2.7812 0.0625c-0.78125 0-2.8125 0-3.4531-0.0625v1.125c0.5625 0 1.1875 0.03125 1.875 0.28125v0.03125l-9.7344 8.2969v-8.6094h2.7656v-1.125c-0.76562 0.0625-3.5469 0.0625-4.4844 0.0625-0.92188 0-3.7188 0-4.4688-0.0625v1.125h2.7656v15.594h-2.7656v1.125c0.75-0.046875 3.5469-0.046875 4.4688-0.046875 0.9375 0 3.7188 0 4.4844 0.046875v-1.125h-2.7656v-5.5625l2.6875-2.2812 5.4219 7.25c0.0625 0.078125 0.15625 0.20312 0.15625 0.3125 0 0.28125-1.2656 0.28125-1.8438 0.28125v1.125c0.84375-0.046875 3.25-0.046875 4.25-0.046875 0.76562 0 3.2188 0 3.8125 0.046875z"/>
</g>
<g id="b">
<path d="m14.797-10.422v-1.125c-0.9375 0.0625-0.98438 0.0625-2.0625 0.0625l-2.2344-0.0625v1.125c0.70312 0 1.2812 0.125 1.2812 0.3125 0 0 0 0.046875-0.14062 0.3125l-3.0312 6.6719-3.3594-7.2969h1.4375v-1.125c-0.60938 0.0625-2.4219 0.0625-3.125 0.0625-0.75 0-2.2656 0-2.9375-0.0625v1.125h1.6406l4.5781 9.9219c0.23438 0.5 0.28125 0.625 0.875 0.625 0.42188 0 0.625-0.046875 0.85938-0.5625l4.2969-9.3906c0.17188-0.39062 0.28125-0.59375 1.9219-0.59375z"/>
</g>
<g id="g">
<path d="m12.484-3.7188c0-0.125-0.10938-0.23438-0.26562-0.23438-0.23438 0-0.26562 0.125-0.34375 0.34375-0.6875 2.2812-2.2031 3.3438-3.375 3.3438-0.90625 0-1.4062-0.67188-1.4062-1.7344 0-0.57812 0.10938-0.98438 0.53125-2.7031l0.90625-3.5312c0.39062-1.5625 1.2656-2.7188 2.4688-2.7188 0 0 0.78125 0 1.3281 0.34375-0.84375 0.15625-1.1406 0.78125-1.1406 1.2812 0 0.625 0.48438 0.82812 0.84375 0.82812 0.78125 0 1.3281-0.67188 1.3281-1.375 0-1.0938-1.25-1.5938-2.3281-1.5938-1.5938 0-2.4844 1.5625-2.7188 2.0625-0.59375-1.9531-2.2031-2.0625-2.6719-2.0625-2.6562 0-4.0469 3.4062-4.0469 3.9844 0 0.09375 0.09375 0.23438 0.28125 0.23438 0.20312 0 0.25-0.15625 0.3125-0.26562 0.875-2.8906 2.625-3.4375 3.375-3.4375 1.1719 0 1.4062 1.0938 1.4062 1.7188 0 0.57812-0.15625 1.1719-0.46875 2.4219l-0.89062 3.5625c-0.39062 1.5625-1.1406 2.9844-2.5156 2.9844-0.125 0-0.78125 0-1.3281-0.32812 0.9375-0.1875 1.1406-0.96875 1.1406-1.2812 0-0.51562-0.39062-0.82812-0.875-0.82812-0.625 0-1.2969 0.54688-1.2969 1.375 0 1.0938 1.2188 1.5938 2.3281 1.5938 1.25 0 2.1406-1 2.6875-2.0625 0.40625 1.5312 1.7188 2.0625 2.6719 2.0625 2.6562 0 4.0625-3.4062 4.0625-3.9844z"/>
</g>
<g id="f">
<path d="m11.078-3.6406c0-0.10938-0.03125-0.26562-0.28125-0.26562-0.21875 0-0.23438 0.10938-0.3125 0.375-0.57812 1.5312-2.1094 2.1562-3.125 2.1562-0.54688 0-1.0625-0.1875-1.6094-0.42188-1.0469-0.40625-1.3281-0.40625-1.6719-0.40625-0.25 0-0.54688 0-0.78125 0.09375 1.125-1.2656 2.0312-2.0781 3.3281-3.25 1.5625-1.3438 2.2344-2 2.6094-2.3906 1.8125-1.7969 2.7188-3.2969 2.7188-3.5156 0-0.20312-0.25-0.20312-0.25-0.20312-0.1875 0-0.23438 0.10938-0.35938 0.28125-0.65625 1.125-1.2812 1.6719-1.9531 1.6719-0.54688 0-0.84375-0.23438-1.3281-0.85938-0.54688-0.65625-0.98438-1.0938-1.75-1.0938-1.8906 0-3.0312 2.375-3.0312 2.9219 0 0.078125 0.015625 0.23438 0.25 0.23438 0.21875 0 0.23438-0.10938 0.3125-0.29688 0.45312-1.0312 1.6875-1.2188 2.1875-1.2188 0.54688 0 1.0625 0.1875 1.6094 0.42188 0.98438 0.40625 1.4062 0.40625 1.6719 0.40625 0.17188 0 0.28125 0 0.40625-0.015625-0.85938 1-2.25 2.25-3.4219 3.3281-1.6719 1.4531-2.1094 1.9219-2.625 2.4062-1.5938 1.625-2.5469 3.1562-2.5469 3.3281 0 0.15625 0.125 0.21875 0.28125 0.21875s0.1875-0.03125 0.35938-0.34375c0.42188-0.65625 1.25-1.6094 2.2188-1.6094 0.54688 0 0.79688 0.17188 1.3125 0.82812 0.5 0.57812 0.9375 1.125 1.7812 1.125 2.5469 0 4-3.3125 4-3.9062z"/>
</g>
<g id="a">
<path d="m11.953-7.3594v-0.46875c-0.35938 0.015625-0.71875 0.03125-1.0781 0.03125s-1.1406 0-1.4531-0.03125v0.46875c0.57812 0.046875 0.875 0.375 0.875 0.82812 0 0.125-0.03125 0.28125-0.0625 0.42188l-1.7188 4.9375-1.8594-5.3594c-0.03125-0.125-0.078125-0.28125-0.078125-0.34375 0-0.48438 0.60938-0.48438 0.90625-0.48438v-0.46875c-0.42188 0.03125-1.1875 0.03125-1.625 0.03125-0.45312 0-0.92188 0-1.3438-0.03125v0.46875c1 0 1 0.046875 1.375 1.1875l-1.6719 4.875-1.7969-5.25c-0.09375-0.25-0.09375-0.28125-0.09375-0.32812 0-0.48438 0.625-0.48438 0.90625-0.48438v-0.46875c-0.4375 0.03125-1.2031 0.03125-1.6562 0.03125-0.39062 0-1.0156 0-1.3906-0.03125v0.46875c0.79688 0 1 0.0625 1.2031 0.65625l2.2344 6.5625c0.0625 0.23438 0.125 0.28125 0.26562 0.28125 0.125 0 0.20312-0.03125 0.29688-0.29688l1.875-5.5 1.8906 5.5c0.09375 0.26562 0.17188 0.29688 0.29688 0.29688 0.14062 0 0.20312-0.046875 0.26562-0.28125l2.0781-6.0781c0.35938-1.0781 1.0938-1.1094 1.3594-1.1406z"/>
</g>
<g id="e">
<path d="m8.6406 0v-0.46875c-0.84375 0-1.0469-0.17188-1.5938-0.96875l-2.2969-3.375c-0.015625-0.03125-0.10938-0.14062-0.10938-0.1875l1.4531-1.375c1.0469-0.875 1.7031-0.95312 2.1719-0.98438v-0.46875c-0.10938 0-0.17188 0.015625-0.17188 0.015625l-0.89062 0.015625c-0.5 0-1.2812 0-1.7812-0.03125v0.46875c0.25 0.03125 0.4375 0.17188 0.4375 0.42188 0 0.35938-0.375 0.71875-0.375 0.71875l-2.75 2.5v-8.9219l-2.1719 0.20312v0.48438c1.0781 0 1.2344 0.10938 1.2344 0.98438v9.7188c0 0.6875-0.0625 0.78125-1.2344 0.78125v0.46875c0.4375-0.03125 1.2344-0.03125 1.6875-0.03125 0.46875 0 1.2656 0 1.7031 0.03125v-0.46875c-1.1719 0-1.2344-0.078125-1.2344-0.78125v-2.0156l1.25-1.1406 1.8438 2.7344c0.21875 0.32812 0.39062 0.57812 0.39062 0.8125 0 0.32812-0.32812 0.39062-0.54688 0.39062v0.46875c0.4375-0.03125 1.2188-0.03125 1.6719-0.03125z"/>
</g>
<clipPath id="o">
<path d="m0 0h450v450h-450z"/>
</clipPath>
<clipPath id="n">
<rect width="450" height="450"/>
</clipPath>
<g id="d" clip-path="url(#n)">
<g clip-path="url(#o)">
<rect x="-99" y="-99" width="648" height="648" fill="#fff"/>
<rect x="-99" y="-99" width="648" height="648" fill="#fff"/>
</g>
<path transform="matrix(1.0001 0 0 1.0001 0 -.027)" d="m223.89 326.73-59.555-48.821" fill="none" stroke="#000" stroke-linejoin="round" stroke-width="1.5"/>
<path transform="matrix(1.0001 0 0 1.0001 0 -.027)" d="m140.17 228.25 4.7927-0.95307 4.3122-0.62887 3.2068-0.3906 3.5467-0.2617 3.3201 0.32811 1.2109 1.2148 1.2538 3.285 1.7499 5.6012 1.996 7.0777 1.7304 7.6988 1.6835 8.312 1.3671 8.3901 1.1991 8.7378 1.0585 8.769 0.81245 8.4839 0.48825 8.519 0.29295 7.9487-0.12109 7.4449-0.2617 5.9528-0.36717 3.5623-0.85151 1.578-3.0897 1.4413-3.4607 0.94916-3.1639 0.71871-4.281 0.86323-4.8278 0.71871-2.2577-1.8671-2.41-4.1404-1.0078-2.0897-1.8788-3.7927-0.60153-4.945-0.96869-4.0388-1.6913-5.5739-0.67183-6.1832-0.53903-3.7459-1.3788-6.4215-0.42185-5.6208-0.3906-2.9764-0.37498-2.9725-1.0195-5.5192-0.30076-6.6051-0.42966-3.7654-0.91791-6.1403 0.20702-5.9059-0.089838-4.1912-0.67574-4.9333 0.83979-4.2615 0.43747-2.3397 1.2577-4.7771 1.6874-2.5545 15.858-2.2342" fill-opacity=".1" stroke="#000" stroke-linejoin="round" stroke-opacity=".8" stroke-width=".75"/>
</g>
<clipPath id="m">
<path d="m222 324h228v50h-228z"/>
</clipPath>
<clipPath id="l">
<path d="m443 362h7v16h-7z"/>
</clipPath>
<clipPath id="k">
<path d="m431 351h19v39h-19z"/>
</clipPath>
<clipPath id="j">
<rect width="450" height="450"/>
</clipPath>
<g id="c" clip-path="url(#j)">
<path transform="matrix(1.0001 0 0 1.0001 0 -.027)" d="m144.96 227.29-4.7927 0.95307 4.7927-0.95307 4.3122-0.62887 3.2068-0.3906 3.5467-0.2617 1.9569 0.1914 1.3632 0.13671 1.2109 1.2148 2.9647 9.0854-4.6169 0.14452-23.026 5.4411 23.026-5.4411 4.6169-0.14452 2.035 6.8785 1.6522 8.23-3.9373-0.1328-26.866 5.777 26.866-5.777 3.9373 0.1328 1.7616 7.7847 1.3124 8.4917-32.162 5.7067 32.162-5.7067 1.2538 8.6323 0.98041 8.6831-32.193 5.4684 32.193-5.4684 0.89057 8.5659 0.28123 8.0425-3.7302 1.4648-27.151 3.6013 27.151-3.6013 3.7302-1.4648 0.49997 8.4292-0.21092 7.2691-4.449 1.4296-23.393 2.6209 23.393-2.6209 4.449-1.4296-0.17186 6.1285-0.36717 3.5623-0.85151 1.578-1.2695 0.58981-19.831 2.2381 19.362-2.1874-1.3515 0.80073-3.4607 0.94916-3.1639 0.71871-4.281 0.86323-4.8278 0.71871 4.8278-0.71871" fill="none" stroke="#000" stroke-linejoin="round" stroke-width="3.75"/>
<path transform="matrix(1.0001 0 0 1.0001 0 -.027)" d="m223.89 326.73-148.56 88.003" fill="none" stroke="#000" stroke-linejoin="round" stroke-width="3.75"/>
<path transform="matrix(1.0001 -.59243 .59243 1.0001 0 -.027)" d="m-127.26 340.03 6.4523-6.4544-22.585 6.4556 22.584 6.4494z" stroke="#000" stroke-width="1.7207"/>
<g clip-path="url(#m)">
<path transform="matrix(1.0001 0 0 1.0001 0 -.027)" d="m223.89 326.73 226.86 44.798" fill="none" stroke="#000" stroke-linejoin="round" stroke-width="3.75"/>
</g>
<g clip-path="url(#l)">
<path d="m452.1 371.79-8.8125 5.9062 27.207-2.2734-24.301-12.441z"/>
</g>
<g clip-path="url(#k)">
<path transform="matrix(-1.0001 -.19748 .19748 -1.0001 0 -.027)" d="m-505.77-271.92 7.3588-7.359-25.752 7.3585 25.752 7.3556z" fill="none" stroke="#000" stroke-width="1.9621"/>
</g>
<path transform="matrix(1.0001 0 0 1.0001 0 -.027)" d="m223.89 326.73v-291.74" fill="none" stroke="#000" stroke-linejoin="round" stroke-width="3.75"/>
<path transform="matrix(0 1.0001 -1.0001 0 0 -.027)" d="m33.634-223.89 7.4996-7.4996-26.252 7.4996 26.252 7.5035z" stroke="#000" stroke-width="2"/>
<path transform="matrix(1.0001 0 0 1.0001 0 -.027)" d="m164.34 277.91-65.527 38.822" fill="none" stroke="#f00" stroke-linejoin="round" stroke-width="3.75"/>
<path transform="matrix(1.0001 -.59243 .59243 1.0001 0 -.027)" d="m-66.907 277.78 6.4506-6.4515-22.586 6.451 22.587 6.4511z" fill="#f00" stroke="#f00" stroke-width="1.7207"/>
<path transform="matrix(1.0001 0 0 1.0001 0 -.027)" d="m164.34 277.91 236.75-41.119" fill="none" stroke="#f00" stroke-linejoin="round" stroke-width="3.75"/>
<path transform="matrix(-1.0001 .1737 -.1737 -1.0001 0 -.027)" d="m-350.75-297.48 7.3883-7.3881-25.86 7.3866 25.859 7.3898z" fill="#f00" stroke="#f00" stroke-width="1.9705"/>
<path transform="matrix(1.0001 0 0 1.0001 0 -.027)" d="m227.75 326.73c0 2.1757-1.7655 3.9373-3.9373 3.9373-2.1757 0-3.9373-1.7616-3.9373-3.9373 0-2.1717 1.7616-3.9373 3.9373-3.9373 2.1717 0 3.9373 1.7655 3.9373 3.9373z" fill="#fff" stroke="#000" stroke-linejoin="round" stroke-width="2.3625"/>
<path transform="matrix(1.0001 0 0 1.0001 0 -.027)" d="m168.2 277.91c0 2.1757-1.7655 3.9412-3.9373 3.9412-2.1796 0-3.9412-1.7655-3.9412-3.9412 0-2.1717 1.7616-3.9373 3.9412-3.9373 2.1717 0 3.9373 1.7655 3.9373 3.9373z" fill="#fff" stroke="#000" stroke-linejoin="round" stroke-width="2.3625"/>
</g>
</defs>
<use xlink:href="#d"/>
<g>
<use x="216.389" y="353.732" xlink:href="#i"/>
<use x="173.337" y="267.414" xlink:href="#h"/>
<use x="51.828" y="443.106" xlink:href="#g"/>
<use x="66.295" y="447.006" xlink:href="#a"/>
<use x="232.89" y="28.139" xlink:href="#f"/>
<use x="244.716" y="32.039" xlink:href="#a"/>
<use x="406.137" y="260.307" xlink:href="#b"/>
<use x="421.575" y="264.207" xlink:href="#e"/>
<use x="81.306" y="351.096" xlink:href="#b"/>
<use x="96.743" y="354.996" xlink:href="#a"/>
</g>
<use xlink:href="#c"/>
</svg>
