<svg xmlns="http://www.w3.org/2000/svg" xmlns:dc="http://purl.org/dc/elements/1.1/" xmlns:ns2="http://creativecommons.org/ns#" xmlns:ns4="http://www.w3.org/1999/xlink" xmlns:rdf="http://www.w3.org/1999/02/22-rdf-syntax-ns#" width="600" height="600" viewBox="0 0 600 600" version="1.1">
 <defs>
</defs><metadata>
  <rdf:RDF>
   <ns2:Work>
    <dc:type rdf:resource="http://purl.org/dc/dcmitype/StillImage" />
    <dc:date>2024-02-07T10:29:45.463341</dc:date>
    <dc:format>image/svg+xml</dc:format>
    <dc:creator>
     <ns2:Agent>
      <dc:title>Matplotlib v3.7.2, https://matplotlib.org/</dc:title>
     </ns2:Agent>
    </dc:creator>
   </ns2:Work>
  </rdf:RDF>
 </metadata>
 <defs>
  <style type="text/css">*{stroke-linejoin: round; stroke-linecap: butt}</style>
 </defs>
 <g id="figure_1">
  <g id="patch_1">
   <path d="M 0 600  L 600 600  L 600 0  L 0 0  z " style="fill: #ffffff" />
  </g>
  <g id="patch_2">
   <path d="M 0 600  L 600 600  L 600 0  L 0 0  z " style="fill: #ffffff" />
  </g>
  <g id="axes_1">
   <g id="line2d_1">
    <path d="M 51.184482 291.891892  L 51.184482 291.891892  " style="fill: none; stroke: #0000ff; stroke-width: 1.5; stroke-linecap: square" />
   </g>
   <g id="line2d_2">
    <path d="M 51.184482 291.891892  L 51.184482 -1  " style="fill: none; stroke: #0000ff; stroke-width: 1.5; stroke-linecap: square" />
   </g>
   <g id="line2d_3">
    <path d="M 51.184482 291.891892  L 565.031734 291.891892  " style="fill: none; stroke: #0000ff; stroke-width: 1.5; stroke-linecap: square" />
   </g>
   <g id="line2d_4">
    <path d="M 51.184482 291.891892  L 51.184482 -1  " style="fill: none; stroke: #0000ff; stroke-width: 1.5; stroke-linecap: square" />
   </g>
   <g id="line2d_5">
    <path d="M 51.184482 291.891892  L 565.031734 291.891892  " style="fill: none; stroke: #0000ff; stroke-width: 1.5; stroke-linecap: square" />
   </g>
   <g id="line2d_6">
    <path style="fill: none; stroke: #0000ff; stroke-width: 1.5; stroke-linecap: square" />
   </g>
   <g id="line2d_7">
    <path style="fill: none; stroke: #0000ff; stroke-width: 1.5; stroke-linecap: square" />
   </g>
   <g id="line2d_8">
    <path style="fill: none; stroke: #0000ff; stroke-width: 1.5; stroke-linecap: square" />
   </g>
   <g id="line2d_9">
    <path d="M 565.031734 291.891892  L 565.031734 291.891892  " style="fill: none; stroke: #0000ff; stroke-width: 1.5; stroke-linecap: square" />
   </g>
   <g id="line2d_10">
    <path d="M 565.031734 291.891892  L 565.031734 -1  " style="fill: none; stroke: #0000ff; stroke-width: 1.5; stroke-linecap: square" />
   </g>
   <g id="line2d_11">
    <path d="M 565.031734 291.891892  L 565.031734 -1  " style="fill: none; stroke: #0000ff; stroke-width: 1.5; stroke-linecap: square" />
   </g>
   <g id="line2d_12">
    <path style="fill: none; stroke: #0000ff; stroke-width: 1.5; stroke-linecap: square" />
   </g>
   <g id="polygon_1">
    <defs>
     <path id="m7e7ca36ee5" d="M 53.880146 -318.062546  L 55.336103 -320.226592  L 57.064202 -322.183466  L 59.035368 -323.897123  L 61.212462 -325.341272  L 63.562264 -326.491662  L 66.039669 -327.325831  L 68.607349 -327.829344  L 71.219912 -327.997526  L 73.830054 -327.821713  L 76.396117 -327.311127  L 78.872584 -326.468993  L 81.217638 -325.314413  L 83.390483 -323.864527  L 85.354969 -322.142479  L 87.077164 -320.181333  L 88.527479 -318.014221  L 89.68127 -315.674357  L 90.518442 -313.206883  L 91.024929 -310.651112  L 91.192131 -308.050394  L 91.01692 -305.452122  L 90.502389 -302.897856  L 89.657529 -300.43123  L 88.496467 -298.095956  L 87.039324 -295.931891  L 85.311027 -293.975014  L 83.341047 -292.261376  L 81.162965 -290.817211  L 78.815139 -289.666852  L 76.335757 -288.832652  L 73.768078 -288.329139  L 71.157491 -288.160989  L 68.545373 -288.33677  L 65.981286 -288.847388  L 63.504819 -289.689522  L 61.159765 -290.844102  L 58.985901 -292.295948  L 57.021248 -294.016017  L 55.299844 -295.977176  L 53.847948 -298.144262  L 52.695738 -300.484152  L 51.857775 -302.951613  L 51.350498 -305.507371  L 51.184482 -308.108108  L 51.358507 -310.706361  L 51.873236 -313.26063  L 52.719479 -315.727278  L 52.804628 -315.965847  L 53.721239 -318.358501  L 54.635873 -320.751124  L 55.097 -321.956392  L 56.312381 -324.207531  L 57.529643 -326.464631  L 58.098002 -327.515446  L 59.979376 -329.405578  L 61.798519 -331.231461  L 63.617662 -333.057345  L 65.434828 -334.883197  L 66.440727 -335.891571  L 78.771628 -343.829211  L 95.042654 -350.325384  L 114.800824 -354.556467  L 134.479421 -356.402315  L 142.187889 -357.126195  L 161.931563 -356.205626  L 181.675205 -355.287033  L 200.104336 -354.428522  L 204.25128 -354.235709  L 223.856765 -351.729556  L 243.462084 -349.221424  L 263.067609 -346.715272  L 265.3942 -346.418309  L 284.999626 -343.912156  L 304.605005 -341.404024  L 324.21049 -338.897872  L 342.695457 -336.533965  L 362.300942 -334.027812  L 381.906229 -331.521656  L 401.511715 -329.015504  L 419.996879 -326.651599  L 439.602364 -324.145447  L 459.207652 -321.639291  L 478.813761 -319.131172  L 497.298499 -316.769237  L 516.904411 -314.261115  L 536.508315 -311.754937  L 548.832791 -310.180335  L 565.031734 -308.108108  L 548.832791 -310.180335  L 536.508315 -311.754937  L 516.904411 -314.261115  L 497.298499 -316.769237  L 478.813761 -319.131172  L 459.207652 -321.639291  L 439.602364 -324.145447  L 419.996879 -326.651599  L 401.511715 -329.015504  L 381.906229 -331.521656  L 362.300942 -334.027812  L 342.695457 -336.533965  L 324.21049 -338.897872  L 304.605005 -341.404024  L 284.999626 -343.912156  L 265.3942 -346.418309  L 263.067609 -346.715272  L 243.462084 -349.221424  L 223.856765 -351.729556  L 204.25128 -354.235709  L 200.104336 -354.428522  L 181.675205 -355.287033  L 161.931563 -356.205626  L 142.187889 -357.126195  L 134.479421 -356.402315  L 114.800824 -354.556467  L 95.042654 -350.325384  L 78.771628 -343.829211  L 66.440727 -335.891571  L 65.434828 -334.883197  L 63.617662 -333.057345  L 61.798519 -331.231461  L 59.979376 -329.405578  L 58.098002 -327.515446  L 57.529643 -326.464631  L 56.312381 -324.207531  L 55.097 -321.956392  L 54.635873 -320.751124  L 53.721239 -318.358501  L 52.804628 -315.965847  L 52.719479 -315.727278  " style="stroke: #000000; stroke-opacity: 0.8; stroke-width: 2" />
    </defs>
    <g>
     <use ns4:href="#m7e7ca36ee5" x="0" y="600" style="fill-opacity: 0.5; stroke: #000000; stroke-opacity: 0.8; stroke-width: 2" />
    </g>
   </g>
  </g>
 </g>
 <defs>
  </defs>
</svg>