<svg xmlns="http://www.w3.org/2000/svg" xmlns:dc="http://purl.org/dc/elements/1.1/" xmlns:ns2="http://creativecommons.org/ns#" xmlns:rdf="http://www.w3.org/1999/02/22-rdf-syntax-ns#" width="600" height="600" viewBox="0 0 600 600" version="1.1">
 <defs>
  <marker id="Point1M-k:k:w" style="overflow:visible" refX="0" refY="0" orient="auto">
  <path style="stroke:#000000;fill:#ffffff;stroke-width:3;opacity:1" d="M -2.5,-1.0 C -2.5,1.7600000 -4.7400000,4.0 -7.5,4.0 C -10.260000,4.0 -12.5,1.7600000 -12.5,-1.0 C -12.5,-3.7600000 -10.260000,-6.0 -7.5,-6.0 C -4.7400000,-6.0 -2.5,-3.7600000 -2.5,-1.0 z" transform="scale(0.35) translate(7.4, 1)" />
  </marker>
  <marker id="Arrow1Mend-k:k" style="overflow:visible" refX="0" refY="0" orient="auto">
  <path style="stroke:#000000;fill:#000000;stroke-width:1pt;opacity:1;stroke-linejoin:miter" d="M 0.0,0.0 L 5.0,-5.0 L -12.5,0.0 L 5.0,5.0 L 0.0,0.0 z" transform="scale(0.4) rotate(180) translate(-0.9,0)" />
  </marker>
  <marker id="Arrow1Mend-r:r" style="overflow:visible" refX="0" refY="0" orient="auto">
  <path style="stroke:#ff0000;fill:#ff0000;stroke-width:1pt;opacity:1;stroke-linejoin:miter" d="M 0.0,0.0 L 5.0,-5.0 L -12.5,0.0 L 5.0,5.0 L 0.0,0.0 z" transform="scale(0.4) rotate(180) translate(-0.9,0)" />
  </marker>
</defs><metadata>
  <rdf:RDF>
   <ns2:Work>
    <dc:type rdf:resource="http://purl.org/dc/dcmitype/StillImage" />
    <dc:date>2024-02-03T09:56:24.089309</dc:date>
    <dc:format>image/svg+xml</dc:format>
    <dc:creator>
     <ns2:Agent>
      <dc:title>Matplotlib v3.7.2, https://matplotlib.org/</dc:title>
     </ns2:Agent>
    </dc:creator>
   </ns2:Work>
  </rdf:RDF>
 </metadata>
 <defs>
  <style type="text/css">*{stroke-linejoin: round; stroke-linecap: butt}</style>
 </defs>
 <g id="figure_1">
  <g id="patch_1">
   <path d="M 0 600  L 600 600  L 600 0  L 0 0  z " style="fill: #ffffff" />
  </g>
  <g id="patch_2">
   <path d="M 0 600  L 600 600  L 600 0  L 0 0  z " style="fill: #ffffff" />
  </g>
  <g id="axes_1">
   <g id="line_1">
    <path d="M 298.520607 435.641369  L 219.114914 370.548925  " style="fill: none; stroke: #000000; stroke-width: 2" />
   </g>
   <g id="line_2">
    <path d="M 298.520607 435.641369  L 206.83081 552.677577  " style="fill: none; stroke: #000000; stroke-width: 2" />
   </g>
   <g id="text_1">
    <g>
     <text style="font: 20px 'DejaVu Sans', 'Bitstream Vera Sans', 'Computer Modern Sans Serif', 'Lucida Grande', 'Verdana', 'Geneva', 'Lucid', 'Arial', 'Helvetica', 'Avant Garde', sans-serif; text-anchor: start" x="288.520607" y="471.641369" transform="rotate(-0 288.520607 471.641369)">$\vec{O}$</text>
    </g>
   </g>
   <g id="text_2">
    <g>
     <text style="font: 20px 'DejaVu Sans', 'Bitstream Vera Sans', 'Computer Modern Sans Serif', 'Lucida Grande', 'Verdana', 'Geneva', 'Lucid', 'Arial', 'Helvetica', 'Avant Garde', sans-serif; text-anchor: start" x="231.114914" y="356.548925" transform="rotate(-0 231.114914 356.548925)">$\vec{K}$</text>
    </g>
   </g>
   <g id="text_3">
    <g>
     <text style="font: 20px 'DejaVu Sans', 'Bitstream Vera Sans', 'Computer Modern Sans Serif', 'Lucida Grande', 'Verdana', 'Geneva', 'Lucid', 'Arial', 'Helvetica', 'Avant Garde', sans-serif; text-anchor: start" x="69.10675" y="590.806111" transform="rotate(-0 69.10675 590.806111)">$\xw$</text>
    </g>
   </g>
   <g id="text_4">
    <g>
     <text style="font: 20px 'DejaVu Sans', 'Bitstream Vera Sans', 'Computer Modern Sans Serif', 'Lucida Grande', 'Verdana', 'Geneva', 'Lucid', 'Arial', 'Helvetica', 'Avant Garde', sans-serif; text-anchor: start" x="666.020656" y="541.369368" transform="rotate(-0 666.020656 541.369368)">$\yw$</text>
    </g>
   </g>
   <g id="text_5">
    <g>
     <text style="font: 20px 'DejaVu Sans', 'Bitstream Vera Sans', 'Computer Modern Sans Serif', 'Lucida Grande', 'Verdana', 'Geneva', 'Lucid', 'Arial', 'Helvetica', 'Avant Garde', sans-serif; text-anchor: start" x="310.520607" y="37.519434" transform="rotate(-0 310.520607 37.519434)">$\zw$</text>
    </g>
   </g>
   <g id="text_6">
    <g>
     <text style="font: 20px 'DejaVu Sans', 'Bitstream Vera Sans', 'Computer Modern Sans Serif', 'Lucida Grande', 'Verdana', 'Geneva', 'Lucid', 'Arial', 'Helvetica', 'Avant Garde', sans-serif; text-anchor: start" x="541.511552" y="347.07758" transform="rotate(-0 541.511552 347.07758)">$\vvk$</text>
    </g>
   </g>
   <g id="text_7">
    <g>
     <text style="font: 20px 'DejaVu Sans', 'Bitstream Vera Sans', 'Computer Modern Sans Serif', 'Lucida Grande', 'Verdana', 'Geneva', 'Lucid', 'Arial', 'Helvetica', 'Avant Garde', sans-serif; text-anchor: start" x="108.407985" y="468.131295" transform="rotate(-0 108.407985 468.131295)">$\vvw$</text>
    </g>
   </g>
   <g id="text_8">
    <g>
     <text style="font: 20px 'DejaVu Sans', 'Bitstream Vera Sans', 'Computer Modern Sans Serif', 'Lucida Grande', 'Verdana', 'Geneva', 'Lucid', 'Arial', 'Helvetica', 'Avant Garde', sans-serif; text-anchor: start" x="221.114914" y="430.548925" transform="rotate(-0 221.114914 430.548925)">$\beta$</text>
    </g>
   </g>
   <g id="text_9">
    <g>
     <text style="font: 20px 'DejaVu Sans', 'Bitstream Vera Sans', 'Computer Modern Sans Serif', 'Lucida Grande', 'Verdana', 'Geneva', 'Lucid', 'Arial', 'Helvetica', 'Avant Garde', sans-serif; text-anchor: start" x="178.83081" y="532.677577" transform="rotate(-0 178.83081 532.677577)">$\phi$</text>
    </g>
   </g>
   <g id="arc_1">
    <path d="M 121.389521 540.573163  L 121.497425 528.891284  L 121.821004 517.095795  L 122.359864 505.201066  L 123.113349 493.22159  L 124.080541 481.17196  L 125.260261 469.066859  L 126.651072 456.921034  L 128.251279 444.749283  L 130.058934 432.566435  L 132.071833 420.387334  L 134.287524 408.226817  L 136.703308 396.099701  L 139.316242 384.020761  L 142.123141 372.004712  L 145.120587 360.066194  L 148.304927 348.219753  L 151.672282 336.479822  L 155.218549 324.860704  L 158.939407 313.376555  L 162.830323 302.041367  L 166.886557 290.86895  L 171.103167 279.872916  L 175.475016 269.066662  L 179.996776 258.463354  L 184.66294 248.075909  L 189.467822 237.916984  L 194.405567 227.998956  L 199.470161 218.333908  L 204.655432 208.933616  L 209.955064 199.809533  L 215.362599 190.972774  L 220.87145 182.434106  L 226.474904 174.203932  L 232.166134 166.292279  L 237.938208 158.708787  L 243.784091 151.462694  L 249.696663 144.56283  L 255.668719 138.0176  L 261.692983 131.834978  L 267.762117 126.022498  L 273.868724 120.58724  L 280.005367 115.535828  L 286.164567 110.874415  L 292.338821 106.60868  L 298.520607 102.743821  L 304.702393 99.284547  L 310.876647 96.235071  L 317.035847 93.59911  L 323.172489 91.379874  L 329.279097 89.580068  L 335.34823 88.201885  L 341.372495 87.247003  L 347.344551 86.716586  L 353.257122 86.61128  L 359.103006 86.931213  L 364.875079 87.675996  L 370.56631 88.844721  L 376.169764 90.435964  L 381.678614 92.447788  L 387.08615 94.877739  L 392.385781 97.722859  L 397.571053 100.97968  L 402.635647 104.644235  L 407.573392 108.712059  L 412.378274 113.178196  L 417.044437 118.037204  L 421.566198 123.283165  L 425.938046 128.909686  L 430.154656 134.909912  L 434.210891 141.276533  L 438.101807 148.001792  L 441.822665 155.077496  L 445.368932 162.495023  L 448.736287 170.245338  L 451.920627 178.318996  L 454.918072 186.706163  L 457.724972 195.396618  L 460.337905 204.379775  L 462.753689 213.644688  L 464.969381 223.18007  L 466.98228 232.974303  L 468.789934 243.015455  L 470.390142 253.291292  L 471.780953 263.789295  L 472.960673 274.496673  L 473.927865 285.400381  L 474.68135 296.487134  L 475.22021 307.743425  L 475.543789 319.15554  L 475.651692 330.709576  L 475.651692 330.709576  " style="fill: none; stroke-dasharray: 12,12; stroke-dashoffset: 0; stroke: #000000; stroke-opacity: 0.3; stroke-width: 2" />
   </g>
   <g id="arc_2">
    <path d="M 121.389521 540.573163  L 132.204592 542.623536  L 143.222293 544.543569  L 154.429201 546.33092  L 165.811662 547.983414  L 177.355808 549.499036  L 189.047576 550.87594  L 200.872719 552.112449  L 212.816831 553.207055  L 224.86536 554.158426  L 237.003626 554.965402  L 249.216842 555.627  L 261.490127 556.142414  L 273.808527 556.511016  L 292.337879 556.787714  L 310.884178 556.732357  L 329.396589 556.345099  L 341.694305 555.903023  L 353.93942 555.314428  L 366.117016 554.580029  L 378.212256 553.700722  L 390.210404 552.677577  L 402.096842 551.511842  L 413.857088 550.204937  L 425.476815 548.758453  L 436.941865 547.174154  L 448.23827 545.453969  L 459.352267 543.599995  L 470.270315 541.61449  L 480.979113 539.499872  L 491.465614 537.258719  L 501.71704 534.893761  L 511.720903 532.40788  L 521.465015 529.804103  L 530.937503 527.085603  L 540.126826 524.255693  L 549.02179 521.31782  L 557.611557 518.275563  L 565.885661 515.132629  L 573.834022 511.892847  L 581.446956 508.560165  L 588.715188 505.138642  L 595.629863 501.632448  L 601 498.705869  M 601 372.576869  L 595.629863 369.65029  L 588.715188 366.144096  L 581.446956 362.722573  L 573.834022 359.389891  L 565.885661 356.150109  L 557.611557 353.007175  L 549.02179 349.964918  L 540.126826 347.027045  L 530.937503 344.197135  L 521.465015 341.478635  L 511.720903 338.874858  L 501.71704 336.388977  L 491.465614 334.024019  L 480.979113 331.782866  L 470.270315 329.668249  L 459.352267 327.682743  L 448.23827 325.828769  L 436.941865 324.108584  L 425.476815 322.524285  L 413.857088 321.077801  L 402.096842 319.770896  L 390.210404 318.605161  L 378.212256 317.582017  L 366.117016 316.702709  L 353.93942 315.96831  L 341.694305 315.379715  L 329.396589 314.937639  L 310.884178 314.550381  L 292.337879 314.495025  L 273.808527 314.771722  L 255.346909 315.379715  L 243.101794 315.96831  L 230.924198 316.702709  L 218.828958 317.582017  L 206.83081 318.605161  L 194.944372 319.770896  L 183.184126 321.077801  L 171.564399 322.524285  L 160.099349 324.108584  L 148.802944 325.828769  L 137.688947 327.682743  L 126.770898 329.668249  L 116.0621 331.782866  L 105.5756 334.024019  L 95.324173 336.388977  L 85.32031 338.874858  L 75.576199 341.478635  L 66.103711 344.197135  L 56.914387 347.027045  L 48.019424 349.964918  L 39.429657 353.007175  L 31.155553 356.150109  L 23.207192 359.389891  L 15.594257 362.722573  L 8.326025 366.144096  L 1.411351 369.65029  L -1 370.944858  M -1 500.33788  L 4.823957 503.395864  L 11.91649 506.860251  L 19.358207 510.237868  L 27.14004 513.5246  L 35.252508 516.716444  L 43.685728 519.80951  L 52.429425 522.800031  L 61.472946 525.684362  L 70.805273 528.45899  L 80.415036 531.120533  L 90.290527 533.66575  L 100.419715 536.091539  L 110.790258 538.394946  L 121.389521 540.573163  L 121.389521 540.573163  " style="fill: none; stroke-dasharray: 12,12; stroke-dashoffset: 0; stroke: #000000; stroke-opacity: 0.3; stroke-width: 2" />
   </g>
   <g id="arc_3">
    <path d="M 145.120587 360.066194  L 159.236304 362.687508  L 173.733789 365.052558  L 188.573306 367.154864  L 203.714181 368.988661  L 219.114914 370.548925  L 234.733292 371.831377  L 250.526507 372.832504  L 266.45127 373.549561  L 282.463933 373.980583  L 298.520607 374.124389  L 314.57728 373.980583  L 330.589944 373.549561  L 346.514707 372.832504  L 362.307922 371.831377  L 377.9263 370.548925  L 393.327033 368.988661  L 408.467908 367.154864  L 423.307425 365.052558  L 437.80491 362.687508  L 451.920627 360.066194  L 465.615884 357.195802  L 474.49388 355.147688  L 483.15748 352.994852  L 491.596128 350.739915  L 499.799543 348.385625  L 507.757731 345.934851  L 515.460995 343.390578  L 522.899951 340.755906  L 530.065536 338.034046  L 536.949019 335.228312  L 543.542013 332.342125  L 549.836486 329.378999  L 555.82477 326.342546  L 561.499569 323.236464  L 566.853968 320.064538  L 571.881444 316.830633  L 576.575872 313.538687  L 580.931532 310.192713  L 584.943119 306.796787  L 588.605743 303.355046  L 591.914944 299.871683  L 594.866689 296.350942  L 597.457381 292.797113  L 599.683866 289.214525  L 601 286.718221  M 601 251.666969  L 599.683866 249.170665  L 597.457381 245.588078  L 594.866689 242.034249  L 591.914944 238.513508  L 588.605743 235.030145  L 584.943119 231.588404  L 580.931532 228.192477  L 576.575872 224.846503  L 571.881444 221.554558  L 566.853968 218.320652  L 561.499569 215.148726  L 555.82477 212.042644  L 549.836486 209.006191  L 543.542013 206.043065  L 536.949019 203.156878  L 530.065536 200.351145  L 522.899951 197.629284  L 515.460995 194.994612  L 507.757731 192.45034  L 499.799543 189.999565  L 491.596128 187.645276  L 483.15748 185.390339  L 474.49388 183.237502  L 465.615884 181.189388  L 451.920627 178.318996  L 437.80491 175.697683  L 423.307425 173.332632  L 408.467908 171.230327  L 393.327033 169.396529  L 377.9263 167.836266  L 362.307922 166.553813  L 346.514707 165.552686  L 330.589944 164.835629  L 314.57728 164.404607  L 298.520607 164.260802  L 282.463933 164.404607  L 266.45127 164.835629  L 250.526507 165.552686  L 234.733292 166.553813  L 219.114914 167.836266  L 203.714181 169.396529  L 188.573306 171.230327  L 173.733789 173.332632  L 159.236304 175.697683  L 145.120587 178.318996  L 131.425329 181.189388  L 122.547334 183.237502  L 113.883734 185.390339  L 105.445086 187.645276  L 97.241671 189.999565  L 89.283483 192.45034  L 81.580218 194.994612  L 74.141262 197.629284  L 66.975678 200.351145  L 60.092195 203.156878  L 53.499201 206.043065  L 47.204727 209.006191  L 41.216443 212.042644  L 35.541645 215.148726  L 30.187246 218.320652  L 25.15977 221.554558  L 20.465342 224.846503  L 16.109681 228.192477  L 12.098095 231.588404  L 8.435471 235.030145  L 5.12627 238.513508  L 2.174525 242.034249  L -0.416168 245.588078  L -1 246.488787  M -1 291.896403  L 0.83384 294.577894  L 3.605481 298.115717  L 6.73643 301.618303  L 10.222874 305.081382  L 14.060564 308.500737  L 18.244824 311.872201  L 22.770558 315.191666  L 27.63225 318.455088  L 32.823979 321.658492  L 38.339417 324.797974  L 44.171847 327.869709  L 50.314161 330.869956  L 56.758877 333.795058  L 63.498141 336.641452  L 70.523745 339.40567  L 77.827128 342.084344  L 85.399391 344.674211  L 93.23131 347.172115  L 101.313343 349.575012  L 109.635642 351.879977  L 118.188068 354.084199  L 126.960202 356.184995  L 135.941356 358.179803  L 145.120587 360.066194  L 145.120587 360.066194  " style="fill: none; stroke-dasharray: 12,12; stroke-dashoffset: 0; stroke: #000000; stroke-opacity: 0.3; stroke-width: 2" />
   </g>
   <g id="arcmeasure_1" marker-end="url(#Arrow1Mend-k:k)">
    <path d="M 206.83081 552.677577  L 206.844775 546.849889  L 206.886665 540.988325  L 206.956468 535.094672  L 207.054162 529.170724  L 207.179717 523.218286  L 207.333096 517.239171  L 207.514252 511.235201  L 207.723129 505.208205  L 207.959664 499.160017  L 208.223784 493.092482  L 208.51541 487.007446  L 208.834452 480.906763  L 209.180814 474.792292  L 209.554389 468.665896  L 209.955064 462.52944  L 210.382717 456.384793  L 210.837218 450.233828  L 211.318428 444.078418  L 211.826201 437.920438  L 212.360381 431.761763  L 212.920807 425.60427  L 213.507308 419.449835  L 214.119704 413.300332  L 214.75781 407.157634  L 215.42143 401.023613  L 216.110363 394.900136  L 216.8244 388.78907  L 217.087184 386.696432  " style="fill: none; stroke: #000000; stroke-width: 3" />
   </g>
   <g id="arcmeasure_2" marker-end="url(#Arrow1Mend-k:k)">
    <path d="M 121.389521 540.573163  L 126.770898 541.61449  L 132.204592 542.623536  L 137.688947 543.599995  L 143.222293 544.543569  L 148.802944 545.453969  L 154.429201 546.33092  L 160.099349 547.174154  L 165.811662 547.983414  L 171.564399 548.758453  L 177.355808 549.499036  L 183.184126 550.204937  L 189.047576 550.87594  L 190.639366 551.037206  " style="fill: none; stroke: #000000; stroke-width: 3" />
   </g>
   <g id="vector_1" marker-end="url(#Arrow1Mend-k:k)">
    <path d="M 298.520607 435.641369  L 100.443201 552.981685  " style="fill: none; stroke: #000000; stroke-width: 5" />
   </g>
   <g id="vector_2" marker-end="url(#Arrow1Mend-k:k)">
    <path d="M 298.520607 435.641369  L 601 495.37059  " style="fill: none; stroke: #000000; stroke-width: 5" />
   </g>
   <g id="vector_3" marker-end="url(#Arrow1Mend-k:k)">
    <path d="M 298.520607 435.641369  L 298.520607 46.643311  " style="fill: none; stroke: #000000; stroke-width: 5" />
   </g>
   <g id="vector_4" marker-end="url(#Arrow1Mend-r:r)">
    <path d="M 219.114914 370.548925  L 131.744436 422.306869  " style="fill: none; stroke: #ff0000; stroke-width: 5" />
   </g>
   <g id="vector_5" marker-end="url(#Arrow1Mend-r:r)">
    <path d="M 219.114914 370.548925  L 534.78779 315.719267  " style="fill: none; stroke: #ff0000; stroke-width: 5" />
   </g>
   <g id="point_1" marker-start="url(#Point1M-k:k:w)">
    <path d="M 298.520607 435.641369  L 298.520607 435.641369  " style="fill: none; stroke: #000000; stroke-width: 3" />
   </g>
   <g id="point_2" marker-start="url(#Point1M-k:k:w)">
    <path d="M 219.114914 370.548925  L 219.114914 370.548925  " style="fill: none; stroke: #000000; stroke-width: 3" />
   </g>
   <g id="point_3" marker-start="url(#Point1M-k:k:w)">
    <path d="M 298.520607 102.743821  L 298.520607 102.743821  " style="fill: none; stroke: #000000; stroke-width: 3" />
   </g>
  </g>
 </g>
 <defs>
  </defs>
</svg>