<?xml version="1.0" encoding="UTF-8"?>
<svg width="450pt" height="450pt" version="1.1" viewBox="0 0 450 450" xmlns="http://www.w3.org/2000/svg" xmlns:xlink="http://www.w3.org/1999/xlink">
<defs>
<g id="k">
<path d="m20.328-8.8438c0-5.5156-3.5781-9.2969-9.3594-9.2969-5.7969 0-9.3594 3.8125-9.3594 9.2969s3.6406 9.1562 9.3594 9.1562 9.3594-3.6719 9.3594-9.1562zm-3.6562-0.35938c0 2.5781-0.29688 4.7344-1.5938 6.5312-0.64062 0.875-2.0781 2-4.1094 2-1.6875 0-3.3281-0.8125-4.3125-2.2969-1.25-1.8906-1.375-4.3438-1.375-6.2344 0-1.5938 0.078125-3.7656 1.1406-5.5312 1.1406-1.8281 3.0156-2.4844 4.5469-2.4844 2.1094 0 3.6719 1.125 4.4219 2.2969 0.96875 1.5 1.2812 3.125 1.2812 5.7188z"/>
</g>
<g id="j">
<path d="m21.656 0v-1.125h-0.70312c-1.4062 0-1.5-0.125-1.7656-0.48438l-7-9.3594 6.1875-5.25c0.34375-0.29688 0.57812-0.5 2.8906-0.5v-1.125l-2.7812 0.0625c-0.78125 0-2.8125 0-3.4531-0.0625v1.125c0.5625 0 1.1875 0.03125 1.875 0.28125v0.03125l-9.7344 8.2969v-8.6094h2.7656v-1.125c-0.76562 0.0625-3.5469 0.0625-4.4844 0.0625-0.92188 0-3.7188 0-4.4688-0.0625v1.125h2.7656v15.594h-2.7656v1.125c0.75-0.046875 3.5469-0.046875 4.4688-0.046875 0.9375 0 3.7188 0 4.4844 0.046875v-1.125h-2.7656v-5.5625l2.6875-2.2812 5.4219 7.25c0.0625 0.078125 0.15625 0.20312 0.15625 0.3125 0 0.28125-1.2656 0.28125-1.8438 0.28125v1.125c0.84375-0.046875 3.25-0.046875 4.25-0.046875 0.76562 0 3.2188 0 3.8125 0.046875z"/>
</g>
<g id="b">
<path d="m14.797-10.422v-1.125c-0.9375 0.0625-0.98438 0.0625-2.0625 0.0625l-2.2344-0.0625v1.125c0.70312 0 1.2812 0.125 1.2812 0.3125 0 0 0 0.046875-0.14062 0.3125l-3.0312 6.6719-3.3594-7.2969h1.4375v-1.125c-0.60938 0.0625-2.4219 0.0625-3.125 0.0625-0.75 0-2.2656 0-2.9375-0.0625v1.125h1.6406l4.5781 9.9219c0.23438 0.5 0.28125 0.625 0.875 0.625 0.42188 0 0.625-0.046875 0.85938-0.5625l4.2969-9.3906c0.17188-0.39062 0.28125-0.59375 1.9219-0.59375z"/>
</g>
<g id="i">
<path d="m12.484-3.7188c0-0.125-0.10938-0.23438-0.26562-0.23438-0.23438 0-0.26562 0.125-0.34375 0.34375-0.6875 2.2812-2.2031 3.3438-3.375 3.3438-0.90625 0-1.4062-0.67188-1.4062-1.7344 0-0.57812 0.10938-0.98438 0.53125-2.7031l0.90625-3.5312c0.39062-1.5625 1.2656-2.7188 2.4688-2.7188 0 0 0.78125 0 1.3281 0.34375-0.84375 0.15625-1.1406 0.78125-1.1406 1.2812 0 0.625 0.48438 0.82812 0.84375 0.82812 0.78125 0 1.3281-0.67188 1.3281-1.375 0-1.0938-1.25-1.5938-2.3281-1.5938-1.5938 0-2.4844 1.5625-2.7188 2.0625-0.59375-1.9531-2.2031-2.0625-2.6719-2.0625-2.6562 0-4.0469 3.4062-4.0469 3.9844 0 0.09375 0.09375 0.23438 0.28125 0.23438 0.20312 0 0.25-0.15625 0.3125-0.26562 0.875-2.8906 2.625-3.4375 3.375-3.4375 1.1719 0 1.4062 1.0938 1.4062 1.7188 0 0.57812-0.15625 1.1719-0.46875 2.4219l-0.89062 3.5625c-0.39062 1.5625-1.1406 2.9844-2.5156 2.9844-0.125 0-0.78125 0-1.3281-0.32812 0.9375-0.1875 1.1406-0.96875 1.1406-1.2812 0-0.51562-0.39062-0.82812-0.875-0.82812-0.625 0-1.2969 0.54688-1.2969 1.375 0 1.0938 1.2188 1.5938 2.3281 1.5938 1.25 0 2.1406-1 2.6875-2.0625 0.40625 1.5312 1.7188 2.0625 2.6719 2.0625 2.6562 0 4.0625-3.4062 4.0625-3.9844z"/>
</g>
<g id="h">
<path d="m11.078-3.6406c0-0.10938-0.03125-0.26562-0.28125-0.26562-0.21875 0-0.23438 0.10938-0.3125 0.375-0.57812 1.5312-2.1094 2.1562-3.125 2.1562-0.54688 0-1.0625-0.1875-1.6094-0.42188-1.0469-0.40625-1.3281-0.40625-1.6719-0.40625-0.25 0-0.54688 0-0.78125 0.09375 1.125-1.2656 2.0312-2.0781 3.3281-3.25 1.5625-1.3438 2.2344-2 2.6094-2.3906 1.8125-1.7969 2.7188-3.2969 2.7188-3.5156 0-0.20312-0.25-0.20312-0.25-0.20312-0.1875 0-0.23438 0.10938-0.35938 0.28125-0.65625 1.125-1.2812 1.6719-1.9531 1.6719-0.54688 0-0.84375-0.23438-1.3281-0.85938-0.54688-0.65625-0.98438-1.0938-1.75-1.0938-1.8906 0-3.0312 2.375-3.0312 2.9219 0 0.078125 0.015625 0.23438 0.25 0.23438 0.21875 0 0.23438-0.10938 0.3125-0.29688 0.45312-1.0312 1.6875-1.2188 2.1875-1.2188 0.54688 0 1.0625 0.1875 1.6094 0.42188 0.98438 0.40625 1.4062 0.40625 1.6719 0.40625 0.17188 0 0.28125 0 0.40625-0.015625-0.85938 1-2.25 2.25-3.4219 3.3281-1.6719 1.4531-2.1094 1.9219-2.625 2.4062-1.5938 1.625-2.5469 3.1562-2.5469 3.3281 0 0.15625 0.125 0.21875 0.28125 0.21875s0.1875-0.03125 0.35938-0.34375c0.42188-0.65625 1.25-1.6094 2.2188-1.6094 0.54688 0 0.79688 0.17188 1.3125 0.82812 0.5 0.57812 0.9375 1.125 1.7812 1.125 2.5469 0 4-3.3125 4-3.9062z"/>
</g>
<g id="g">
<path d="m13.344-4.8594c0.15625-0.57812 0.20312-1.1406 0.20312-1.6875 0-1.0156-0.23438-1.9844-0.75-2.7656-0.3125-0.46875-0.6875-0.875-1.1562-1.1719 0.29688-0.15625 0.57812-0.32812 0.84375-0.54688 1.0312-0.76562 1.7969-1.8438 2.0781-2.9844 0.078125-0.3125 0.125-0.64062 0.125-0.95312 0-0.78125-0.25-1.5156-0.71875-2.0938-0.6875-0.82812-1.75-1.2656-2.9688-1.2656-3.0625 0-5.3594 3.5625-6.2188 7.0938l-4.0312 16.016c0 0.1875 0.10938 0.26562 0.21875 0.26562h0.15625c0.09375 0 0.17188-0.0625 0.20312-0.15625l1.8125-7.3125c0.375 1.5938 1.5469 2.6875 3.3281 2.6875 1.4688 0 3-0.5 4.3281-1.4844 1.2344-0.9375 2.2031-2.2656 2.5469-3.6406zm-1.625-0.10938c-0.28125 1.2188-0.875 2.4531-1.8906 3.3594-0.96875 0.875-2.1875 1.375-3.3594 1.375-1.8438 0-2.875-1.4531-2.875-3.2969 0-0.42188 0.046875-0.85938 0.15625-1.3281l1.5781-6.2969c0.8125-3.2812 2.8125-6.6875 5.6719-6.6875 0.875 0 1.6094 0.39062 2.0312 1.0781 0.23438 0.39062 0.32812 0.85938 0.32812 1.3438 0 0.42188-0.078125 0.85938-0.17188 1.2969-0.26562 1-0.70312 1.9844-1.5469 2.7344-0.20312 0.1875-0.45312 0.35938-0.6875 0.51562-0.53125-0.20312-1.0938-0.3125-1.7188-0.3125-0.89062 0-1.9531 0-2.1094 0.625 0 0.078125-0.03125 0.1875-0.03125 0.1875 0 0.57812 1.0156 0.57812 1.875 0.57812 0.625 0 1.2812-0.10938 1.9062-0.34375 0.35938 0.28125 0.64062 0.65625 0.82812 1.0625 0.25 0.54688 0.35938 1.1719 0.35938 1.8281 0 0.71875-0.125 1.5-0.34375 2.2812zm-1.5312-5.5312c-0.39062 0.125-0.79688 0.20312-1.1875 0.20312-0.54688 0-1.3594 0-1.2969-0.15625 0.046875-0.23438 0.875-0.23438 1.5-0.23438 0.35938 0 0.67188 0.046875 0.98438 0.1875z"/>
</g>
<g id="f">
<path d="m14.516-6.8438c0-2.625-1.9844-4.5-4.875-4.6719l1.5469-6.2969c0-0.23438-0.1875-0.23438-0.26562-0.23438-0.23438 0-0.26562 0.0625-0.35938 0.5l-1.4062 5.5938c-0.078125 0.32812-0.14062 0.39062-0.14062 0.39062-0.015625 0.046875-0.25 0.078125-0.25 0.078125-4.2656 0.35938-7.5469 3.8594-7.5469 7.1094 0 2.8125 2.1562 4.5312 4.8594 4.6875l-0.59375 2.4375c-0.35938 1.3906-0.57812 2.2344-0.57812 2.3438 0 0 0 0.20312 0.26562 0.20312 0.078125 0 0.1875 0 0.23438-0.09375 0.046875-0.0625 0.20312-0.67188 0.3125-1.0156l0.96875-3.875c4.4375-0.23438 7.8281-3.875 7.8281-7.1562zm-1.5938-0.54688c0 2.9375-2.0469 6.8438-6.1094 7.1562l2.6719-10.766c1.7188 0.10938 3.4375 1.0625 3.4375 3.6094zm-4-3.5781-2.7031 10.766c-1.2812-0.078125-3.4062-0.76562-3.4062-3.625 0-3.2656 2.3594-6.9062 6.1094-7.1406z"/>
</g>
<g id="a">
<path d="m11.953-7.3594v-0.46875c-0.35938 0.015625-0.71875 0.03125-1.0781 0.03125s-1.1406 0-1.4531-0.03125v0.46875c0.57812 0.046875 0.875 0.375 0.875 0.82812 0 0.125-0.03125 0.28125-0.0625 0.42188l-1.7188 4.9375-1.8594-5.3594c-0.03125-0.125-0.078125-0.28125-0.078125-0.34375 0-0.48438 0.60938-0.48438 0.90625-0.48438v-0.46875c-0.42188 0.03125-1.1875 0.03125-1.625 0.03125-0.45312 0-0.92188 0-1.3438-0.03125v0.46875c1 0 1 0.046875 1.375 1.1875l-1.6719 4.875-1.7969-5.25c-0.09375-0.25-0.09375-0.28125-0.09375-0.32812 0-0.48438 0.625-0.48438 0.90625-0.48438v-0.46875c-0.4375 0.03125-1.2031 0.03125-1.6562 0.03125-0.39062 0-1.0156 0-1.3906-0.03125v0.46875c0.79688 0 1 0.0625 1.2031 0.65625l2.2344 6.5625c0.0625 0.23438 0.125 0.28125 0.26562 0.28125 0.125 0 0.20312-0.03125 0.29688-0.29688l1.875-5.5 1.8906 5.5c0.09375 0.26562 0.17188 0.29688 0.29688 0.29688 0.14062 0 0.20312-0.046875 0.26562-0.28125l2.0781-6.0781c0.35938-1.0781 1.0938-1.1094 1.3594-1.1406z"/>
</g>
<g id="e">
<path d="m8.6406 0v-0.46875c-0.84375 0-1.0469-0.17188-1.5938-0.96875l-2.2969-3.375c-0.015625-0.03125-0.10938-0.14062-0.10938-0.1875l1.4531-1.375c1.0469-0.875 1.7031-0.95312 2.1719-0.98438v-0.46875c-0.10938 0-0.17188 0.015625-0.17188 0.015625l-0.89062 0.015625c-0.5 0-1.2812 0-1.7812-0.03125v0.46875c0.25 0.03125 0.4375 0.17188 0.4375 0.42188 0 0.35938-0.375 0.71875-0.375 0.71875l-2.75 2.5v-8.9219l-2.1719 0.20312v0.48438c1.0781 0 1.2344 0.10938 1.2344 0.98438v9.7188c0 0.6875-0.0625 0.78125-1.2344 0.78125v0.46875c0.4375-0.03125 1.2344-0.03125 1.6875-0.03125 0.46875 0 1.2656 0 1.7031 0.03125v-0.46875c-1.1719 0-1.2344-0.078125-1.2344-0.78125v-2.0156l1.25-1.1406 1.8438 2.7344c0.21875 0.32812 0.39062 0.57812 0.39062 0.8125 0 0.32812-0.32812 0.39062-0.54688 0.39062v0.46875c0.4375-0.03125 1.2188-0.03125 1.6719-0.03125z"/>
</g>
<clipPath id="s">
<path d="m0 0h450v450h-450z"/>
</clipPath>
<clipPath id="r">
<rect width="450" height="450"/>
</clipPath>
<g id="d" clip-path="url(#r)">
<g clip-path="url(#s)">
<rect x="-99" y="-99" width="648" height="648" fill="#fff"/>
<rect x="-99" y="-99" width="648" height="648" fill="#fff"/>
</g>
<path transform="matrix(1.0001 0 0 1.0001 0 -.027)" d="m223.89 326.73-59.555-48.821" fill="none" stroke="#000" stroke-linejoin="round" stroke-width="1.5"/>
<path transform="matrix(1.0001 0 0 1.0001 0 -.027)" d="m223.89 326.73-68.769 87.78" fill="none" stroke="#000" stroke-linejoin="round" stroke-width="1.5"/>
</g>
<clipPath id="q">
<path d="m0 235h450v184h-450z"/>
</clipPath>
<clipPath id="p">
<path d="m0 122h450v160h-450z"/>
</clipPath>
<clipPath id="o">
<path d="m222 324h228v50h-228z"/>
</clipPath>
<clipPath id="n">
<path d="m443 362h7v16h-7z"/>
</clipPath>
<clipPath id="m">
<path d="m431 351h19v39h-19z"/>
</clipPath>
<clipPath id="l">
<rect width="450" height="450"/>
</clipPath>
<g id="c" clip-path="url(#l)">
<path transform="matrix(1.0001 0 0 1.0001 0 -.027)" d="m91.041 405.43 0.082026-8.7612 0.24217-8.8471 0.40622-8.9174 0.56247-8.9838 0.72652-9.0385 0.88276-9.0776 1.0429-9.1127 1.2031-9.1284 1.3554-9.1362 1.5116-9.1362 1.6601-9.1166 1.8085-9.0971 1.9647-9.0581 2.1053-9.0151 2.246-8.9526 2.3905-8.8862 2.5233-8.8042 2.66-8.7143 2.7889-8.6128 2.9178-8.4995 3.0428-8.3823 3.1639-8.2456 3.2771-8.105 3.3904-7.9526 3.4998-7.7886 3.6053-7.6206 3.7029-7.4371 3.7966-7.2496 3.8904-7.0543 3.9724-6.8433 4.0584-6.6246 4.1287-6.4059 4.2029-6.1715 4.2732-5.9332 4.3279-5.6872 4.3865-5.4333 4.4333-5.1755 4.4763-4.9099 4.5193-4.6364 4.5505-4.3591 4.5818-4.0779 4.6013-3.7888 4.6208-3.4959 4.6286-3.199 4.6403-2.8983 4.6325-2.5936 4.6325-2.2889 4.6208-1.9764 4.6013-1.664 4.5818-1.3515 4.5505-1.0312 4.5193-0.71871 4.4763-0.39451 4.4333-0.082027 4.3865 0.24217 4.3279 0.55856 4.2693 0.87495 4.2029 1.1952 4.1287 1.5077 4.0584 1.8241 3.9763 2.1327 3.8904 2.4413 3.7966 2.7498 3.7029 3.0506 3.6053 3.3475 3.4998 3.6443 3.3904 3.9373 3.2771 4.2224 3.1639 4.4997 3.0389 4.7732 2.9217 5.0427 2.7889 5.3083 2.66 5.5622 2.5233 5.8122 2.3905 6.0543 2.246 6.2926 2.1053 6.5152 1.9608 6.7379 1.8124 6.9488 1.6601 7.1558 1.5116 7.3433 1.3554 7.5308 1.1991 7.7066 1.0429 7.8745 0.88666 8.0269 0.72261 8.1792 0.57028 8.3159 0.39841 8.4448 0.24217 8.5581 0.082026 8.6635" fill="none" stroke="#000" stroke-dasharray="9 9" stroke-linejoin="round" stroke-opacity=".3" stroke-width="1.5"/>
<g clip-path="url(#q)">
<path transform="matrix(1.0001 0 0 1.0001 0 -.027)" d="m91.041 405.43 8.1089 1.539 8.269 1.4374 8.4018 1.3437 8.5386 1.2382 8.6557 1.1366 8.769 1.0312 8.8706 0.92963 8.9565 0.82026 9.0346 0.7109 9.1088 0.60934 9.1596 0.49606 9.2026 0.38279 9.2377 0.28123 13.898 0.20702 13.913-0.03906 13.882-0.29295 9.2221-0.33201 9.183-0.44529 9.1323-0.54684 9.0737-0.66012 8.9956-0.76558 8.9213-0.87885 8.8198-0.98041 8.7143-1.082 8.5971-1.1913 8.4721-1.289 8.3354-1.3905 8.187-1.4882 8.0308-1.5858 7.8667-1.6796 7.6909-1.7733 7.4996-1.8671 7.3082-1.953 7.105-2.0389 6.8902-2.121 6.6715-2.203 6.441-2.2811 6.2106-2.3592 5.9606-2.4295 5.7106-2.4959 5.4489-2.5663 5.1872-2.6327 4.0271-2.1913m0-94.6-4.0271-2.1952-5.1872-2.6287-5.4489-2.5663-5.7106-2.4998-5.9606-2.4295-6.2106-2.3592-6.441-2.2811-6.6715-2.203-6.8902-2.121-7.105-2.0389-7.3082-1.953-7.4996-1.8632-7.6909-1.7733-7.8667-1.6835-8.0308-1.5858-8.187-1.4882-8.3354-1.3905-8.4721-1.289-8.5971-1.1874-8.7143-1.0859-8.8198-0.98041-8.9213-0.87495-8.9956-0.76558-9.0737-0.66012-9.1323-0.55075-9.183-0.44138-9.2221-0.33201-13.882-0.28904-13.913-0.042966-13.898 0.20702-13.843 0.457-9.183 0.44138-9.1362 0.55075-9.0737 0.66012-8.9956 0.76558-8.9174 0.87495-8.8198 0.98041-8.7143 1.0859-8.5971 1.1874-8.4721 1.289-8.3354 1.3905-8.1909 1.4882-8.0308 1.5858-7.8628 1.6835-7.6909 1.7733-7.5035 1.8632-7.3042 1.953-7.105 2.0389-6.8902 2.121-6.6715 2.203-6.4488 2.2811-6.2028 2.3592-5.9606 2.4295-5.7106 2.4998-5.4489 2.5663-5.1872 2.6287-1.8085 0.96869m0 97.049 4.3669 2.2928 5.32 2.5975 5.5817 2.535 5.8356 2.4647 6.0856 2.3944 6.3277 2.3163 6.5543 2.246 6.7848 2.16 6.9996 2.0819 7.2066 1.996 7.4058 1.91 7.5972 1.8202 7.7769 1.7265 7.9487 1.6327" fill="none" stroke="#000" stroke-dasharray="9 9" stroke-linejoin="round" stroke-opacity=".3" stroke-width="1.5"/>
</g>
<g clip-path="url(#p)">
<path transform="matrix(1.0001 0 0 1.0001 0 -.027)" d="m108.84 270.05 10.585 1.9647 10.874 1.7733 11.128 1.578 11.355 1.3749 11.554 1.1679 11.714 0.96479 11.843 0.74996 11.945 0.53903 12.007 0.32029 12.046 0.10937 12.042-0.10937 12.007-0.32029 11.945-0.53903 11.843-0.74996 11.714-0.96479 11.554-1.1679 11.355-1.3749 11.128-1.578 10.874-1.7733 10.585-1.9647 10.269-2.1522 6.6598-1.539 6.4996-1.6132 6.3277-1.6913 6.1559-1.7655 5.9645-1.8397 5.7809-1.9061 5.5778-1.9764 5.3747-2.0389 5.1598-2.1053 4.945-2.1639 4.7224-2.2225 4.488-2.2772 4.2576-2.3319 4.0193-2.3788 3.7693-2.4256 3.5232-2.4686 3.2654-2.5077 3.0076-2.5467 2.7459-2.5819 2.4842-2.617 2.2108-2.6366 1.9452-2.6639 1.6679-2.6912 0.98822-1.871m0-26.287-0.98822-1.871-1.6679-2.6873-1.9452-2.6639-2.2108-2.6405-2.4842-2.6131-2.7459-2.5819-3.0076-2.5467-3.2654-2.5077-3.5232-2.4725-3.7693-2.4217-4.0193-2.3827-4.2576-2.3319-4.488-2.2733-4.7224-2.2264-4.945-2.1639-5.1598-2.1053-5.3747-2.0389-5.5778-1.9764-5.7809-1.91-5.9645-1.8358-6.1559-1.7655-6.3277-1.6913-6.4996-1.6132-6.6598-1.539-10.269-2.1522-10.585-1.9647-10.874-1.7733-11.128-1.578-11.355-1.3749-11.554-1.1679-11.714-0.96479-11.843-0.74996-11.945-0.53903-12.007-0.32029-12.042-0.10937-12.046 0.10937-12.007 0.32029-11.945 0.53903-11.843 0.74996-11.714 0.96479-11.554 1.1679-11.355 1.3749-11.128 1.578-10.874 1.7733-10.585 1.9647-10.273 2.1522-6.6598 1.539-6.4957 1.6132-6.3317 1.6913-6.152 1.7655-5.9684 1.8358-5.777 1.91-5.5778 1.9764-5.3747 2.0389-5.1598 2.1053-4.945 2.1639-4.7263 2.2264-4.488 2.2733-4.2576 2.3319-4.0154 2.3827-3.7693 2.4217-3.5232 2.4725-3.2654 2.5077-3.0076 2.5467-2.7459 2.5819-2.4842 2.6131-2.2108 2.6405-1.9452 2.6639-0.43747 0.67574m0 34.053 1.3749 2.0155 2.078 2.6522 2.3475 2.6287 2.617 2.5936 2.8787 2.5663 3.1365 2.5272 3.3943 2.492 3.6443 2.4452 3.8943 2.4022 4.1365 2.3553 4.3786 2.3045 4.6013 2.2499 4.8396 2.1952 5.0544 2.1327 5.2692 2.0741 5.4762 2.0077 5.6793 1.9413 5.8707 1.8749 6.0621 1.8007 6.2418 1.7304 6.4137 1.6522 6.5816 1.578 6.7379 1.496 6.8824 1.414" fill="none" stroke="#000" stroke-dasharray="9 9" stroke-linejoin="round" stroke-opacity=".3" stroke-width="1.5"/>
</g>
<path transform="matrix(1.0001 0 0 1.0001 0 -.027)" d="m155.12 414.51 0.007812-4.3747 0.031248-4.3943 0.054684-4.4216 0.070309-4.4411 0.09765-4.4646 0.11328-4.4841 0.13671-4.5036 0.15624-4.5193 0.17577-4.5349 0.19921-4.5505 0.21874-4.5661 0.23827-4.5739 0.2617-4.5857 0.27733-4.5974 0.30076-4.6013 0.32029-4.6091 0.34373-4.613 0.35935-4.6169 0.38279-4.6169 0.40232-4.6208 0.41794-4.6169 0.43747-4.6169 0.46482-4.6091 0.47263-4.6091 0.49997-4.5974 0.51559-4.5935 0.53512-4.5818 0.19921-1.5741" fill="none" stroke="#000" stroke-linejoin="round" stroke-width="2.25"/>
<path transform="matrix(-.12558 1.0001 -1.0001 -.12558 0 -.027)" d="m264.59-196.15 4.4666-4.463-15.633 4.4708 15.629 4.4588z" stroke="#000" stroke-width="1.1906"/>
<path transform="matrix(1.0001 0 0 1.0001 0 -.027)" d="m91.041 405.43 4.0349 0.7812 4.074 0.75777 4.1169 0.73042 4.1521 0.70699 4.1833 0.68355 4.2185 0.66012 4.2537 0.62887 4.2849 0.60934 4.3122 0.582 4.3435 0.55465 4.3708 0.52731 4.3982 0.50388 1.1952 0.12109" fill="none" stroke="#000" stroke-linejoin="round" stroke-width="2.25"/>
<path transform="matrix(-1.0001 -.10132 .10132 -1.0001 0 -.027)" d="m-183.78-394.74 4.4759-4.4766-15.666 4.4776 15.668 4.4787z" stroke="#000" stroke-width="1.1939"/>
<path transform="matrix(1.0001 0 0 1.0001 0 -.027)" d="m223.89 326.73-148.56 88.003" fill="none" stroke="#000" stroke-linejoin="round" stroke-width="3.75"/>
<path transform="matrix(1.0001 -.59243 .59243 1.0001 0 -.027)" d="m-127.26 340.03 6.4523-6.4544-22.585 6.4556 22.584 6.4494z" stroke="#000" stroke-width="1.7207"/>
<g clip-path="url(#o)">
<path transform="matrix(1.0001 0 0 1.0001 0 -.027)" d="m223.89 326.73 226.86 44.798" fill="none" stroke="#000" stroke-linejoin="round" stroke-width="3.75"/>
</g>
<g clip-path="url(#n)">
<path d="m452.1 371.79-8.8125 5.9062 27.207-2.2734-24.301-12.441z"/>
</g>
<g clip-path="url(#m)">
<path transform="matrix(-1.0001 -.19748 .19748 -1.0001 0 -.027)" d="m-505.77-271.92 7.3588-7.359-25.752 7.3585 25.752 7.3556z" fill="none" stroke="#000" stroke-width="1.9621"/>
</g>
<path transform="matrix(1.0001 0 0 1.0001 0 -.027)" d="m223.89 326.73v-291.74" fill="none" stroke="#000" stroke-linejoin="round" stroke-width="3.75"/>
<path transform="matrix(0 1.0001 -1.0001 0 0 -.027)" d="m33.634-223.89 7.4996-7.4996-26.252 7.4996 26.252 7.5035z" stroke="#000" stroke-width="2"/>
<path transform="matrix(1.0001 0 0 1.0001 0 -.027)" d="m164.34 277.91-65.527 38.822" fill="none" stroke="#f00" stroke-linejoin="round" stroke-width="3.75"/>
<path transform="matrix(1.0001 -.59243 .59243 1.0001 0 -.027)" d="m-66.907 277.78 6.4506-6.4515-22.586 6.451 22.587 6.4511z" fill="#f00" stroke="#f00" stroke-width="1.7207"/>
<path transform="matrix(1.0001 0 0 1.0001 0 -.027)" d="m164.34 277.91 236.75-41.119" fill="none" stroke="#f00" stroke-linejoin="round" stroke-width="3.75"/>
<path transform="matrix(-1.0001 .1737 -.1737 -1.0001 0 -.027)" d="m-350.75-297.48 7.3883-7.3881-25.86 7.3866 25.859 7.3898z" fill="#f00" stroke="#f00" stroke-width="1.9705"/>
<path transform="matrix(1.0001 0 0 1.0001 0 -.027)" d="m227.75 326.73c0 2.1757-1.7655 3.9373-3.9373 3.9373-2.1757 0-3.9373-1.7616-3.9373-3.9373 0-2.1717 1.7616-3.9373 3.9373-3.9373 2.1717 0 3.9373 1.7655 3.9373 3.9373z" fill="#fff" stroke="#000" stroke-linejoin="round" stroke-width="2.3625"/>
<path transform="matrix(1.0001 0 0 1.0001 0 -.027)" d="m168.2 277.91c0 2.1757-1.7655 3.9412-3.9373 3.9412-2.1796 0-3.9412-1.7655-3.9412-3.9412 0-2.1717 1.7616-3.9373 3.9412-3.9373 2.1717 0 3.9373 1.7655 3.9373 3.9373z" fill="#fff" stroke="#000" stroke-linejoin="round" stroke-width="2.3625"/>
<path transform="matrix(1.0001 0 0 1.0001 0 -.027)" d="m227.75 77.058c0 2.1717-1.7655 3.9373-3.9373 3.9373-2.1757 0-3.9373-1.7655-3.9373-3.9373 0-2.1757 1.7616-3.9373 3.9373-3.9373 2.1717 0 3.9373 1.7616 3.9373 3.9373z" fill="#fff" stroke="#000" stroke-linejoin="round" stroke-width="2.3625"/>
</g>
</defs>
<use xlink:href="#d"/>
<g>
<use x="216.389" y="353.732" xlink:href="#k"/>
<use x="173.337" y="267.414" xlink:href="#j"/>
<use x="51.828" y="443.106" xlink:href="#i"/>
<use x="66.295" y="447.006" xlink:href="#a"/>
<use x="232.89" y="28.139" xlink:href="#h"/>
<use x="244.716" y="32.039" xlink:href="#a"/>
<use x="406.137" y="260.307" xlink:href="#b"/>
<use x="421.575" y="264.207" xlink:href="#e"/>
<use x="81.306" y="351.096" xlink:href="#b"/>
<use x="96.743" y="354.996" xlink:href="#a"/>
<use x="165.839" y="322.909" xlink:href="#g"/>
<use x="134.122" y="399.511" xlink:href="#f"/>
</g>
<use xlink:href="#c"/>
</svg>
