<svg xmlns="http://www.w3.org/2000/svg" xmlns:dc="http://purl.org/dc/elements/1.1/" xmlns:ns2="http://creativecommons.org/ns#" xmlns:ns4="http://www.w3.org/1999/xlink" xmlns:rdf="http://www.w3.org/1999/02/22-rdf-syntax-ns#" width="600" height="600" viewBox="0 0 600 600" version="1.1">
 <defs>
  <marker id="Point1M-k:k:w" style="overflow:visible" refX="0" refY="0" orient="auto">
  <path style="stroke:#000000;fill:#ffffff;stroke-width:3;opacity:1" d="M -2.5,-1.0 C -2.5,1.7600000 -4.7400000,4.0 -7.5,4.0 C -10.260000,4.0 -12.5,1.7600000 -12.5,-1.0 C -12.5,-3.7600000 -10.260000,-6.0 -7.5,-6.0 C -4.7400000,-6.0 -2.5,-3.7600000 -2.5,-1.0 z" transform="scale(0.35) translate(7.4, 1)" />
  </marker>
  <marker id="Arrow1Mend-k:k" style="overflow:visible" refX="0" refY="0" orient="auto">
  <path style="stroke:#000000;fill:#000000;stroke-width:1pt;opacity:1;stroke-linejoin:miter" d="M 0.0,0.0 L 5.0,-5.0 L -12.5,0.0 L 5.0,5.0 L 0.0,0.0 z" transform="scale(0.4) rotate(180) translate(-0.9,0)" />
  </marker>
  <marker id="Arrow1Mend-r:r" style="overflow:visible" refX="0" refY="0" orient="auto">
  <path style="stroke:#ff0000;fill:#ff0000;stroke-width:1pt;opacity:1;stroke-linejoin:miter" d="M 0.0,0.0 L 5.0,-5.0 L -12.5,0.0 L 5.0,5.0 L 0.0,0.0 z" transform="scale(0.4) rotate(180) translate(-0.9,0)" />
  </marker>
</defs><metadata>
  <rdf:RDF>
   <ns2:Work>
    <dc:type rdf:resource="http://purl.org/dc/dcmitype/StillImage" />
    <dc:date>2024-02-02T22:32:23.794435</dc:date>
    <dc:format>image/svg+xml</dc:format>
    <dc:creator>
     <ns2:Agent>
      <dc:title>Matplotlib v3.7.2, https://matplotlib.org/</dc:title>
     </ns2:Agent>
    </dc:creator>
   </ns2:Work>
  </rdf:RDF>
 </metadata>
 <defs>
  <style type="text/css">*{stroke-linejoin: round; stroke-linecap: butt}</style>
 </defs>
 <g id="figure_1">
  <g id="patch_1">
   <path d="M 0 600  L 600 600  L 600 0  L 0 0  z " style="fill: #ffffff" />
  </g>
  <g id="patch_2">
   <path d="M 0 600  L 600 600  L 600 0  L 0 0  z " style="fill: #ffffff" />
  </g>
  <g id="axes_1">
   <g id="line_1">
    <path d="M 298.520607 435.641369  L 219.114914 370.548925  " style="fill: none; stroke: #000000; stroke-width: 2" />
   </g>
   <g id="polygon_1">
    <defs>
     <path id="mf127a2bc72" d="M 186.896435 -295.673022  L 193.288278 -296.940689  L 199.036062 -297.780167  L 203.313211 -298.294293  L 208.044238 -298.65237  L 212.46611 -298.213848  L 214.085197 -296.591366  L 215.754138 -292.214223  L 218.089174 -284.743563  L 220.750624 -275.304832  L 223.052964 -265.042108  L 225.296813 -253.956371  L 227.120042 -242.771424  L 228.717393 -231.118943  L 230.131904 -219.434705  L 231.212407 -208.120753  L 231.865687 -196.758748  L 232.255262 -186.163793  L 232.093446 -176.234685  L 231.746865 -168.298251  L 231.256174 -163.545999  L 230.117701 -161.444553  L 226.000441 -159.522856  L 221.386368 -158.257771  L 217.167081 -157.296139  L 211.459403 -156.145902  L 205.027808 -155.186248  L 205.027808 -155.186248  L 202.016886 -157.67916  L 198.802227 -163.19968  L 197.458334 -165.983614  L 194.952851 -171.039079  L 194.152307 -177.633866  L 192.857123 -183.018526  L 190.60532 -190.450776  L 189.709438 -198.700123  L 188.987877 -203.6922  L 187.150973 -212.250846  L 186.590108 -219.74886  L 186.067988 -223.711109  L 185.566892 -227.67701  L 184.210194 -235.036796  L 183.80581 -243.844258  L 183.235417 -248.862591  L 182.009361 -257.054589  L 182.286055 -264.926018  L 182.165018 -270.514617  L 181.265521 -277.092216  L 182.38482 -282.777276  L 182.966943 -285.895741  L 184.646912 -292.266416  L 186.896435 -295.673022  L 208.044238 -298.65237  " style="stroke: #000000; stroke-opacity: 0.8" />
    </defs>
    <g>
     <use ns4:href="#mf127a2bc72" x="0" y="600" style="fill-opacity: 0.1; stroke: #000000; stroke-opacity: 0.8" />
    </g>
   </g>
   <g id="text_1">
    <g>
     <text style="font: 20px 'DejaVu Sans', 'Bitstream Vera Sans', 'Computer Modern Sans Serif', 'Lucida Grande', 'Verdana', 'Geneva', 'Lucid', 'Arial', 'Helvetica', 'Avant Garde', sans-serif; text-anchor: start" x="288.520607" y="471.641369" transform="rotate(-0 288.520607 471.641369)">$\vec{O}$</text>
    </g>
   </g>
   <g id="text_2">
    <g>
     <text style="font: 20px 'DejaVu Sans', 'Bitstream Vera Sans', 'Computer Modern Sans Serif', 'Lucida Grande', 'Verdana', 'Geneva', 'Lucid', 'Arial', 'Helvetica', 'Avant Garde', sans-serif; text-anchor: start" x="231.114914" y="356.548925" transform="rotate(-0 231.114914 356.548925)">$\vec{K}$</text>
    </g>
   </g>
   <g id="text_3">
    <g>
     <text style="font: 20px 'DejaVu Sans', 'Bitstream Vera Sans', 'Computer Modern Sans Serif', 'Lucida Grande', 'Verdana', 'Geneva', 'Lucid', 'Arial', 'Helvetica', 'Avant Garde', sans-serif; text-anchor: start" x="69.10675" y="590.806111" transform="rotate(-0 69.10675 590.806111)">$\xw$</text>
    </g>
   </g>
   <g id="text_4">
    <g>
     <text style="font: 20px 'DejaVu Sans', 'Bitstream Vera Sans', 'Computer Modern Sans Serif', 'Lucida Grande', 'Verdana', 'Geneva', 'Lucid', 'Arial', 'Helvetica', 'Avant Garde', sans-serif; text-anchor: start" x="666.020656" y="541.369368" transform="rotate(-0 666.020656 541.369368)">$\yw$</text>
    </g>
   </g>
   <g id="text_5">
    <g>
     <text style="font: 20px 'DejaVu Sans', 'Bitstream Vera Sans', 'Computer Modern Sans Serif', 'Lucida Grande', 'Verdana', 'Geneva', 'Lucid', 'Arial', 'Helvetica', 'Avant Garde', sans-serif; text-anchor: start" x="310.520607" y="37.519434" transform="rotate(-0 310.520607 37.519434)">$\zw$</text>
    </g>
   </g>
   <g id="text_6">
    <g>
     <text style="font: 20px 'DejaVu Sans', 'Bitstream Vera Sans', 'Computer Modern Sans Serif', 'Lucida Grande', 'Verdana', 'Geneva', 'Lucid', 'Arial', 'Helvetica', 'Avant Garde', sans-serif; text-anchor: start" x="541.511552" y="347.07758" transform="rotate(-0 541.511552 347.07758)">$\vvk$</text>
    </g>
   </g>
   <g id="text_7">
    <g>
     <text style="font: 20px 'DejaVu Sans', 'Bitstream Vera Sans', 'Computer Modern Sans Serif', 'Lucida Grande', 'Verdana', 'Geneva', 'Lucid', 'Arial', 'Helvetica', 'Avant Garde', sans-serif; text-anchor: start" x="108.407985" y="468.131295" transform="rotate(-0 108.407985 468.131295)">$\vvw$</text>
    </g>
   </g>
   <g id="polygon_2">
    <defs>
     <path id="mf98bfb2441" d="M 193.288278 -296.940689  L 186.896435 -295.673022  L 193.288278 -296.940689  L 199.036062 -297.780167  L 203.313108 -298.294275  L 208.044238 -298.65237  L 210.649492 -298.394007  L 212.46611 -298.213848  L 214.085197 -296.591366  L 218.035655 -284.477828  L 211.879784 -284.284377  L 181.179346 -277.033117  L 211.879784 -284.284377  L 218.035655 -284.477828  L 220.750624 -275.304832  L 222.948282 -264.333153  L 217.703657 -264.509479  L 181.878962 -256.806109  L 217.703657 -264.509479  L 222.948282 -264.333153  L 225.297034 -253.954656  L 227.048094 -242.629356  L 184.168013 -235.018471  L 227.048094 -242.629356  L 228.717393 -231.118943  L 228.717393 -231.118943  L 230.027244 -219.546097  L 187.106015 -212.254034  L 230.027244 -219.546097  L 231.212185 -208.122468  L 231.58661 -197.401047  L 226.616482 -195.450507  L 190.417907 -190.644056  L 226.616482 -195.450507  L 231.58661 -197.401047  L 232.255262 -186.163793  L 231.975185 -176.470583  L 226.040414 -174.563994  L 194.855536 -171.066308  L 226.040414 -174.563994  L 231.975185 -176.470583  L 231.746865 -168.298251  L 231.256174 -163.545999  L 230.117701 -161.444553  L 228.426226 -160.655068  L 201.988157 -157.67324  L 227.804069 -160.589768  L 226.000441 -159.522856  L 221.386368 -158.257771  L 217.167081 -157.296139  L 211.459403 -156.145902  L 205.027808 -155.186248  L 211.459403 -156.145902  " style="stroke: #000000; stroke-width: 5" />
    </defs>
    <g>
     <use ns4:href="#mf98bfb2441" x="0" y="600" style="fill-opacity: 0; stroke: #000000; stroke-width: 5" />
    </g>
   </g>
   <g id="vector_1" marker-end="url(#Arrow1Mend-k:k)">
    <path d="M 298.520607 435.641369  L 100.443201 552.981685  " style="fill: none; stroke: #000000; stroke-width: 5" />
   </g>
   <g id="vector_2" marker-end="url(#Arrow1Mend-k:k)">
    <path d="M 298.520607 435.641369  L 601 495.37059  " style="fill: none; stroke: #000000; stroke-width: 5" />
   </g>
   <g id="vector_3" marker-end="url(#Arrow1Mend-k:k)">
    <path d="M 298.520607 435.641369  L 298.520607 46.643311  " style="fill: none; stroke: #000000; stroke-width: 5" />
   </g>
   <g id="vector_4" marker-end="url(#Arrow1Mend-r:r)">
    <path d="M 219.114914 370.548925  L 131.744436 422.306869  " style="fill: none; stroke: #ff0000; stroke-width: 5" />
   </g>
   <g id="vector_5" marker-end="url(#Arrow1Mend-r:r)">
    <path d="M 219.114914 370.548925  L 534.78779 315.719267  " style="fill: none; stroke: #ff0000; stroke-width: 5" />
   </g>
   <g id="point_1" marker-start="url(#Point1M-k:k:w)">
    <path d="M 298.520607 435.641369  L 298.520607 435.641369  " style="fill: none; stroke: #000000; stroke-width: 3" />
   </g>
   <g id="point_2" marker-start="url(#Point1M-k:k:w)">
    <path d="M 219.114914 370.548925  L 219.114914 370.548925  " style="fill: none; stroke: #000000; stroke-width: 3" />
   </g>
  </g>
 </g>
 <defs>
  </defs>
</svg>