<?xml version="1.0" encoding="UTF-8"?>
<svg width="735pt" height="525pt" version="1.1" viewBox="0 0 735 525" xmlns="http://www.w3.org/2000/svg" xmlns:xlink="http://www.w3.org/1999/xlink">
<defs>
<g id="j">
<path d="m20.328-8.8438c0-5.5156-3.5781-9.2969-9.3594-9.2969-5.7969 0-9.3594 3.8125-9.3594 9.2969s3.6406 9.1562 9.3594 9.1562 9.3594-3.6719 9.3594-9.1562zm-3.6562-0.35938c0 2.5781-0.29688 4.7344-1.5938 6.5312-0.64062 0.875-2.0781 2-4.1094 2-1.6875 0-3.3281-0.8125-4.3125-2.2969-1.25-1.8906-1.375-4.3438-1.375-6.2344 0-1.5938 0.078125-3.7656 1.1406-5.5312 1.1406-1.8281 3.0156-2.4844 4.5469-2.4844 2.1094 0 3.6719 1.125 4.4219 2.2969 0.96875 1.5 1.2812 3.125 1.2812 5.7188z"/>
</g>
<g id="i">
<path d="m21.656 0v-1.125h-0.70312c-1.4062 0-1.5-0.125-1.7656-0.48438l-7-9.3594 6.1875-5.25c0.34375-0.29688 0.57812-0.5 2.8906-0.5v-1.125l-2.7812 0.0625c-0.78125 0-2.8125 0-3.4531-0.0625v1.125c0.5625 0 1.1875 0.03125 1.875 0.28125v0.03125l-9.7344 8.2969v-8.6094h2.7656v-1.125c-0.76562 0.0625-3.5469 0.0625-4.4844 0.0625-0.92188 0-3.7188 0-4.4688-0.0625v1.125h2.7656v15.594h-2.7656v1.125c0.75-0.046875 3.5469-0.046875 4.4688-0.046875 0.9375 0 3.7188 0 4.4844 0.046875v-1.125h-2.7656v-5.5625l2.6875-2.2812 5.4219 7.25c0.0625 0.078125 0.15625 0.20312 0.15625 0.3125 0 0.28125-1.2656 0.28125-1.8438 0.28125v1.125c0.84375-0.046875 3.25-0.046875 4.25-0.046875 0.76562 0 3.2188 0 3.8125 0.046875z"/>
</g>
<g id="b">
<path d="m14.797-10.422v-1.125c-0.9375 0.0625-0.98438 0.0625-2.0625 0.0625l-2.2344-0.0625v1.125c0.70312 0 1.2812 0.125 1.2812 0.3125 0 0 0 0.046875-0.14062 0.3125l-3.0312 6.6719-3.3594-7.2969h1.4375v-1.125c-0.60938 0.0625-2.4219 0.0625-3.125 0.0625-0.75 0-2.2656 0-2.9375-0.0625v1.125h1.6406l4.5781 9.9219c0.23438 0.5 0.28125 0.625 0.875 0.625 0.42188 0 0.625-0.046875 0.85938-0.5625l4.2969-9.3906c0.17188-0.39062 0.28125-0.59375 1.9219-0.59375z"/>
</g>
<g id="h">
<path d="m12.484-3.7188c0-0.125-0.10938-0.23438-0.26562-0.23438-0.23438 0-0.26562 0.125-0.34375 0.34375-0.6875 2.2812-2.2031 3.3438-3.375 3.3438-0.90625 0-1.4062-0.67188-1.4062-1.7344 0-0.57812 0.10938-0.98438 0.53125-2.7031l0.90625-3.5312c0.39062-1.5625 1.2656-2.7188 2.4688-2.7188 0 0 0.78125 0 1.3281 0.34375-0.84375 0.15625-1.1406 0.78125-1.1406 1.2812 0 0.625 0.48438 0.82812 0.84375 0.82812 0.78125 0 1.3281-0.67188 1.3281-1.375 0-1.0938-1.25-1.5938-2.3281-1.5938-1.5938 0-2.4844 1.5625-2.7188 2.0625-0.59375-1.9531-2.2031-2.0625-2.6719-2.0625-2.6562 0-4.0469 3.4062-4.0469 3.9844 0 0.09375 0.09375 0.23438 0.28125 0.23438 0.20312 0 0.25-0.15625 0.3125-0.26562 0.875-2.8906 2.625-3.4375 3.375-3.4375 1.1719 0 1.4062 1.0938 1.4062 1.7188 0 0.57812-0.15625 1.1719-0.46875 2.4219l-0.89062 3.5625c-0.39062 1.5625-1.1406 2.9844-2.5156 2.9844-0.125 0-0.78125 0-1.3281-0.32812 0.9375-0.1875 1.1406-0.96875 1.1406-1.2812 0-0.51562-0.39062-0.82812-0.875-0.82812-0.625 0-1.2969 0.54688-1.2969 1.375 0 1.0938 1.2188 1.5938 2.3281 1.5938 1.25 0 2.1406-1 2.6875-2.0625 0.40625 1.5312 1.7188 2.0625 2.6719 2.0625 2.6562 0 4.0625-3.4062 4.0625-3.9844z"/>
</g>
<g id="g">
<path d="m12.344-10.109c0.03125-0.14062 0.078125-0.29688 0.078125-0.45312 0-0.39062-0.3125-0.64062-0.70312-0.64062-0.23438 0-0.76562 0.09375-0.98438 0.875l-1.9219 7.6562c-0.125 0.46875-0.125 0.51562-0.34375 0.79688-0.51562 0.73438-1.375 1.6094-2.625 1.6094-1.4531 0-1.5781-1.4219-1.5781-2.125 0-1.4844 0.70312-3.4844 1.4062-5.3594 0.28125-0.75 0.4375-1.1094 0.4375-1.6406 0-1.0938-0.78125-2.0781-2.0469-2.0781-2.4062 0-3.3594 3.7656-3.3594 3.9844 0 0.09375 0.10938 0.23438 0.28125 0.23438 0.23438 0 0.26562-0.10938 0.375-0.46875 0.60938-2.1875 1.6094-3.2344 2.625-3.2344 0.23438 0 0.67188 0 0.67188 0.85938 0 0.6875-0.28125 1.4375-0.67188 2.4219-1.2812 3.4062-1.2812 4.2656-1.2812 4.8906 0 2.4688 1.7656 3.0469 3.0625 3.0469 0.76562 0 1.7031-0.23438 2.6094-1.2031l0.015625 0.03125c-0.375 1.5312-0.64062 2.5469-1.5469 3.8125-0.70312 1-1.7188 1.875-3 1.875-0.3125 0-1.5625-0.046875-1.9531-1.25 0.078125 0.03125 0.26562 0.03125 0.26562 0.03125 0.78125 0 1.2969-0.67188 1.2969-1.2812 0-0.59375-0.48438-0.79688-0.875-0.79688-0.42188 0-1.3281 0.3125-1.3281 1.5781 0 1.3281 1.1094 2.2344 2.5938 2.2344 2.6094 0 5.2344-2.3906 5.9531-5.2656z"/>
</g>
<g id="f">
<path d="m11.078-3.6406c0-0.10938-0.03125-0.26562-0.28125-0.26562-0.21875 0-0.23438 0.10938-0.3125 0.375-0.57812 1.5312-2.1094 2.1562-3.125 2.1562-0.54688 0-1.0625-0.1875-1.6094-0.42188-1.0469-0.40625-1.3281-0.40625-1.6719-0.40625-0.25 0-0.54688 0-0.78125 0.09375 1.125-1.2656 2.0312-2.0781 3.3281-3.25 1.5625-1.3438 2.2344-2 2.6094-2.3906 1.8125-1.7969 2.7188-3.2969 2.7188-3.5156 0-0.20312-0.25-0.20312-0.25-0.20312-0.1875 0-0.23438 0.10938-0.35938 0.28125-0.65625 1.125-1.2812 1.6719-1.9531 1.6719-0.54688 0-0.84375-0.23438-1.3281-0.85938-0.54688-0.65625-0.98438-1.0938-1.75-1.0938-1.8906 0-3.0312 2.375-3.0312 2.9219 0 0.078125 0.015625 0.23438 0.25 0.23438 0.21875 0 0.23438-0.10938 0.3125-0.29688 0.45312-1.0312 1.6875-1.2188 2.1875-1.2188 0.54688 0 1.0625 0.1875 1.6094 0.42188 0.98438 0.40625 1.4062 0.40625 1.6719 0.40625 0.17188 0 0.28125 0 0.40625-0.015625-0.85938 1-2.25 2.25-3.4219 3.3281-1.6719 1.4531-2.1094 1.9219-2.625 2.4062-1.5938 1.625-2.5469 3.1562-2.5469 3.3281 0 0.15625 0.125 0.21875 0.28125 0.21875s0.1875-0.03125 0.35938-0.34375c0.42188-0.65625 1.25-1.6094 2.2188-1.6094 0.54688 0 0.79688 0.17188 1.3125 0.82812 0.5 0.57812 0.9375 1.125 1.7812 1.125 2.5469 0 4-3.3125 4-3.9062z"/>
</g>
<g id="a">
<path d="m11.953-7.3594v-0.46875c-0.35938 0.015625-0.71875 0.03125-1.0781 0.03125s-1.1406 0-1.4531-0.03125v0.46875c0.57812 0.046875 0.875 0.375 0.875 0.82812 0 0.125-0.03125 0.28125-0.0625 0.42188l-1.7188 4.9375-1.8594-5.3594c-0.03125-0.125-0.078125-0.28125-0.078125-0.34375 0-0.48438 0.60938-0.48438 0.90625-0.48438v-0.46875c-0.42188 0.03125-1.1875 0.03125-1.625 0.03125-0.45312 0-0.92188 0-1.3438-0.03125v0.46875c1 0 1 0.046875 1.375 1.1875l-1.6719 4.875-1.7969-5.25c-0.09375-0.25-0.09375-0.28125-0.09375-0.32812 0-0.48438 0.625-0.48438 0.90625-0.48438v-0.46875c-0.4375 0.03125-1.2031 0.03125-1.6562 0.03125-0.39062 0-1.0156 0-1.3906-0.03125v0.46875c0.79688 0 1 0.0625 1.2031 0.65625l2.2344 6.5625c0.0625 0.23438 0.125 0.28125 0.26562 0.28125 0.125 0 0.20312-0.03125 0.29688-0.29688l1.875-5.5 1.8906 5.5c0.09375 0.26562 0.17188 0.29688 0.29688 0.29688 0.14062 0 0.20312-0.046875 0.26562-0.28125l2.0781-6.0781c0.35938-1.0781 1.0938-1.1094 1.3594-1.1406z"/>
</g>
<g id="e">
<path d="m8.6406 0v-0.46875c-0.84375 0-1.0469-0.17188-1.5938-0.96875l-2.2969-3.375c-0.015625-0.03125-0.10938-0.14062-0.10938-0.1875l1.4531-1.375c1.0469-0.875 1.7031-0.95312 2.1719-0.98438v-0.46875c-0.10938 0-0.17188 0.015625-0.17188 0.015625l-0.89062 0.015625c-0.5 0-1.2812 0-1.7812-0.03125v0.46875c0.25 0.03125 0.4375 0.17188 0.4375 0.42188 0 0.35938-0.375 0.71875-0.375 0.71875l-2.75 2.5v-8.9219l-2.1719 0.20312v0.48438c1.0781 0 1.2344 0.10938 1.2344 0.98438v9.7188c0 0.6875-0.0625 0.78125-1.2344 0.78125v0.46875c0.4375-0.03125 1.2344-0.03125 1.6875-0.03125 0.46875 0 1.2656 0 1.7031 0.03125v-0.46875c-1.1719 0-1.2344-0.078125-1.2344-0.78125v-2.0156l1.25-1.1406 1.8438 2.7344c0.21875 0.32812 0.39062 0.57812 0.39062 0.8125 0 0.32812-0.32812 0.39062-0.54688 0.39062v0.46875c0.4375-0.03125 1.2188-0.03125 1.6719-0.03125z"/>
</g>
<clipPath id="n">
<path d="m0 0h735v525h-735z"/>
</clipPath>
<clipPath id="m">
<path d="m105 0h525v525h-525z"/>
</clipPath>
<clipPath id="l">
<rect width="735" height="525"/>
</clipPath>
<g id="d" clip-path="url(#l)">
<g clip-path="url(#n)">
<path d="m0-0.0039062h735v525h-735z" fill="#fff"/>
</g>
<g clip-path="url(#m)">
<path d="m105-0.0039062h525v525h-525z" fill="#fff"/>
</g>
<path transform="translate(0 -.005)" d="m366.21 381.19-69.48-56.957" fill="none" stroke="#000" stroke-linejoin="round" stroke-width="1.5"/>
<path transform="translate(0 -.005)" d="m268.54 266.29 5.5938-1.1094 5.0273-0.73438 3.7422-0.44922 4.1406-0.3125 3.8672 0.38281 1.418 1.4219 1.4609 3.8281 2.043 6.5352 2.3281 8.2617 2.0156 8.9805 1.9609 9.6992 1.5977 9.7852 1.3984 10.195 1.2383 10.227 0.94531 9.8984 0.57031 9.9414 0.33984 9.2695-0.14062 8.6875-0.30469 6.9453-0.42969 4.1602-0.99609 1.8359-3.6016 1.6836-4.0352 1.1055-3.6953 0.84375-4.9922 1.0039-5.6289 0.83984-2.6328-2.1797-2.8125-4.832-1.1758-2.4336-2.1953-4.4258-0.69922-5.7695-1.1328-4.7109-1.9688-6.5039-0.78516-7.2188-0.63281-4.3672-1.6055-7.4883-0.49219-6.5625-0.45703-3.4648-0.4375-3.4727-1.1875-6.4375-0.35156-7.707-0.5-4.3906-1.0742-7.168 0.24219-6.8867-0.10547-4.8906-0.78906-5.7578 0.98047-4.9727 0.51172-2.7305 1.4688-5.5742 1.9688-2.9805 18.504-2.6055" fill-opacity=".1" stroke="#000" stroke-linejoin="round" stroke-opacity=".8" stroke-width=".75"/>
</g>
<clipPath id="k">
<rect width="735" height="525"/>
</clipPath>
<g id="c" clip-path="url(#k)">
<path transform="translate(0 -.005)" d="m274.13 265.18-5.5938 1.1094 5.5938-1.1094 5.0273-0.73438 3.7422-0.44922 4.1406-0.3125 2.2773 0.22656 1.5898 0.15625 1.418 1.4219 3.457 10.598-5.3867 0.16797-26.863 6.3477 26.863-6.3477 5.3867-0.16797 2.375 8.0273 1.9219 9.5977-4.5859-0.15234-31.348 6.7383 31.348-6.7383 4.5859 0.15234 2.0586 9.082 1.5312 9.9102-37.52 6.6602 37.52-6.6602 1.4609 10.07 1.1445 10.129-37.555 6.3789 37.555-6.3789 1.0391 9.9961 0.32422 9.3789-4.3477 1.707-31.672 4.207 31.672-4.207 4.3477-1.707 0.58594 9.832-0.24609 8.4844-5.1914 1.668-27.285 3.0586 27.285-3.0586 5.1914-1.668-0.19922 7.1484-0.42969 4.1602-0.99609 1.8359-1.4805 0.69141-23.133 2.6094 22.59-2.5508-1.5781 0.93359-4.0352 1.1055-3.6953 0.84375-4.9922 1.0039-5.6289 0.83984 5.6289-0.83984" fill="none" stroke="#000" stroke-linejoin="round" stroke-width="3.75"/>
<path transform="translate(0 -.005)" d="m366.21 381.19-173.32 102.67" fill="none" stroke="#000" stroke-linejoin="round" stroke-width="3.75"/>
<path transform="matrix(1 -.5924 .5924 1 0 -.005)" d="m-70.557 442.75 6.451-6.4519-22.583 6.4502 22.584 6.4527z" stroke="#000" stroke-width="1.7207"/>
<path transform="translate(0 -.005)" d="m366.21 381.19 312.28 61.664" fill="none" stroke="#000" stroke-linejoin="round" stroke-width="3.75"/>
<path transform="matrix(-1 -.19746 .19746 -1 0 -.005)" d="m-738.51-297.28 7.36-7.3557-25.755 7.3552 25.754 7.3598z" stroke="#000" stroke-width="1.9621"/>
<path transform="translate(0 -.005)" d="m366.21 381.19v-340.38" fill="none" stroke="#000" stroke-linejoin="round" stroke-width="3.75"/>
<path transform="matrix(0 1 -1 0 0 -.005)" d="m39.466-366.21 7.5-7.5-26.25 7.5 26.25 7.5z" stroke="#000" stroke-width="2"/>
<path transform="translate(0 -.005)" d="m296.73 324.23-76.449 45.289" fill="none" stroke="#f00" stroke-linejoin="round" stroke-width="3.75"/>
<path transform="matrix(1 -.5924 .5924 1 0 -.005)" d="m-0.14548 370.12 6.4556-6.4531-22.584 6.4531 22.584 6.4527z" fill="#f00" stroke="#f00" stroke-width="1.7207"/>
<path transform="translate(0 -.005)" d="m296.73 324.23 276.21-47.977" fill="none" stroke="#f00" stroke-linejoin="round" stroke-width="3.75"/>
<path transform="matrix(-1 .17369 -.17369 -1 0 -.005)" d="m-510.91-364.77 7.3888-7.3885-25.861 7.3871 25.861 7.3902z" fill="#f00" stroke="#f00" stroke-width="1.9705"/>
<path transform="translate(0 -.005)" d="m370.06 381.19c0 2.1719-1.7617 3.9375-3.9375 3.9375-2.1719 0-3.9375-1.7656-3.9375-3.9375 0-2.1758 1.7656-3.9375 3.9375-3.9375 2.1758 0 3.9375 1.7617 3.9375 3.9375z" fill="#fff" stroke="#000" stroke-linejoin="round" stroke-width="2.3625"/>
<path transform="translate(0 -.005)" d="m300.59 324.23c0 2.1719-1.7656 3.9375-3.9375 3.9375-2.1758 0-3.9375-1.7656-3.9375-3.9375s1.7617-3.9375 3.9375-3.9375c2.1719 0 3.9375 1.7656 3.9375 3.9375z" fill="#fff" stroke="#000" stroke-linejoin="round" stroke-width="2.3625"/>
</g>
</defs>
<use xlink:href="#d"/>
<g>
<use x="358.707" y="408.177" xlink:href="#j"/>
<use x="305.727" y="313.723" xlink:href="#i"/>
<use x="166.467" y="513.948" xlink:href="#h"/>
<use x="180.934" y="517.848" xlink:href="#a"/>
<use x="689.769" y="469.94" xlink:href="#g"/>
<use x="702.182" y="473.84" xlink:href="#a"/>
<use x="375.205" y="30.572" xlink:href="#f"/>
<use x="387.031" y="34.472" xlink:href="#a"/>
<use x="581.318" y="299.188" xlink:href="#b"/>
<use x="596.756" y="303.088" xlink:href="#e"/>
<use x="199.855" y="405.609" xlink:href="#b"/>
<use x="215.293" y="409.509" xlink:href="#a"/>
</g>
<use xlink:href="#c"/>
</svg>
