<?xml version="1.0" encoding="UTF-8"?>
<svg width="450pt" height="450pt" version="1.1" viewBox="0 0 450 450" xmlns="http://www.w3.org/2000/svg" xmlns:xlink="http://www.w3.org/1999/xlink">
<defs>
<clipPath id="f">
<path d="m0 0h450v450h-450z"/>
</clipPath>
<clipPath id="e">
<path d="m37 0h3v220h-3z"/>
</clipPath>
<clipPath id="d">
<path d="m37 0h3v220h-3z"/>
</clipPath>
<clipPath id="c">
<path d="m423 0h2v220h-2z"/>
</clipPath>
<clipPath id="b">
<rect width="450" height="450"/>
</clipPath>
<g id="a" clip-path="url(#b)">
<g clip-path="url(#f)">
<rect x="-99" y="-99" width="648" height="648" fill="#fff"/>
<rect x="-99" y="-99" width="648" height="648" fill="#fff"/>
</g>
<g clip-path="url(#e)">
<path transform="matrix(1.0001 0 0 1.0001 0 -.027)" d="m38.388 218.92v-219.67" fill="none" stroke="#00f" stroke-linecap="square" stroke-linejoin="round" stroke-width="1.125"/>
</g>
<path transform="matrix(1.0001 0 0 1.0001 0 -.027)" d="m38.388 218.92h385.38" fill="none" stroke="#00f" stroke-linecap="square" stroke-linejoin="round" stroke-width="1.125"/>
<g clip-path="url(#d)">
<path transform="matrix(1.0001 0 0 1.0001 0 -.027)" d="m38.388 218.92v-219.67" fill="none" stroke="#00f" stroke-linecap="square" stroke-linejoin="round" stroke-width="1.125"/>
</g>
<path transform="matrix(1.0001 0 0 1.0001 0 -.027)" d="m38.388 218.92h385.38" fill="none" stroke="#00f" stroke-linecap="square" stroke-linejoin="round" stroke-width="1.125"/>
<g clip-path="url(#c)">
<path transform="matrix(1.0001 0 0 1.0001 0 -.027)" d="m423.77 218.92v-219.67" fill="none" stroke="#00f" stroke-linecap="square" stroke-linejoin="round" stroke-width="1.125"/>
<path transform="matrix(1.0001 0 0 1.0001 0 -.027)" d="m423.77 218.92v-219.67" fill="none" stroke="#00f" stroke-linecap="square" stroke-linejoin="round" stroke-width="1.125"/>
</g>
<path transform="matrix(1.0001 0 0 1.0001 0 -.027)" d="m40.412 211.45 1.0937-1.6249 1.2929-1.4648 1.4804-1.2851 1.6327-1.0859 1.7616-0.85932 1.8593-0.62887 1.9257-0.37498 1.9569-0.1289 1.9569 0.1328 1.9257 0.38279 1.8593 0.63278 1.7577 0.86714 1.6288 1.0859 1.4726 1.2929 1.2929 1.4687 1.0859 1.6249 0.86714 1.7577 0.62887 1.8475 0.37888 1.9179 0.12499 1.9491-0.1328 1.9491-0.3867 1.9179-0.63278 1.8515-0.87104 1.7538-1.0898 1.621-1.2968 1.4687-1.4804 1.2851-1.6327 1.082-1.7577 0.86323-1.8632 0.62496-1.9257 0.37888-1.9569 0.12499-1.9569-0.1328-1.9257-0.38279-1.8554-0.62887-1.7577-0.86714-1.6327-1.0898-1.4726-1.289-1.289-1.4726-1.0898-1.6249-0.86714-1.7538-0.62496-1.8554-0.38279-1.9139-0.12499-1.953 0.1328-1.9491 0.3867-1.9139 0.63277-1.8515 0.062497-0.17577 0.68746-1.7968 0.68746-1.7929 0.34764-0.9062 0.9101-1.6874 0.91401-1.6913 0.42576-0.78902 1.4101-1.4179 1.3632-1.3671 1.3671-1.371 1.3593-1.371 0.75777-0.75386 9.2455-5.9528 12.202-4.8708 14.819-3.1756 14.757-1.3827 5.7848-0.54294 14.808 0.69136 14.808 0.68746 13.819 0.64449 3.1092 0.14452 29.412 3.7576 14.702 1.8827 1.746 0.22264 29.404 3.7576 14.706 1.8827 13.866 1.7694 14.702 1.8827 29.408 3.7576 13.862 1.7733 14.706 1.8788 14.702 1.8788 14.702 1.8827 13.866 1.7694 14.706 1.8827 14.702 1.8827 9.2416 1.1757 12.148 1.5546-12.148-1.5546-9.2416-1.1757-29.408-3.7654-13.866-1.7694-14.702-1.8827-29.408-3.7576-13.862-1.7733-29.408-3.7576-14.702-1.8827-13.866-1.7694-14.706-1.8827-29.404-3.7576-1.746-0.22264-14.702-1.8827-29.412-3.7576-3.1092-0.14452-13.819-0.64449-14.808-0.68746-14.808-0.69136-5.7848 0.54294-14.757 1.3827-14.819 3.1756-12.202 4.8708-9.2455 5.9528-0.75777 0.75386-1.3593 1.371-2.7303 2.7381-1.4101 1.4179-0.42576 0.78902-0.91401 1.6913-0.9101 1.6874-0.34764 0.9062-0.68746 1.7929-0.68746 1.7968-0.062497 0.17577" fill-opacity=".5" stroke="#000" stroke-linejoin="round" stroke-opacity=".8" stroke-width="1.5"/>
</g>
</defs>
<use xlink:href="#a"/>
</svg>
