<?xml version="1.0" encoding="UTF-8"?>
<svg width="735pt" height="525pt" version="1.1" viewBox="0 0 735 525" xmlns="http://www.w3.org/2000/svg" xmlns:xlink="http://www.w3.org/1999/xlink">
<defs>
<g id="l">
<path d="m20.328-8.8438c0-5.5156-3.5781-9.2969-9.3594-9.2969-5.7969 0-9.3594 3.8125-9.3594 9.2969s3.6406 9.1562 9.3594 9.1562 9.3594-3.6719 9.3594-9.1562zm-3.6562-0.35938c0 2.5781-0.29688 4.7344-1.5938 6.5312-0.64062 0.875-2.0781 2-4.1094 2-1.6875 0-3.3281-0.8125-4.3125-2.2969-1.25-1.8906-1.375-4.3438-1.375-6.2344 0-1.5938 0.078125-3.7656 1.1406-5.5312 1.1406-1.8281 3.0156-2.4844 4.5469-2.4844 2.1094 0 3.6719 1.125 4.4219 2.2969 0.96875 1.5 1.2812 3.125 1.2812 5.7188z"/>
</g>
<g id="k">
<path d="m21.656 0v-1.125h-0.70312c-1.4062 0-1.5-0.125-1.7656-0.48438l-7-9.3594 6.1875-5.25c0.34375-0.29688 0.57812-0.5 2.8906-0.5v-1.125l-2.7812 0.0625c-0.78125 0-2.8125 0-3.4531-0.0625v1.125c0.5625 0 1.1875 0.03125 1.875 0.28125v0.03125l-9.7344 8.2969v-8.6094h2.7656v-1.125c-0.76562 0.0625-3.5469 0.0625-4.4844 0.0625-0.92188 0-3.7188 0-4.4688-0.0625v1.125h2.7656v15.594h-2.7656v1.125c0.75-0.046875 3.5469-0.046875 4.4688-0.046875 0.9375 0 3.7188 0 4.4844 0.046875v-1.125h-2.7656v-5.5625l2.6875-2.2812 5.4219 7.25c0.0625 0.078125 0.15625 0.20312 0.15625 0.3125 0 0.28125-1.2656 0.28125-1.8438 0.28125v1.125c0.84375-0.046875 3.25-0.046875 4.25-0.046875 0.76562 0 3.2188 0 3.8125 0.046875z"/>
</g>
<g id="b">
<path d="m14.797-10.422v-1.125c-0.9375 0.0625-0.98438 0.0625-2.0625 0.0625l-2.2344-0.0625v1.125c0.70312 0 1.2812 0.125 1.2812 0.3125 0 0 0 0.046875-0.14062 0.3125l-3.0312 6.6719-3.3594-7.2969h1.4375v-1.125c-0.60938 0.0625-2.4219 0.0625-3.125 0.0625-0.75 0-2.2656 0-2.9375-0.0625v1.125h1.6406l4.5781 9.9219c0.23438 0.5 0.28125 0.625 0.875 0.625 0.42188 0 0.625-0.046875 0.85938-0.5625l4.2969-9.3906c0.17188-0.39062 0.28125-0.59375 1.9219-0.59375z"/>
</g>
<g id="j">
<path d="m12.484-3.7188c0-0.125-0.10938-0.23438-0.26562-0.23438-0.23438 0-0.26562 0.125-0.34375 0.34375-0.6875 2.2812-2.2031 3.3438-3.375 3.3438-0.90625 0-1.4062-0.67188-1.4062-1.7344 0-0.57812 0.10938-0.98438 0.53125-2.7031l0.90625-3.5312c0.39062-1.5625 1.2656-2.7188 2.4688-2.7188 0 0 0.78125 0 1.3281 0.34375-0.84375 0.15625-1.1406 0.78125-1.1406 1.2812 0 0.625 0.48438 0.82812 0.84375 0.82812 0.78125 0 1.3281-0.67188 1.3281-1.375 0-1.0938-1.25-1.5938-2.3281-1.5938-1.5938 0-2.4844 1.5625-2.7188 2.0625-0.59375-1.9531-2.2031-2.0625-2.6719-2.0625-2.6562 0-4.0469 3.4062-4.0469 3.9844 0 0.09375 0.09375 0.23438 0.28125 0.23438 0.20312 0 0.25-0.15625 0.3125-0.26562 0.875-2.8906 2.625-3.4375 3.375-3.4375 1.1719 0 1.4062 1.0938 1.4062 1.7188 0 0.57812-0.15625 1.1719-0.46875 2.4219l-0.89062 3.5625c-0.39062 1.5625-1.1406 2.9844-2.5156 2.9844-0.125 0-0.78125 0-1.3281-0.32812 0.9375-0.1875 1.1406-0.96875 1.1406-1.2812 0-0.51562-0.39062-0.82812-0.875-0.82812-0.625 0-1.2969 0.54688-1.2969 1.375 0 1.0938 1.2188 1.5938 2.3281 1.5938 1.25 0 2.1406-1 2.6875-2.0625 0.40625 1.5312 1.7188 2.0625 2.6719 2.0625 2.6562 0 4.0625-3.4062 4.0625-3.9844z"/>
</g>
<g id="i">
<path d="m12.344-10.109c0.03125-0.14062 0.078125-0.29688 0.078125-0.45312 0-0.39062-0.3125-0.64062-0.70312-0.64062-0.23438 0-0.76562 0.09375-0.98438 0.875l-1.9219 7.6562c-0.125 0.46875-0.125 0.51562-0.34375 0.79688-0.51562 0.73438-1.375 1.6094-2.625 1.6094-1.4531 0-1.5781-1.4219-1.5781-2.125 0-1.4844 0.70312-3.4844 1.4062-5.3594 0.28125-0.75 0.4375-1.1094 0.4375-1.6406 0-1.0938-0.78125-2.0781-2.0469-2.0781-2.4062 0-3.3594 3.7656-3.3594 3.9844 0 0.09375 0.10938 0.23438 0.28125 0.23438 0.23438 0 0.26562-0.10938 0.375-0.46875 0.60938-2.1875 1.6094-3.2344 2.625-3.2344 0.23438 0 0.67188 0 0.67188 0.85938 0 0.6875-0.28125 1.4375-0.67188 2.4219-1.2812 3.4062-1.2812 4.2656-1.2812 4.8906 0 2.4688 1.7656 3.0469 3.0625 3.0469 0.76562 0 1.7031-0.23438 2.6094-1.2031l0.015625 0.03125c-0.375 1.5312-0.64062 2.5469-1.5469 3.8125-0.70312 1-1.7188 1.875-3 1.875-0.3125 0-1.5625-0.046875-1.9531-1.25 0.078125 0.03125 0.26562 0.03125 0.26562 0.03125 0.78125 0 1.2969-0.67188 1.2969-1.2812 0-0.59375-0.48438-0.79688-0.875-0.79688-0.42188 0-1.3281 0.3125-1.3281 1.5781 0 1.3281 1.1094 2.2344 2.5938 2.2344 2.6094 0 5.2344-2.3906 5.9531-5.2656z"/>
</g>
<g id="h">
<path d="m11.078-3.6406c0-0.10938-0.03125-0.26562-0.28125-0.26562-0.21875 0-0.23438 0.10938-0.3125 0.375-0.57812 1.5312-2.1094 2.1562-3.125 2.1562-0.54688 0-1.0625-0.1875-1.6094-0.42188-1.0469-0.40625-1.3281-0.40625-1.6719-0.40625-0.25 0-0.54688 0-0.78125 0.09375 1.125-1.2656 2.0312-2.0781 3.3281-3.25 1.5625-1.3438 2.2344-2 2.6094-2.3906 1.8125-1.7969 2.7188-3.2969 2.7188-3.5156 0-0.20312-0.25-0.20312-0.25-0.20312-0.1875 0-0.23438 0.10938-0.35938 0.28125-0.65625 1.125-1.2812 1.6719-1.9531 1.6719-0.54688 0-0.84375-0.23438-1.3281-0.85938-0.54688-0.65625-0.98438-1.0938-1.75-1.0938-1.8906 0-3.0312 2.375-3.0312 2.9219 0 0.078125 0.015625 0.23438 0.25 0.23438 0.21875 0 0.23438-0.10938 0.3125-0.29688 0.45312-1.0312 1.6875-1.2188 2.1875-1.2188 0.54688 0 1.0625 0.1875 1.6094 0.42188 0.98438 0.40625 1.4062 0.40625 1.6719 0.40625 0.17188 0 0.28125 0 0.40625-0.015625-0.85938 1-2.25 2.25-3.4219 3.3281-1.6719 1.4531-2.1094 1.9219-2.625 2.4062-1.5938 1.625-2.5469 3.1562-2.5469 3.3281 0 0.15625 0.125 0.21875 0.28125 0.21875s0.1875-0.03125 0.35938-0.34375c0.42188-0.65625 1.25-1.6094 2.2188-1.6094 0.54688 0 0.79688 0.17188 1.3125 0.82812 0.5 0.57812 0.9375 1.125 1.7812 1.125 2.5469 0 4-3.3125 4-3.9062z"/>
</g>
<g id="g">
<path d="m13.344-4.8594c0.15625-0.57812 0.20312-1.1406 0.20312-1.6875 0-1.0156-0.23438-1.9844-0.75-2.7656-0.3125-0.46875-0.6875-0.875-1.1562-1.1719 0.29688-0.15625 0.57812-0.32812 0.84375-0.54688 1.0312-0.76562 1.7969-1.8438 2.0781-2.9844 0.078125-0.3125 0.125-0.64062 0.125-0.95312 0-0.78125-0.25-1.5156-0.71875-2.0938-0.6875-0.82812-1.75-1.2656-2.9688-1.2656-3.0625 0-5.3594 3.5625-6.2188 7.0938l-4.0312 16.016c0 0.1875 0.10938 0.26562 0.21875 0.26562h0.15625c0.09375 0 0.17188-0.0625 0.20312-0.15625l1.8125-7.3125c0.375 1.5938 1.5469 2.6875 3.3281 2.6875 1.4688 0 3-0.5 4.3281-1.4844 1.2344-0.9375 2.2031-2.2656 2.5469-3.6406zm-1.625-0.10938c-0.28125 1.2188-0.875 2.4531-1.8906 3.3594-0.96875 0.875-2.1875 1.375-3.3594 1.375-1.8438 0-2.875-1.4531-2.875-3.2969 0-0.42188 0.046875-0.85938 0.15625-1.3281l1.5781-6.2969c0.8125-3.2812 2.8125-6.6875 5.6719-6.6875 0.875 0 1.6094 0.39062 2.0312 1.0781 0.23438 0.39062 0.32812 0.85938 0.32812 1.3438 0 0.42188-0.078125 0.85938-0.17188 1.2969-0.26562 1-0.70312 1.9844-1.5469 2.7344-0.20312 0.1875-0.45312 0.35938-0.6875 0.51562-0.53125-0.20312-1.0938-0.3125-1.7188-0.3125-0.89062 0-1.9531 0-2.1094 0.625 0 0.078125-0.03125 0.1875-0.03125 0.1875 0 0.57812 1.0156 0.57812 1.875 0.57812 0.625 0 1.2812-0.10938 1.9062-0.34375 0.35938 0.28125 0.64062 0.65625 0.82812 1.0625 0.25 0.54688 0.35938 1.1719 0.35938 1.8281 0 0.71875-0.125 1.5-0.34375 2.2812zm-1.5312-5.5312c-0.39062 0.125-0.79688 0.20312-1.1875 0.20312-0.54688 0-1.3594 0-1.2969-0.15625 0.046875-0.23438 0.875-0.23438 1.5-0.23438 0.35938 0 0.67188 0.046875 0.98438 0.1875z"/>
</g>
<g id="f">
<path d="m14.516-6.8438c0-2.625-1.9844-4.5-4.875-4.6719l1.5469-6.2969c0-0.23438-0.1875-0.23438-0.26562-0.23438-0.23438 0-0.26562 0.0625-0.35938 0.5l-1.4062 5.5938c-0.078125 0.32812-0.14062 0.39062-0.14062 0.39062-0.015625 0.046875-0.25 0.078125-0.25 0.078125-4.2656 0.35938-7.5469 3.8594-7.5469 7.1094 0 2.8125 2.1562 4.5312 4.8594 4.6875l-0.59375 2.4375c-0.35938 1.3906-0.57812 2.2344-0.57812 2.3438 0 0 0 0.20312 0.26562 0.20312 0.078125 0 0.1875 0 0.23438-0.09375 0.046875-0.0625 0.20312-0.67188 0.3125-1.0156l0.96875-3.875c4.4375-0.23438 7.8281-3.875 7.8281-7.1562zm-1.5938-0.54688c0 2.9375-2.0469 6.8438-6.1094 7.1562l2.6719-10.766c1.7188 0.10938 3.4375 1.0625 3.4375 3.6094zm-4-3.5781-2.7031 10.766c-1.2812-0.078125-3.4062-0.76562-3.4062-3.625 0-3.2656 2.3594-6.9062 6.1094-7.1406z"/>
</g>
<g id="a">
<path d="m11.953-7.3594v-0.46875c-0.35938 0.015625-0.71875 0.03125-1.0781 0.03125s-1.1406 0-1.4531-0.03125v0.46875c0.57812 0.046875 0.875 0.375 0.875 0.82812 0 0.125-0.03125 0.28125-0.0625 0.42188l-1.7188 4.9375-1.8594-5.3594c-0.03125-0.125-0.078125-0.28125-0.078125-0.34375 0-0.48438 0.60938-0.48438 0.90625-0.48438v-0.46875c-0.42188 0.03125-1.1875 0.03125-1.625 0.03125-0.45312 0-0.92188 0-1.3438-0.03125v0.46875c1 0 1 0.046875 1.375 1.1875l-1.6719 4.875-1.7969-5.25c-0.09375-0.25-0.09375-0.28125-0.09375-0.32812 0-0.48438 0.625-0.48438 0.90625-0.48438v-0.46875c-0.4375 0.03125-1.2031 0.03125-1.6562 0.03125-0.39062 0-1.0156 0-1.3906-0.03125v0.46875c0.79688 0 1 0.0625 1.2031 0.65625l2.2344 6.5625c0.0625 0.23438 0.125 0.28125 0.26562 0.28125 0.125 0 0.20312-0.03125 0.29688-0.29688l1.875-5.5 1.8906 5.5c0.09375 0.26562 0.17188 0.29688 0.29688 0.29688 0.14062 0 0.20312-0.046875 0.26562-0.28125l2.0781-6.0781c0.35938-1.0781 1.0938-1.1094 1.3594-1.1406z"/>
</g>
<g id="e">
<path d="m8.6406 0v-0.46875c-0.84375 0-1.0469-0.17188-1.5938-0.96875l-2.2969-3.375c-0.015625-0.03125-0.10938-0.14062-0.10938-0.1875l1.4531-1.375c1.0469-0.875 1.7031-0.95312 2.1719-0.98438v-0.46875c-0.10938 0-0.17188 0.015625-0.17188 0.015625l-0.89062 0.015625c-0.5 0-1.2812 0-1.7812-0.03125v0.46875c0.25 0.03125 0.4375 0.17188 0.4375 0.42188 0 0.35938-0.375 0.71875-0.375 0.71875l-2.75 2.5v-8.9219l-2.1719 0.20312v0.48438c1.0781 0 1.2344 0.10938 1.2344 0.98438v9.7188c0 0.6875-0.0625 0.78125-1.2344 0.78125v0.46875c0.4375-0.03125 1.2344-0.03125 1.6875-0.03125 0.46875 0 1.2656 0 1.7031 0.03125v-0.46875c-1.1719 0-1.2344-0.078125-1.2344-0.78125v-2.0156l1.25-1.1406 1.8438 2.7344c0.21875 0.32812 0.39062 0.57812 0.39062 0.8125 0 0.32812-0.32812 0.39062-0.54688 0.39062v0.46875c0.4375-0.03125 1.2188-0.03125 1.6719-0.03125z"/>
</g>
<clipPath id="p">
<path d="m0 0h735v525h-735z"/>
</clipPath>
<clipPath id="o">
<path d="m105 0h525v525h-525z"/>
</clipPath>
<clipPath id="n">
<rect width="735" height="525"/>
</clipPath>
<g id="d" clip-path="url(#n)">
<g clip-path="url(#p)">
<path d="m0-0.0039062h735v525h-735z" fill="#fff"/>
</g>
<g clip-path="url(#o)">
<path d="m105-0.0039062h525v525h-525z" fill="#fff"/>
</g>
<path transform="translate(0 -.005)" d="m366.21 381.19-69.48-56.957" fill="none" stroke="#000" stroke-linejoin="round" stroke-width="1.5"/>
<path transform="translate(0 -.005)" d="m366.21 381.19-80.23 102.41" fill="none" stroke="#000" stroke-linejoin="round" stroke-width="1.5"/>
</g>
<clipPath id="m">
<rect width="735" height="525"/>
</clipPath>
<g id="c" clip-path="url(#m)">
<path transform="translate(0 -.005)" d="m211.21 473 0.09375-10.219 0.28516-10.324 0.47266-10.406 0.65625-10.48 0.84766-10.543 1.0312-10.594 1.2188-10.629 1.3984-10.648 1.582-10.66 1.7617-10.656 1.9375-10.641 2.1172-10.613 2.2852-10.566 2.457-10.516 2.6211-10.445 2.7852-10.367 2.9492-10.273 3.1016-10.164 3.2539-10.051 3.4062-9.918 3.5508-9.7734 3.6875-9.6211 3.8242-9.457 3.957-9.2773 4.082-9.0898 4.207-8.8906 4.3203-8.6758 4.4297-8.457 4.5391-8.2266 4.6367-7.9844 4.7305-7.7305 4.8203-7.4727 4.9023-7.1992 4.9805-6.9258 5.0508-6.6328 5.1172-6.3398 5.1719-6.0391 5.2266-5.7266 5.2695-5.4102 5.3125-5.0859 5.3438-4.7539 5.3672-4.4219 5.3906-4.0781 5.4023-3.7344 5.4102-3.3789 5.4062-3.0273 5.4023-2.668 5.3906-2.3086 2.6875-1.0156 2.6836-0.92578 2.6758-0.83203 2.668-0.74219 2.6562-0.64844 2.6523-0.55859 2.6406-0.46484 2.6289-0.37109 2.6211-0.27734 2.6055-0.18359 2.5938-0.09375h2.582l2.5625 0.09375 2.5508 0.1875 2.5352 0.27734 2.5156 0.37109 2.5 0.46484 2.4805 0.55859 2.4609 0.65234 2.4414 0.74219 2.4219 0.83203 2.3984 0.92578 2.3789 1.0195 2.3516 1.1094 2.332 1.1992 2.3047 1.2891 2.2812 1.3789 2.2578 1.4688 2.2305 1.5625 2.1992 1.6445 2.1758 1.7383 2.1445 1.8242 2.1172 1.9102 4.1445 4.0781 4.0234 4.4219 3.8906 4.7578 3.7578 5.0859 3.6211 5.4141 3.4766 5.7266 3.3281 6.0391 3.1797 6.3438 3.0273 6.6367 2.8672 6.9219 2.7031 7.2031 2.5391 7.4727 2.375 7.7344 2.1992 7.9844 2.0273 8.2266 1.8477 8.457 1.6719 8.6797 1.4922 8.8906 1.3086 9.0898 1.125 9.2773 0.9375 9.457 0.75391 9.6211 0.56641 9.7773 0.37891 9.9219 0.1875 10.047 0.023437 5.0703" fill="none" stroke="#000" stroke-dasharray="9 9" stroke-linejoin="round" stroke-opacity=".3" stroke-width="1.5"/>
<path transform="translate(0 -.005)" d="m211.21 473 9.4648 1.7969 9.6406 1.6797 9.8047 1.5625 9.9609 1.4453 10.102 1.3281 10.23 1.2031 10.344 1.082 10.453 0.95703 10.543 0.83203 10.621 0.70703 10.688 0.57812 10.738 0.45312 10.777 0.32031 10.805 0.19531 10.82 0.066406 10.816-0.066406 10.805-0.19531 10.777-0.32031 10.742-0.45312 10.684-0.57812 10.621-0.70703 10.543-0.83203 10.453-0.95703 10.348-1.082 10.23-1.2031 10.098-1.3281 9.9609-1.4453 9.8047-1.5625 9.6406-1.6797 9.4648-1.7969 9.2734-1.9062 9.0742-2.0117 8.8633-2.125 8.6406-2.2266 8.4102-2.3281 8.1641-2.4297 7.9141-2.5234 7.6523-2.6172 7.3789-2.707 7.0977-2.7891 6.8086-2.8789 6.5117-2.9531 6.207-3.0312 5.8906-3.1055 5.5742-3.1719 5.2461-3.2344 4.9102-3.3008 4.5742-3.3516 4.2266-3.4062 3.8789-3.457 3.5195-3.4961 3.1641-3.5391 2.8008-3.5742 2.4336-3.6055 2.0664-3.6328 0.89063-1.8281 0.80078-1.8281 0.70703-1.8359 0.61328-1.8359 0.51562-1.8438 0.42578-1.8438 0.33203-1.8477 0.23438-1.8477 0.14062-1.8516 0.046875-1.8477-0.046875-1.8516-0.14062-1.8516-0.23438-1.8477-0.33203-1.8477-0.42578-1.8438-0.51562-1.8398-0.61328-1.8398-0.70703-1.8359-0.80078-1.8281-0.89063-1.8242-0.98828-1.8203-2.25-3.6211-2.6172-3.5898-2.9805-3.5586-3.3438-3.5195-3.6992-3.4766-4.0547-3.4297-4.4023-3.3828-4.7422-3.3242-5.0781-3.2695-5.4102-3.2031-5.7344-3.1367-6.0508-3.0703-6.3594-2.9922-6.6602-2.918-6.957-2.832-7.2383-2.75-7.5156-2.6641-7.7852-2.5703-8.0391-2.4766-8.2891-2.3789-8.5273-2.2773-8.75-2.1758-8.9727-2.0703-9.1758-1.9609-9.3672-1.8477-9.5547-1.7383-9.7266-1.6211-9.8828-1.5078-10.031-1.3867-10.168-1.2656-10.289-1.1406-10.402-1.0195-10.496-0.89844-10.586-0.76953-10.656-0.64062-10.711-0.51562-10.762-0.38672-10.793-0.25781-10.812-0.12891h-10.82l-10.812 0.12891-10.797 0.25781-10.758 0.38672-10.715 0.51562-10.656 0.64062-10.582 0.76953-10.5 0.89844-10.398 1.0195-10.293 1.1406-10.168 1.2656-10.031 1.3867-9.8828 1.5078-9.7266 1.6211-9.5508 1.7383-9.3711 1.8477-9.1758 1.9609-8.9688 2.0703-8.7539 2.1758-8.5273 2.2773-8.2891 2.3789-8.0391 2.4766-7.7852 2.5703-7.5156 2.6641-7.2383 2.75-6.957 2.832-6.6602 2.918-6.3594 2.9922-6.0508 3.0703-5.7344 3.1367-5.4102 3.2031-5.0781 3.2695-4.7422 3.3242-4.4023 3.3828-4.0508 3.4297-3.7031 3.4766-3.3438 3.5195-2.9805 3.5586-2.6172 3.5898-2.25 3.6211-0.98828 1.8203-0.89062 1.8242-0.80078 1.8281-0.70703 1.8359-0.60938 1.8398-0.51953 1.8398-0.42578 1.8438-0.32812 1.8477-0.23828 1.8477-0.14062 1.8516-0.046876 1.8516 0.046876 1.8477 0.14062 1.8516 0.23828 1.8477 0.32812 1.8477 0.42578 1.8438 0.51953 1.8438 0.60938 1.8359 0.70703 1.8359 0.80078 1.8281 0.89062 1.8281 0.98828 1.8164 2.25 3.6211 2.6172 3.5898 2.9805 3.5586 3.3438 3.5195 3.7031 3.4766 4.0508 3.4297 4.4023 3.3828 4.7422 3.3242 5.0781 3.2695 5.4102 3.2031 5.7344 3.1406 6.0508 3.0664 6.3594 2.9922 6.6602 2.918 6.957 2.8359 7.2383 2.75 7.5156 2.6602 7.7852 2.5703 8.0391 2.4766 8.2891 2.3789 8.5273 2.2773 8.7539 2.1758 8.9688 2.0703 9.1758 1.9609 4.6602 0.9375" fill="none" stroke="#000" stroke-dasharray="9 9" stroke-linejoin="round" stroke-opacity=".3" stroke-width="1.5"/>
<path transform="translate(0 -.005)" d="m231.98 315.06 8.1953 1.5547 8.3477 1.4531 8.4922 1.3555 8.625 1.25 8.75 1.1484 8.8594 1.043 8.9609 0.9375 9.0508 0.83203 9.1289 0.71875 9.1992 0.61328 9.2539 0.5 9.3008 0.39062 9.3359 0.28125 9.3555 0.16797 9.3711 0.054688 9.3672-0.054688 9.3594-0.16797 9.332-0.28125 9.3008-0.39062 9.2539-0.5 9.1992-0.61328 9.1289-0.71875 9.0508-0.83203 8.9609-0.9375 8.8594-1.043 8.75-1.1484 8.625-1.25 8.4922-1.3555 8.3477-1.4531 8.1953-1.5547 8.0312-1.6523 7.8594-1.7461 7.6758-1.8359 7.4844-1.9297 7.2812-2.0156 7.0703-2.1016 6.8555-2.1875 6.625-2.2656 6.3906-2.3438 6.1484-2.418 5.8945-2.4922 5.6406-2.5586 5.375-2.625 5.1016-2.6875 4.8281-2.7461 4.543-2.8047 4.2539-2.8555 3.957-2.9062 3.6641-2.9492 3.3555-2.9922 3.0508-3.0312 2.7422-3.0625 2.4219-3.0977 2.1094-3.1211 1.7891-3.1445 1.4648-3.168 1.1406-3.1797 0.81641-3.1914 0.49219-3.2031 0.16406-3.2031-0.16406-3.2031-0.49219-3.1992-0.81641-3.1953-1.1406-3.1797-1.4648-3.1641-1.7891-3.1484-2.1094-3.1211-2.4219-3.0977-2.7422-3.0625-3.0508-3.0312-3.3555-2.9922-3.6641-2.9492-3.957-2.9062-4.2539-2.8555-4.543-2.8008-4.8281-2.7461-5.1016-2.6914-5.375-2.625-5.6406-2.5586-5.8945-2.4883-6.1484-2.4219-6.3906-2.3438-6.625-2.2656-6.8555-2.1836-7.0703-2.1055-7.2812-2.0156-7.4844-1.9297-7.6758-1.8359-7.8594-1.7461-8.0312-1.6523-8.1953-1.5508-8.3477-1.457-8.4922-1.3516-8.625-1.2539-8.75-1.1484-8.8594-1.043-8.9609-0.9375-9.0508-0.82812-9.1289-0.72266-9.1992-0.60938-9.2539-0.50391-9.3008-0.39062-9.332-0.27734-9.3594-0.16797-9.3672-0.058594-9.3711 0.058594-9.3555 0.16797-9.3359 0.27734-9.3008 0.39062-9.2539 0.50391-9.1992 0.60938-9.1289 0.72266-9.0508 0.82812-8.9609 0.9375-8.8594 1.043-8.75 1.1484-8.625 1.2539-8.4922 1.3516-8.3477 1.457-8.1953 1.5508-8.0312 1.6523-7.8594 1.7461-7.6758 1.8359-7.4844 1.9297-7.2812 2.0156-7.0703 2.1055-6.8555 2.1836-6.625 2.2656-6.3906 2.3438-6.1445 2.4219-5.8984 2.4883-5.6406 2.5586-5.375 2.625-5.1016 2.6914-4.8242 2.7461-4.543 2.8008-4.2539 2.8555-3.9609 2.9062-3.6602 2.9492-3.3594 2.9922-3.0508 3.0312-2.7383 3.0625-2.4258 3.0977-2.1094 3.1211-1.7891 3.1484-1.4648 3.1641-1.1406 3.1797-0.81641 3.1953-0.49219 3.1992-0.16406 3.2031 0.16406 3.2031 0.49219 3.2031 0.81641 3.1914 1.1406 3.1797 1.4648 3.168 1.7891 3.1445 2.1094 3.1211 2.4258 3.0977 2.7383 3.0625 3.0508 3.0312 3.3594 2.9922 3.6602 2.9492 3.9609 2.9062 4.2539 2.8555 4.543 2.8047 4.8242 2.7461 5.1016 2.6875 5.375 2.625 5.6406 2.5586 5.8984 2.4922 6.1445 2.418 6.3906 2.3438 6.625 2.2656 6.8555 2.1875 7.0703 2.1016 7.2812 2.0156 7.4844 1.9297 7.6758 1.8359 7.8594 1.7461 8.0312 1.6523" fill="none" stroke="#000" stroke-dasharray="9 9" stroke-linejoin="round" stroke-opacity=".3" stroke-width="1.5"/>
<path transform="translate(0 -.005)" d="m285.98 483.59 0.011719-5.1016 0.039063-5.1289 0.058594-5.1562 0.085937-5.1836 0.10938-5.207 0.13672-5.2305 0.15625-5.2539 0.18359-5.2734 0.20703-5.293 0.23047-5.3086 0.25391-5.3242 0.28125-5.3398 0.30469-5.3516 0.32422-5.3594 0.35156-5.3672 0.375-5.3789 0.39844-5.3828 0.41797-5.3828 0.44531-5.3906 0.46875-5.3867 0.48828-5.3906 0.51562-5.3828 0.53516-5.3828 0.55859-5.375 0.57813-5.3672 0.60547-5.3555 0.625-5.3477 0.23047-1.832" fill="none" stroke="#000" stroke-linejoin="round" stroke-width="2.25"/>
<path transform="matrix(-.12558 1 -1 -.12558 0 -.005)" d="m295.84-332.2 4.4664-4.4671-15.627 4.4662 15.627 4.4634z" stroke="#000" stroke-width="1.1906"/>
<path transform="translate(0 -.005)" d="m211.21 473 4.7109 0.91406 4.7539 0.88281 4.7969 0.85156 4.8438 0.82812 4.8828 0.79688 4.9219 0.76562 4.9609 0.73828 5 0.70703 5.0312 0.67969 5.0703 0.64844 5.0977 0.61719 5.1328 0.58594 1.3906 0.14062" fill="none" stroke="#000" stroke-linejoin="round" stroke-width="2.25"/>
<path transform="matrix(-1 -.10131 .10131 -1 0 -.005)" d="m-318.21-450 4.48-4.4773-15.672 4.4744 15.669 4.479z" stroke="#000" stroke-width="1.1939"/>
<path transform="translate(0 -.005)" d="m366.21 381.19-173.32 102.67" fill="none" stroke="#000" stroke-linejoin="round" stroke-width="3.75"/>
<path transform="matrix(1 -.5924 .5924 1 0 -.005)" d="m-70.557 442.75 6.451-6.4519-22.583 6.4502 22.584 6.4527z" stroke="#000" stroke-width="1.7207"/>
<path transform="translate(0 -.005)" d="m366.21 381.19 312.28 61.664" fill="none" stroke="#000" stroke-linejoin="round" stroke-width="3.75"/>
<path transform="matrix(-1 -.19746 .19746 -1 0 -.005)" d="m-738.51-297.28 7.36-7.3557-25.755 7.3552 25.754 7.3598z" stroke="#000" stroke-width="1.9621"/>
<path transform="translate(0 -.005)" d="m366.21 381.19v-340.38" fill="none" stroke="#000" stroke-linejoin="round" stroke-width="3.75"/>
<path transform="matrix(0 1 -1 0 0 -.005)" d="m39.466-366.21 7.5-7.5-26.25 7.5 26.25 7.5z" stroke="#000" stroke-width="2"/>
<path transform="translate(0 -.005)" d="m296.73 324.23-76.449 45.289" fill="none" stroke="#f00" stroke-linejoin="round" stroke-width="3.75"/>
<path transform="matrix(1 -.5924 .5924 1 0 -.005)" d="m-0.14548 370.12 6.4556-6.4531-22.584 6.4531 22.584 6.4527z" fill="#f00" stroke="#f00" stroke-width="1.7207"/>
<path transform="translate(0 -.005)" d="m296.73 324.23 276.21-47.977" fill="none" stroke="#f00" stroke-linejoin="round" stroke-width="3.75"/>
<path transform="matrix(-1 .17369 -.17369 -1 0 -.005)" d="m-510.91-364.77 7.3888-7.3885-25.861 7.3871 25.861 7.3902z" fill="#f00" stroke="#f00" stroke-width="1.9705"/>
<path transform="translate(0 -.005)" d="m370.06 381.19c0 2.1719-1.7617 3.9375-3.9375 3.9375-2.1719 0-3.9375-1.7656-3.9375-3.9375 0-2.1758 1.7656-3.9375 3.9375-3.9375 2.1758 0 3.9375 1.7617 3.9375 3.9375z" fill="#fff" stroke="#000" stroke-linejoin="round" stroke-width="2.3625"/>
<path transform="translate(0 -.005)" d="m300.59 324.23c0 2.1719-1.7656 3.9375-3.9375 3.9375-2.1758 0-3.9375-1.7656-3.9375-3.9375s1.7617-3.9375 3.9375-3.9375c2.1719 0 3.9375 1.7656 3.9375 3.9375z" fill="#fff" stroke="#000" stroke-linejoin="round" stroke-width="2.3625"/>
<path transform="translate(0 -.005)" d="m370.06 89.903c0 2.1719-1.7617 3.9375-3.9375 3.9375-2.1719 0-3.9375-1.7656-3.9375-3.9375 0-2.1758 1.7656-3.9375 3.9375-3.9375 2.1758 0 3.9375 1.7617 3.9375 3.9375z" fill="#fff" stroke="#000" stroke-linejoin="round" stroke-width="2.3625"/>
</g>
</defs>
<use xlink:href="#d"/>
<g>
<use x="358.707" y="408.177" xlink:href="#l"/>
<use x="305.727" y="313.723" xlink:href="#k"/>
<use x="166.467" y="513.948" xlink:href="#j"/>
<use x="180.934" y="517.848" xlink:href="#a"/>
<use x="689.769" y="469.94" xlink:href="#i"/>
<use x="702.182" y="473.84" xlink:href="#a"/>
<use x="375.205" y="30.572" xlink:href="#h"/>
<use x="387.031" y="34.472" xlink:href="#a"/>
<use x="581.318" y="299.188" xlink:href="#b"/>
<use x="596.756" y="303.088" xlink:href="#e"/>
<use x="199.855" y="405.609" xlink:href="#b"/>
<use x="215.293" y="409.509" xlink:href="#a"/>
<use x="298.224" y="369.227" xlink:href="#g"/>
<use x="264.982" y="468.583" xlink:href="#f"/>
</g>
<use xlink:href="#c"/>
</svg>
