<svg xmlns="http://www.w3.org/2000/svg" xmlns:dc="http://purl.org/dc/elements/1.1/" xmlns:ns2="http://creativecommons.org/ns#" xmlns:ns4="http://www.w3.org/1999/xlink" xmlns:rdf="http://www.w3.org/1999/02/22-rdf-syntax-ns#" width="600" height="600" viewBox="0 0 600 600" version="1.1">
 <defs>
</defs><metadata>
  <rdf:RDF>
   <ns2:Work>
    <dc:type rdf:resource="http://purl.org/dc/dcmitype/StillImage" />
    <dc:date>2024-02-10T17:46:15.665319</dc:date>
    <dc:format>image/svg+xml</dc:format>
    <dc:creator>
     <ns2:Agent>
      <dc:title>Matplotlib v3.7.2, https://matplotlib.org/</dc:title>
     </ns2:Agent>
    </dc:creator>
   </ns2:Work>
  </rdf:RDF>
 </metadata>
 <defs>
  <style type="text/css">*{stroke-linejoin: round; stroke-linecap: butt}</style>
 </defs>
 <g id="figure_1">
  <g id="patch_1">
   <path d="M 0 600  L 600 600  L 600 0  L 0 0  z " style="fill: #ffffff" />
  </g>
  <g id="patch_2">
   <path d="M 0 600  L 600 600  L 600 0  L 0 0  z " style="fill: #ffffff" />
  </g>
  <g id="axes_1">
   <g id="polygon_1">
    <defs>
     <path id="mced674e42b" d="M 565.031734 -51.492431  L 559.893262 -52.710094  L 554.754789 -53.925086  L 549.616317 -55.134323  L 544.477844 -56.334876  L 534.200899 -58.698933  L 523.923954 -61.00698  L 513.647009 -63.261177  L 503.370064 -65.463835  L 493.093119 -67.614234  L 482.816174 -69.710525  L 472.539229 -71.750961  L 462.262284 -73.733949  L 451.985339 -75.65805  L 441.708394 -77.522494  L 431.431449 -79.326611  L 421.154504 -81.069787  L 410.877559 -82.751609  L 400.600614 -84.370947  L 390.323669 -85.92292  L 380.046723 -87.401567  L 369.769778 -88.800927  L 359.492833 -90.115245  L 349.215888 -91.339127  L 338.938943 -92.471081  L 328.661998 -93.510697  L 318.385053 -94.457871  L 308.108108 -95.312245  L 297.831163 -96.072739  L 287.554218 -96.73329  L 277.277273 -97.285573  L 267.000328 -97.721418  L 256.723383 -98.032552  L 246.446438 -98.212399  L 236.169493 -98.266559  L 225.892548 -98.205565  L 215.615603 -98.040003  L 205.338658 -97.780356  L 195.061713 -97.431557  L 184.784768 -96.960051  L 174.507822 -96.316097  L 164.230877 -95.44898  L 153.953932 -94.306646  L 143.676987 -92.841411  L 133.400042 -91.043973  L 123.123097 -88.919369  L 112.846152 -86.444886  L 102.569207 -83.555882  L 92.292262 -80.181293  L 82.015317 -76.238184  L 76.876844 -73.935223  L 71.738372 -71.290451  L 66.599899 -68.152489  L 61.461427 -64.222585  L 57.350649 -60.360817  L 55.29526 -58.242174  L 53.239871 -55.769952  L 52.212176 -54.166081  L 51.698329 -53.099642  L 51.441405 -52.386371  L 51.184482 -51.184482  L 51.441405 -48.784815  L 51.698329 -48.131304  L 52.212176 -47.170667  L 53.239871 -45.782611  L 55.29526 -43.843557  L 57.350649 -42.462798  L 61.461427 -40.767616  L 66.599899 -39.568656  L 71.738372 -38.584382  L 76.876844 -37.801227  L 82.015317 -37.244988  L 92.292262 -36.560646  L 102.569207 -36.088369  L 112.846152 -35.787922  L 123.123097 -35.645535  L 133.400042 -35.638239  L 143.676987 -35.743886  L 153.953932 -35.940895  L 164.230877 -36.208661  L 174.507822 -36.530535  L 184.784768 -36.891101  L 195.061713 -37.274842  L 205.338658 -37.66624  L 215.615603 -38.052345  L 225.892548 -38.432026  L 236.169493 -38.807443  L 246.446438 -39.180702  L 256.723383 -39.554012  L 267.000328 -39.929069  L 277.277273 -40.305924  L 287.554218 -40.683859  L 297.831163 -41.06241  L 308.108108 -41.440962  L 318.385053 -41.818999  L 328.661998 -42.196574  L 338.938943 -42.573841  L 349.215888 -42.951005  L 359.492833 -43.328117  L 369.769778 -43.705384  L 380.046723 -44.082753  L 390.323669 -44.460174  L 400.600614 -44.837698  L 410.877559 -45.21517  L 421.154504 -45.592642  L 431.431449 -45.970063  L 441.708394 -46.347484  L 451.985339 -46.724904  L 462.262284 -47.102325  L 472.539229 -47.479746  L 482.816174 -47.857167  L 493.093119 -48.234588  L 503.370064 -48.612008  L 513.647009 -48.989429  L 523.923954 -49.36685  L 534.200899 -49.744271  L 544.477844 -50.121692  L 549.616317 -50.310376  L 554.754789 -50.499061  L 559.893262 -50.687797  L 565.031734 -50.876533  " style="stroke: #000000; stroke-opacity: 0.8; stroke-width: 2" />
    </defs>
    <g>
     <use ns4:href="#mced674e42b" x="0" y="600" style="fill-opacity: 0.1; stroke: #000000; stroke-opacity: 0.8; stroke-width: 2" />
    </g>
   </g>
   <g id="polygon_2">
    <defs>
     <path id="m31f5be7f80" d="M 53.880146 -163.90837  L 55.336103 -166.072416  L 57.064202 -168.02929  L 59.035368 -169.742947  L 61.212462 -171.187096  L 63.562264 -172.337487  L 66.039669 -173.171655  L 68.607349 -173.675169  L 71.219912 -173.84335  L 73.830054 -173.667538  L 76.396117 -173.156951  L 78.872584 -172.314817  L 81.217638 -171.160237  L 83.390483 -169.710351  L 85.354969 -167.988303  L 87.077164 -166.027157  L 88.527479 -163.860046  L 89.68127 -161.520181  L 90.518442 -159.052707  L 91.024929 -156.496936  L 91.192131 -153.896218  L 91.01692 -151.297946  L 90.502389 -148.743681  L 89.657529 -146.277054  L 88.496467 -143.94178  L 87.039324 -141.777715  L 85.311027 -139.820838  L 83.341047 -138.1072  L 81.162965 -136.663036  L 78.815139 -135.512677  L 76.335757 -134.678477  L 73.768078 -134.174963  L 71.157491 -134.006813  L 68.545373 -134.182594  L 65.981286 -134.693212  L 63.504819 -135.535346  L 61.159765 -136.689926  L 58.985901 -138.141773  L 57.021248 -139.861841  L 55.299844 -141.823  L 53.847948 -143.990086  L 52.695738 -146.329976  L 51.857775 -148.797437  L 51.350498 -151.353196  L 51.184482 -153.953932  L 51.358507 -156.552186  L 51.873236 -159.106454  L 52.719479 -161.573103  L 52.804628 -161.811671  L 53.721239 -164.204326  L 54.635873 -166.596948  L 55.097 -167.802216  L 56.312381 -170.053356  L 57.529643 -172.310456  L 58.098002 -173.36127  L 59.979376 -175.251402  L 61.798519 -177.077286  L 63.617662 -178.903169  L 65.434828 -180.729021  L 66.440727 -181.737395  L 78.771628 -189.675035  L 95.042654 -196.171208  L 114.800824 -200.402291  L 134.479421 -202.24814  L 142.187889 -202.972019  L 161.931563 -202.05145  L 181.675205 -201.132858  L 200.104336 -200.274346  L 204.25128 -200.081533  L 223.856765 -197.575381  L 243.462084 -195.067249  L 263.067609 -192.561097  L 265.3942 -192.264133  L 284.999626 -189.75798  L 304.605005 -187.249849  L 324.21049 -184.743696  L 342.695457 -182.379789  L 362.300942 -179.873636  L 381.906229 -177.36748  L 401.511715 -174.861328  L 419.996879 -172.497424  L 439.602364 -169.991271  L 459.207652 -167.485115  L 478.813761 -164.976996  L 497.298499 -162.615062  L 516.904411 -160.106939  L 536.508315 -157.600761  L 548.832791 -156.02616  L 565.031734 -153.953932  L 548.832791 -156.02616  L 536.508315 -157.600761  L 516.904411 -160.106939  L 497.298499 -162.615062  L 478.813761 -164.976996  L 459.207652 -167.485115  L 439.602364 -169.991271  L 419.996879 -172.497424  L 401.511715 -174.861328  L 381.906229 -177.36748  L 362.300942 -179.873636  L 342.695457 -182.379789  L 324.21049 -184.743696  L 304.605005 -187.249849  L 284.999626 -189.75798  L 265.3942 -192.264133  L 263.067609 -192.561097  L 243.462084 -195.067249  L 223.856765 -197.575381  L 204.25128 -200.081533  L 200.104336 -200.274346  L 181.675205 -201.132858  L 161.931563 -202.05145  L 142.187889 -202.972019  L 134.479421 -202.24814  L 114.800824 -200.402291  L 95.042654 -196.171208  L 78.771628 -189.675035  L 66.440727 -181.737395  L 65.434828 -180.729021  L 63.617662 -178.903169  L 61.798519 -177.077286  L 59.979376 -175.251402  L 58.098002 -173.36127  L 57.529643 -172.310456  L 56.312381 -170.053356  L 55.097 -167.802216  L 54.635873 -166.596948  L 53.721239 -164.204326  L 52.804628 -161.811671  L 52.719479 -161.573103  " style="stroke: #000000; stroke-opacity: 0.8; stroke-width: 2" />
    </defs>
    <g>
     <use ns4:href="#m31f5be7f80" x="0" y="600" style="fill-opacity: 0.1; stroke: #000000; stroke-opacity: 0.8; stroke-width: 2" />
    </g>
   </g>
  </g>
 </g>
 <defs>
  </defs>
</svg>