<svg xmlns="http://www.w3.org/2000/svg" xmlns:dc="http://purl.org/dc/elements/1.1/" xmlns:ns2="http://creativecommons.org/ns#" xmlns:rdf="http://www.w3.org/1999/02/22-rdf-syntax-ns#" width="980" height="700" viewBox="0 0 980 700" version="1.1">
 <defs>
  <marker id="Point1M-k:k:w" style="overflow:visible" refX="0" refY="0" orient="auto">
  <path style="stroke:#000000;fill:#ffffff;stroke-width:3;opacity:1" d="M -2.5,-1.0 C -2.5,1.7600000 -4.7400000,4.0 -7.5,4.0 C -10.260000,4.0 -12.5,1.7600000 -12.5,-1.0 C -12.5,-3.7600000 -10.260000,-6.0 -7.5,-6.0 C -4.7400000,-6.0 -2.5,-3.7600000 -2.5,-1.0 z" transform="scale(0.35) translate(7.4, 1)" />
  </marker>
  <marker id="Arrow1Mend-k:k" style="overflow:visible" refX="0" refY="0" orient="auto">
  <path style="stroke:#000000;fill:#000000;stroke-width:1pt;opacity:1;stroke-linejoin:miter" d="M 0.0,0.0 L 5.0,-5.0 L -12.5,0.0 L 5.0,5.0 L 0.0,0.0 z" transform="scale(0.4) rotate(180) translate(-0.9,0)" />
  </marker>
  <marker id="Arrow1Mend-r:r" style="overflow:visible" refX="0" refY="0" orient="auto">
  <path style="stroke:#ff0000;fill:#ff0000;stroke-width:1pt;opacity:1;stroke-linejoin:miter" d="M 0.0,0.0 L 5.0,-5.0 L -12.5,0.0 L 5.0,5.0 L 0.0,0.0 z" transform="scale(0.4) rotate(180) translate(-0.9,0)" />
  </marker>
</defs><metadata>
  <rdf:RDF>
   <ns2:Work>
    <dc:type rdf:resource="http://purl.org/dc/dcmitype/StillImage" />
    <dc:date>2024-01-31T19:50:40.478535</dc:date>
    <dc:format>image/svg+xml</dc:format>
    <dc:creator>
     <ns2:Agent>
      <dc:title>Matplotlib v3.7.2, https://matplotlib.org/</dc:title>
     </ns2:Agent>
    </dc:creator>
   </ns2:Work>
  </rdf:RDF>
 </metadata>
 <defs>
  <style type="text/css">*{stroke-linejoin: round; stroke-linecap: butt}</style>
 </defs>
 <g id="figure_1">
  <g id="patch_1">
   <path d="M 0 700  L 980 700  L 980 0  L 0 0  z " style="fill: #ffffff" />
  </g>
  <g id="patch_2">
   <path d="M 140 700  L 840 700  L 840 0  L 140 0  z " style="fill: #ffffff" />
  </g>
  <g id="axes_1">
   <g id="line_1">
    <path d="M 488.274041 508.248264  L 395.634066 432.307079  " clip-path="url(#p09595836c6)" style="fill: none; stroke: #000000; stroke-width: 2" />
   </g>
   <g id="line_2">
    <path d="M 488.274041 508.248264  L 381.302612 644.790507  " clip-path="url(#p09595836c6)" style="fill: none; stroke: #000000; stroke-width: 2" />
   </g>
   <g id="text_1">
    <g clip-path="url(#p09595836c6)">
     <text style="font: 20px 'DejaVu Sans', 'Bitstream Vera Sans', 'Computer Modern Sans Serif', 'Lucida Grande', 'Verdana', 'Geneva', 'Lucid', 'Arial', 'Helvetica', 'Avant Garde', sans-serif; text-anchor: start" x="478.274041" y="544.248264" transform="rotate(-0 478.274041 544.248264)">$\vec{O}$</text>
    </g>
   </g>
   <g id="text_2">
    <g clip-path="url(#p09595836c6)">
     <text style="font: 20px 'DejaVu Sans', 'Bitstream Vera Sans', 'Computer Modern Sans Serif', 'Lucida Grande', 'Verdana', 'Geneva', 'Lucid', 'Arial', 'Helvetica', 'Avant Garde', sans-serif; text-anchor: start" x="407.634066" y="418.307079" transform="rotate(-0 407.634066 418.307079)">$\vec{K}$</text>
    </g>
   </g>
   <g id="text_3">
    <g clip-path="url(#p09595836c6)">
     <text style="font: 20px 'DejaVu Sans', 'Bitstream Vera Sans', 'Computer Modern Sans Serif', 'Lucida Grande', 'Verdana', 'Geneva', 'Lucid', 'Arial', 'Helvetica', 'Avant Garde', sans-serif; text-anchor: start" x="221.957875" y="685.273796" transform="rotate(-0 221.957875 685.273796)">$\xw$</text>
    </g>
   </g>
   <g id="text_4">
    <g clip-path="url(#p09595836c6)">
     <text style="font: 20px 'DejaVu Sans', 'Bitstream Vera Sans', 'Computer Modern Sans Serif', 'Lucida Grande', 'Verdana', 'Geneva', 'Lucid', 'Arial', 'Helvetica', 'Avant Garde', sans-serif; text-anchor: start" x="919.690766" y="626.597596" transform="rotate(-0 919.690766 626.597596)">$\yw$</text>
    </g>
   </g>
   <g id="text_5">
    <g clip-path="url(#p09595836c6)">
     <text style="font: 20px 'DejaVu Sans', 'Bitstream Vera Sans', 'Computer Modern Sans Serif', 'Lucida Grande', 'Verdana', 'Geneva', 'Lucid', 'Arial', 'Helvetica', 'Avant Garde', sans-serif; text-anchor: start" x="500.274041" y="40.772673" transform="rotate(-0 500.274041 40.772673)">$\zw$</text>
    </g>
   </g>
   <g id="text_6">
    <g clip-path="url(#p09595836c6)">
     <text style="font: 20px 'DejaVu Sans', 'Bitstream Vera Sans', 'Computer Modern Sans Serif', 'Lucida Grande', 'Verdana', 'Geneva', 'Lucid', 'Arial', 'Helvetica', 'Avant Garde', sans-serif; text-anchor: start" x="775.09681" y="398.923844" transform="rotate(-0 775.09681 398.923844)">$\vvk$</text>
    </g>
   </g>
   <g id="text_7">
    <g clip-path="url(#p09595836c6)">
     <text style="font: 20px 'DejaVu Sans', 'Bitstream Vera Sans', 'Computer Modern Sans Serif', 'Lucida Grande', 'Verdana', 'Geneva', 'Lucid', 'Arial', 'Helvetica', 'Avant Garde', sans-serif; text-anchor: start" x="266.475983" y="540.819845" transform="rotate(-0 266.475983 540.819845)">$\vvw$</text>
    </g>
   </g>
   <g id="text_8">
    <g clip-path="url(#p09595836c6)">
     <text style="font: 20px 'DejaVu Sans', 'Bitstream Vera Sans', 'Computer Modern Sans Serif', 'Lucida Grande', 'Verdana', 'Geneva', 'Lucid', 'Arial', 'Helvetica', 'Avant Garde', sans-serif; text-anchor: start" x="397.634066" y="492.307079" transform="rotate(-0 397.634066 492.307079)">$\beta$</text>
    </g>
   </g>
   <g id="text_9">
    <g clip-path="url(#p09595836c6)">
     <text style="font: 20px 'DejaVu Sans', 'Bitstream Vera Sans', 'Computer Modern Sans Serif', 'Lucida Grande', 'Verdana', 'Geneva', 'Lucid', 'Arial', 'Helvetica', 'Avant Garde', sans-serif; text-anchor: start" x="353.302612" y="624.790507" transform="rotate(-0 353.302612 624.790507)">$\phi$</text>
    </g>
   </g>
   <g id="arc_1">
    <path d="M 281.621108 630.66869  L 281.746996 617.039831  L 282.124505 603.278427  L 282.753175 589.401244  L 283.632241 575.425188  L 284.760631 561.367287  L 286.136971 547.244669  L 287.759584 533.07454  L 289.626493 518.874164  L 291.735423 504.660841  L 294.083805 490.45189  L 296.668778 476.26462  L 299.487193 462.116318  L 302.535616 448.024221  L 305.810332 434.005497  L 309.307352 420.077226  L 313.022415 406.256379  L 316.950995 392.559792  L 321.088307 379.004155  L 325.429308 365.605981  L 329.96871 352.381595  L 334.700984 339.347109  L 339.620362 326.518402  L 344.720852 313.911106  L 349.996239 301.540579  L 355.440097 289.421894  L 361.045792 277.569815  L 366.806495 265.998782  L 372.715188 254.722893  L 378.764671 243.755886  L 384.947575 233.111121  L 391.256366 222.801569  L 397.683358 212.83979  L 404.220721 203.237921  L 410.86049 194.007659  L 417.594576 185.160252  L 424.414773 176.706477  L 431.312773 168.656635  L 438.280172 161.020533  L 445.308481 153.807474  L 452.389136 147.026247  L 459.513512 140.685114  L 466.672928 134.791799  L 473.858661 129.353484  L 481.061958 124.376794  L 488.274041 119.867792  L 495.486125 115.831971  L 502.689421 112.27425  L 509.875155 109.198961  L 513.458699 107.843424  L 517.034571 106.609853  L 520.601682 105.498626  L 524.158947 104.51008  L 527.70528 103.644516  L 531.239602 102.902199  L 534.760837 102.283354  L 538.267911 101.78817  L 541.759756 101.416798  L 545.235309 101.16935  L 548.693512 101.045902  L 552.13331 101.046493  L 555.553655 101.171121  L 558.953507 101.419748  L 562.331829 101.7923  L 565.687593 102.288662  L 569.019775 102.908683  L 572.327362 103.652175  L 575.609345 104.51891  L 578.864725 105.508625  L 582.09251 106.621019  L 585.291717 107.855752  L 588.461371 109.212449  L 591.600508 110.690696  L 594.70817 112.290042  L 597.783412 114.010002  L 600.825295 115.85005  L 603.832895 117.809627  L 606.805294 119.888134  L 609.741588 122.084941  L 612.640881 124.399376  L 615.502291 126.830735  L 618.324946 129.378278  L 623.850564 134.818775  L 629.211003 140.714238  L 634.399732 147.057485  L 639.410429 153.840787  L 644.23699 161.05588  L 648.873534 168.693974  L 653.314412 176.745762  L 657.554214 185.201435  L 661.587774 194.05069  L 665.410178 203.282747  L 669.016769 212.886358  L 672.403153 222.849821  L 675.565204 233.160999  L 678.499069 243.807328  L 681.201175 254.775837  L 683.668228 266.053164  L 685.897224 277.625568  L 687.885446 289.47895  L 689.630473 301.598869  L 691.130178 313.970558  L 692.382734 326.578945  L 693.386615 339.408668  L 694.140598 352.444096  L 694.643764 365.669348  L 694.8955 379.06831  L 694.926974 385.827838  L 694.926974 385.827838  " clip-path="url(#p09595836c6)" style="fill: none; stroke-dasharray: 12,12; stroke-dashoffset: 0; stroke: #000000; stroke-opacity: 0.3; stroke-width: 2" />
   </g>
   <g id="arc_2">
    <path d="M 281.621108 630.66869  L 294.238691 633.060792  L 307.092675 635.30083  L 320.167401 637.386074  L 333.446939 639.313983  L 346.91511 641.082209  L 360.555505 642.688597  L 374.351505 644.13119  L 388.286303 645.408231  L 402.34292 646.518164  L 416.504231 647.459636  L 430.752982 648.2315  L 445.071814 648.832816  L 459.443282 649.262852  L 473.849875 649.521083  L 488.274041 649.607195  L 502.698208 649.521083  L 517.104801 649.262852  L 531.476268 648.832816  L 545.7951 648.2315  L 560.043852 647.459636  L 574.205163 646.518164  L 588.26178 645.408231  L 602.196577 644.13119  L 615.992578 642.688597  L 629.632973 641.082209  L 643.101144 639.313983  L 656.380682 637.386074  L 669.455408 635.30083  L 682.309392 633.060792  L 694.926974 630.66869  L 707.292782 628.127437  L 719.391749 625.440129  L 731.209134 622.610042  L 742.730541 619.640622  L 753.941931 616.535488  L 764.829646 613.298422  L 775.380421 609.933369  L 785.5814 606.444429  L 795.420157 602.835851  L 804.884703 599.112034  L 813.963508 595.277512  L 822.645511 591.336959  L 830.920133 587.295175  L 838.777294 583.157085  L 846.207421 578.92773  L 853.201461 574.612262  L 859.750893 570.215941  L 865.847738 565.744121  L 871.484567 561.202252  L 876.654514 556.595866  L 881.351278 551.930576  L 885.569139 547.212066  L 889.302957 542.446085  L 892.548182 537.638438  L 895.300863 532.794985  L 896.491426 530.361673  L 897.557643 527.921625  L 898.499188 525.475584  L 899.315775 523.024296  L 900.007154 520.568507  L 900.573115 518.108964  L 901.013486 515.646419  L 901.328133 513.181619  L 901.516959 510.715317  L 901.579907 508.248264  L 901.516959 505.78121  L 901.328133 503.314908  L 901.013486 500.850109  L 900.573115 498.387563  L 900.007154 495.928021  L 899.315775 493.472232  L 898.499188 491.020944  L 897.557643 488.574903  L 896.491426 486.134855  L 895.300863 483.701543  L 893.986314 481.275708  L 890.986905 476.449423  L 887.496851 471.66188  L 883.520407 466.918912  L 879.062415 462.226297  L 874.128308 457.589753  L 868.724097 453.014929  L 862.856366 448.507398  L 856.532264 444.072652  L 849.759497 439.716094  L 842.546315 435.443032  L 834.901507 431.258672  L 826.834386 427.168112  L 818.354782 423.176335  L 809.473026 419.288206  L 800.199938 415.508461  L 790.546816 411.841704  L 780.525422 408.292405  L 770.147964 404.864886  L 759.427086 401.563324  L 748.375851 398.391741  L 737.007721 395.354002  L 725.336547 392.453806  L 713.376549 389.694689  L 701.142299 387.08001  L 688.648701 384.612957  L 675.910978 382.296534  L 662.944648 380.133563  L 649.765509 378.126681  L 636.389617 376.278332  L 622.833269 374.590768  L 609.112982 373.066045  L 595.245471 371.706021  L 581.247632 370.512353  L 567.136518 369.486494  L 552.929323 368.629695  L 538.643356 367.943  L 524.296021 367.427246  L 509.904799 367.08306  L 495.487223 366.910862  L 481.060859 366.910862  L 466.643284 367.08306  L 452.252062 367.427246  L 437.904727 367.943  L 423.618759 368.629695  L 409.411564 369.486494  L 395.300451 370.512353  L 381.302612 371.706021  L 367.435101 373.066045  L 353.714813 374.590768  L 340.158466 376.278332  L 326.782574 378.126681  L 313.603435 380.133563  L 300.637105 382.296534  L 287.899381 384.612957  L 275.405784 387.08001  L 263.171533 389.694689  L 251.211536 392.453806  L 239.540362 395.354002  L 228.172232 398.391741  L 217.120996 401.563324  L 206.400119 404.864886  L 196.022661 408.292405  L 186.001266 411.841704  L 176.348145 415.508461  L 167.075057 419.288206  L 158.1933 423.176335  L 149.713696 427.168112  L 141.646576 431.258672  L 134.001768 435.443032  L 126.788586 439.716094  L 120.015818 444.072652  L 113.691717 448.507398  L 107.823986 453.014929  L 102.419775 457.589753  L 97.485668 462.226297  L 93.027676 466.918912  L 89.051231 471.66188  L 85.561178 476.449423  L 82.561768 481.275708  L 81.24722 483.701543  L 80.056656 486.134855  L 78.99044 488.574903  L 78.048895 491.020944  L 77.232308 493.472232  L 76.540929 495.928021  L 75.974968 498.387563  L 75.534597 500.850109  L 75.21995 503.314908  L 75.031124 505.78121  L 74.968175 508.248264  L 75.031124 510.715317  L 75.21995 513.181619  L 75.534597 515.646419  L 75.974968 518.108964  L 76.540929 520.568507  L 77.232308 523.024296  L 78.048895 525.475584  L 78.99044 527.921625  L 80.056656 530.361673  L 81.24722 532.794985  L 82.561768 535.22082  L 85.561178 540.047105  L 89.051231 544.834648  L 93.027676 549.577616  L 97.485668 554.27023  L 102.419775 558.906774  L 107.823986 563.481599  L 113.691717 567.98913  L 120.015818 572.423876  L 126.788586 576.780434  L 134.001768 581.053496  L 141.646576 585.237856  L 149.713696 589.328416  L 158.1933 593.320193  L 167.075057 597.208322  L 176.348145 600.988067  L 186.001266 604.654823  L 196.022661 608.204123  L 206.400119 611.631642  L 217.120996 614.933204  L 228.172232 618.104787  L 239.540362 621.142526  L 251.211536 624.042722  L 263.171533 626.801839  L 275.405784 629.416518  L 281.621108 630.66869  L 281.621108 630.66869  " clip-path="url(#p09595836c6)" style="fill: none; stroke-dasharray: 12,12; stroke-dashoffset: 0; stroke: #000000; stroke-opacity: 0.3; stroke-width: 2" />
   </g>
   <g id="arc_3">
    <path d="M 309.307352 420.077226  L 320.234498 422.148848  L 331.366375 424.088778  L 342.68942 425.894652  L 354.189837 427.56427  L 365.853616 429.095598  L 377.666544 430.486771  L 389.614231 431.736094  L 401.68212 432.842044  L 413.855507 433.803273  L 426.119562 434.618612  L 438.459343 435.287066  L 450.859815 435.807822  L 463.305871 436.180243  L 475.782347 436.403878  L 488.274041 436.478453  L 500.765736 436.403878  L 513.242212 436.180243  L 525.688267 435.807822  L 538.08874 435.287066  L 550.42852 434.618612  L 562.692575 433.803273  L 574.865963 432.842044  L 586.933852 431.736094  L 598.881538 430.486771  L 610.694467 429.095598  L 622.358245 427.56427  L 633.858663 425.894652  L 645.181707 424.088778  L 656.313584 422.148848  L 667.240731 420.077226  L 677.949834 417.876437  L 688.427847 415.54916  L 698.662003 413.098233  L 708.639834 410.52664  L 718.349183 407.837515  L 727.778221 405.034134  L 736.915459 402.119912  L 745.749767 399.098401  L 754.27038 395.973281  L 762.466918 392.748361  L 770.329393 389.427568  L 777.848228 386.014949  L 785.014261 382.514661  L 791.818762 378.93097  L 798.253441 375.268241  L 804.310457 371.530936  L 809.982432 367.72361  L 815.262454 363.850901  L 820.144092 359.917526  L 824.621397 355.928279  L 828.688914 351.88802  L 832.341689 347.80167  L 835.57527 343.674209  L 838.385718 339.510665  L 840.769608 335.316112  L 842.724038 331.095658  L 844.246624 326.854447  L 845.335513 322.597645  L 845.989377 318.330439  L 846.207421 314.058028  L 845.989377 309.785616  L 845.335513 305.51841  L 844.246624 301.261609  L 842.724038 297.020397  L 840.769608 292.799944  L 838.385718 288.60539  L 835.57527 284.441846  L 832.341689 280.314385  L 828.688914 276.228036  L 824.621397 272.187776  L 820.144092 268.198529  L 815.262454 264.265155  L 809.982432 260.392445  L 804.310457 256.585119  L 798.253441 252.847815  L 791.818762 249.185086  L 785.014261 245.601394  L 777.848228 242.101107  L 770.329393 238.688488  L 762.466918 235.367695  L 754.27038 232.142774  L 745.749767 229.017654  L 736.915459 225.996143  L 727.778221 223.081922  L 718.349183 220.278541  L 708.639834 217.589416  L 698.662003 215.017823  L 688.427847 212.566895  L 677.949834 210.239619  L 667.240731 208.038829  L 656.313584 205.967207  L 645.181707 204.027278  L 633.858663 202.221404  L 622.358245 200.551785  L 610.694467 199.020457  L 598.881538 197.629284  L 586.933852 196.379962  L 574.865963 195.274012  L 562.692575 194.312782  L 550.42852 193.497443  L 538.08874 192.828989  L 525.688267 192.308234  L 513.242212 191.935812  L 500.765736 191.712177  L 488.274041 191.637602  L 475.782347 191.712177  L 463.305871 191.935812  L 450.859815 192.308234  L 438.459343 192.828989  L 426.119562 193.497443  L 413.855507 194.312782  L 401.68212 195.274012  L 389.614231 196.379962  L 377.666544 197.629284  L 365.853616 199.020457  L 354.189837 200.551785  L 342.68942 202.221404  L 331.366375 204.027278  L 320.234498 205.967207  L 309.307352 208.038829  L 298.598248 210.239619  L 288.120236 212.566895  L 277.88608 215.017823  L 267.908249 217.589416  L 258.1989 220.278541  L 248.769862 223.081922  L 239.632623 225.996143  L 230.798316 229.017654  L 222.277703 232.142774  L 214.081165 235.367695  L 206.218689 238.688488  L 198.699855 242.101107  L 191.533821 245.601394  L 184.72932 249.185086  L 178.294642 252.847815  L 172.237626 256.585119  L 166.565651 260.392445  L 161.285628 264.265155  L 156.403991 268.198529  L 151.926686 272.187776  L 147.859168 276.228036  L 144.206394 280.314385  L 140.972813 284.441846  L 138.162365 288.60539  L 135.778474 292.799944  L 133.824045 297.020397  L 132.301458 301.261609  L 131.21257 305.51841  L 130.558705 309.785616  L 130.340662 314.058028  L 130.558705 318.330439  L 131.21257 322.597645  L 132.301458 326.854447  L 133.824045 331.095658  L 135.778474 335.316112  L 138.162365 339.510665  L 140.972813 343.674209  L 144.206394 347.80167  L 147.859168 351.88802  L 151.926686 355.928279  L 156.403991 359.917526  L 161.285628 363.850901  L 166.565651 367.72361  L 172.237626 371.530936  L 178.294642 375.268241  L 184.72932 378.93097  L 191.533821 382.514661  L 198.699855 386.014949  L 206.218689 389.427568  L 214.081165 392.748361  L 222.277703 395.973281  L 230.798316 399.098401  L 239.632623 402.119912  L 248.769862 405.034134  L 258.1989 407.837515  L 267.908249 410.52664  L 277.88608 413.098233  L 288.120236 415.54916  L 298.598248 417.876437  L 309.307352 420.077226  L 309.307352 420.077226  " clip-path="url(#p09595836c6)" style="fill: none; stroke-dasharray: 12,12; stroke-dashoffset: 0; stroke: #000000; stroke-opacity: 0.3; stroke-width: 2" />
   </g>
   <g id="arcmeasure_1" marker-end="url(#Arrow1Mend-k:k)">
    <path d="M 381.302612 644.790507  L 381.318904 637.991537  L 381.367776 631.153046  L 381.449212 624.277117  L 381.563189 617.365844  L 381.70967 610.421334  L 381.888612 603.4457  L 382.099961 596.441068  L 382.34365 589.409572  L 382.619608 582.353354  L 382.927748 575.274562  L 383.267978 568.175353  L 383.640194 561.05789  L 384.044283 553.924341  L 384.48012 546.776878  L 384.947575 539.61768  L 385.446504 532.448925  L 385.976755 525.272799  L 386.538166 518.091487  L 387.130568 510.907177  L 387.753778 503.722057  L 388.407609 496.538316  L 389.091859 489.358141  L 389.806321 482.183721  L 390.550778 475.01724  L 391.325002 467.860882  L 392.128757 460.716826  L 392.9618 453.587248  L 393.268381 451.145837  " clip-path="url(#p09595836c6)" style="fill: none; stroke: #000000; stroke-width: 3" />
   </g>
   <g id="arcmeasure_2" marker-end="url(#Arrow1Mend-k:k)">
    <path d="M 281.621108 630.66869  L 287.899381 631.883571  L 294.238691 633.060792  L 300.637105 634.199994  L 307.092675 635.30083  L 313.603435 636.362964  L 320.167401 637.386074  L 326.782574 638.369846  L 333.446939 639.313983  L 340.158466 640.218195  L 346.91511 641.082209  L 353.714813 641.905759  L 360.555505 642.688597  L 362.412594 642.87674  " clip-path="url(#p09595836c6)" style="fill: none; stroke: #000000; stroke-width: 3" />
   </g>
   <g id="vector_1" marker-end="url(#Arrow1Mend-k:k)">
    <path d="M 488.274041 508.248264  L 257.183734 645.145299  " clip-path="url(#p09595836c6)" style="fill: none; stroke: #000000; stroke-width: 5" />
   </g>
   <g id="vector_2" marker-end="url(#Arrow1Mend-k:k)">
    <path d="M 488.274041 508.248264  L 904.645719 590.467273  " clip-path="url(#p09595836c6)" style="fill: none; stroke: #000000; stroke-width: 5" />
   </g>
   <g id="vector_3" marker-end="url(#Arrow1Mend-k:k)">
    <path d="M 488.274041 508.248264  L 488.274041 54.417196  " clip-path="url(#p09595836c6)" style="fill: none; stroke: #000000; stroke-width: 5" />
   </g>
   <g id="vector_4" marker-end="url(#Arrow1Mend-r:r)">
    <path d="M 395.634066 432.307079  L 293.701842 492.691348  " clip-path="url(#p09595836c6)" style="fill: none; stroke: #ff0000; stroke-width: 5" />
   </g>
   <g id="vector_5" marker-end="url(#Arrow1Mend-r:r)">
    <path d="M 395.634066 432.307079  L 763.919089 368.339145  " clip-path="url(#p09595836c6)" style="fill: none; stroke: #ff0000; stroke-width: 5" />
   </g>
   <g id="point_1" marker-start="url(#Point1M-k:k:w)">
    <path d="M 488.274041 508.248264  L 488.274041 508.248264  " clip-path="url(#p09595836c6)" style="fill: none; stroke: #000000; stroke-width: 3" />
   </g>
   <g id="point_2" marker-start="url(#Point1M-k:k:w)">
    <path d="M 395.634066 432.307079  L 395.634066 432.307079  " clip-path="url(#p09595836c6)" style="fill: none; stroke: #000000; stroke-width: 3" />
   </g>
   <g id="point_3" marker-start="url(#Point1M-k:k:w)">
    <path d="M 488.274041 119.867792  L 488.274041 119.867792  " clip-path="url(#p09595836c6)" style="fill: none; stroke: #000000; stroke-width: 3" />
   </g>
  </g>
 </g>
 <defs>
  <clipPath id="p09595836c6">
   <rect x="0" y="0" width="980" height="700" />
  </clipPath>
 </defs>
</svg>