<?xml version="1.0" encoding="UTF-8"?>
<svg width="450pt" height="450pt" version="1.1" viewBox="0 0 450 450" xmlns="http://www.w3.org/2000/svg" xmlns:xlink="http://www.w3.org/1999/xlink">
<defs>
<clipPath id="c">
<path d="m0 0h450v450h-450z"/>
</clipPath>
<clipPath id="b">
<rect width="450" height="450"/>
</clipPath>
<g id="a" clip-path="url(#b)">
<g clip-path="url(#c)">
<rect x="-99" y="-99" width="648" height="648" fill="#fff"/>
<rect x="-99" y="-99" width="648" height="648" fill="#fff"/>
</g>
<path transform="matrix(1.0001 0 0 1.0001 0 -.027)" d="m423.77 411.38-3.8513-0.9101-3.8552-0.91401-3.8552-0.9062-3.8513-0.89838-7.7066-1.7733-7.7105-1.7304-7.7066-1.6913-7.7066-1.6522-7.7066-1.6132-7.7105-1.5702-7.7066-1.5312-7.7105-1.4882-7.7066-1.4413-7.7066-1.3984-7.7066-1.3554-7.7066-1.3046-7.7105-1.2616-7.7066-1.2148-7.7105-1.164-7.7066-1.1093-7.7066-1.0507-7.7066-0.98432-7.7105-0.91791-7.7066-0.84761-7.7066-0.7812-7.7066-0.7109-7.7066-0.64059-7.7105-0.57028-7.7105-0.49606-7.7066-0.41404-7.7066-0.3281-7.7066-0.23046-7.7066-0.13671-7.7066-0.03906-7.7105 0.046872-7.7105 0.12109-7.7066 0.1953-7.7066 0.2617-7.7066 0.35545-7.7066 0.48044-7.7105 0.6523-7.7066 0.85542-7.7066 1.0976-7.7066 1.3515-7.7105 1.5897-7.7105 1.8593-7.7066 2.1639-7.7066 2.5311-7.7066 2.9569-3.8552 1.7265-3.8513 1.9843-3.8552 2.3553-3.8513 2.9451-3.0858 2.8983-1.539 1.5897-1.5429 1.8515-0.76948 1.2031-0.3906 0.80073-0.18749 0.53512-0.1953 0.90229 0.1953 1.7968 0.18749 0.49216 0.3906 0.71871 0.76948 1.0429 1.5429 1.453 1.539 1.0351 3.0858 1.2773 3.8513 0.89448 3.8552 0.73824 3.8513 0.5859 3.8552 0.41794 7.7066 0.51559 7.7066 0.35545 7.7066 0.22655 7.7105 0.10546 7.7105 0.003906 7.7066-0.082026 7.7066-0.14452 7.7066-0.19921 7.7105-0.24217 7.7066-0.26952 7.7066-0.28904 7.7066-0.29295 7.7066-0.28904 7.7105-0.28514 7.7105-0.28123 7.7066-0.28514 7.7066-0.27342 7.7066-0.28123 15.413-0.57028 7.7105-0.28514 15.417-0.56247 23.12-0.85542 7.7105-0.27733 7.7066-0.28123 15.413-0.57028 7.7105-0.28514 7.7066-0.27733 23.124-0.85542 7.7066-0.28123 7.7066-0.28514 7.7105-0.27733 7.7066-0.28904 7.7105-0.28123 7.7066-0.28514 15.413-0.55856 7.7105-0.28904 11.558-0.42185 7.7105-0.28514 3.8513-0.14062" fill-opacity=".1" stroke="#000" stroke-linejoin="round" stroke-opacity=".8" stroke-width="1.5"/>
<path transform="matrix(1.0001 0 0 1.0001 0 -.027)" d="m40.412 327.07 1.0937-1.6249 1.2929-1.4687 1.4804-1.2851 1.6327-1.082 1.7616-0.86323 1.8593-0.62496 1.9257-0.37888 1.9569-0.12499 1.9569 0.1328 1.9257 0.38279 1.8593 0.63278 1.7577 0.86323 1.6288 1.0898 1.4726 1.289 1.2929 1.4726 1.0859 1.6249 0.86714 1.7538 0.62887 1.8515 0.37888 1.9179 0.12499 1.9491-0.1328 1.9491-0.3867 1.9139-0.63278 1.8515-0.87104 1.7499-1.0898 1.6249-1.2968 1.4648-1.4804 1.2851-1.6327 1.0859-1.7577 0.86323-1.8632 0.62496-1.9257 0.37498-1.9569 0.1289-1.9569-0.1328-1.9257-0.38279-1.8554-0.62887-1.7577-0.86714-1.6327-1.0859-1.4726-1.2929-1.289-1.4726-1.0898-1.6249-0.86714-1.7538-0.62496-1.8515-0.38279-1.9179-0.12499-1.9491 0.1328-1.9491 0.3867-1.9139 0.63277-1.8515 0.062497-0.17968 0.68746-1.7929 0.68746-1.7968 0.34764-0.90229 0.9101-1.6874 0.91401-1.6952 0.42576-0.78511 1.4101-1.4179 1.3632-1.371 1.3671-1.3671 1.3593-1.371 0.75777-0.75777 9.2455-5.9528 12.202-4.8708 14.819-3.1717 14.757-1.3866 5.7848-0.54294 14.808 0.69136 14.808 0.68746 13.819 0.64449 3.1092 0.14452 14.706 1.8827 14.706 1.8788 14.702 1.8788 1.746 0.22264 14.702 1.8788 14.702 1.8827 14.706 1.8788 13.866 1.7733 29.404 3.7576 14.706 1.8827 13.862 1.7694 14.706 1.8827 29.404 3.7576 13.866 1.7733 14.706 1.8788 14.702 1.8827 9.2416 1.1796 12.148 1.5546-12.148-1.5546-9.2416-1.1796-14.702-1.8827-14.706-1.8788-13.866-1.7733-29.404-3.7576-14.706-1.8827-13.862-1.7694-14.706-1.8827-29.404-3.7576-13.866-1.7733-14.706-1.8788-14.702-1.8827-14.702-1.8788-1.746-0.22264-29.408-3.7576-14.706-1.8827-3.1092-0.14452-13.819-0.64449-14.808-0.68746-14.808-0.69136-5.7848 0.54294-14.757 1.3866-14.819 3.1717-12.202 4.8708-9.2455 5.9528-0.75777 0.75777-1.3593 1.371-1.3671 1.3671-1.3632 1.371-1.4101 1.4179-0.42576 0.78511-0.91401 1.6952-0.9101 1.6874-0.34764 0.90229-0.68746 1.7968-0.68746 1.7929-0.062497 0.17968" fill-opacity=".1" stroke="#000" stroke-linejoin="round" stroke-opacity=".8" stroke-width="1.5"/>
</g>
</defs>
<use xlink:href="#a"/>
</svg>
