<?xml version="1.0" encoding="UTF-8"?>
<svg width="450pt" height="450pt" version="1.1" viewBox="0 0 450 450" xmlns="http://www.w3.org/2000/svg" xmlns:xlink="http://www.w3.org/1999/xlink">
<defs>
<filter id="a" x="0" y="0" width="1" height="1">
<feColorMatrix color-interpolation-filters="sRGB" values="0 0 0 0 1 0 0 0 0 1 0 0 0 0 1 0 0 0 1 0"/>
</filter>
<g id="h">
<path d="m10.266-3.7344c0.10938-0.45312 0.15625-0.89062 0.15625-1.3125 0-0.76562-0.1875-1.5156-0.57812-2.1094-0.25-0.35938-0.53125-0.6875-0.89062-0.90625 0.23438-0.125 0.45312-0.25 0.64062-0.42188 0.8125-0.59375 1.3906-1.4219 1.6094-2.2969 0.0625-0.23438 0.09375-0.5 0.09375-0.73438 0-0.60938-0.20312-1.1719-0.5625-1.6094-0.51562-0.64062-1.3281-0.96875-2.2812-0.96875-2.3594 0-4.1094 2.7344-4.7656 5.4531l-3.1094 12.328c0 0.125 0.078125 0.1875 0.15625 0.1875h0.125c0.078125 0 0.14062-0.03125 0.15625-0.10938l1.4062-5.625c0.28125 1.2188 1.1719 2.0625 2.5625 2.0625 1.1094 0 2.2969-0.39062 3.3125-1.1406 0.96875-0.71875 1.7031-1.75 1.9688-2.7969zm-1.25-0.078125c-0.21875 0.9375-0.67188 1.875-1.4531 2.5781-0.75 0.67188-1.6875 1.0469-2.5781 1.0469-1.4219 0-2.2188-1.1094-2.2188-2.5312 0-0.32812 0.03125-0.65625 0.10938-1.0156l1.2188-4.8438c0.625-2.5156 2.1719-5.1406 4.3594-5.1406 0.6875 0 1.25 0.29688 1.5625 0.8125 0.1875 0.3125 0.26562 0.67188 0.26562 1.0469 0 0.3125-0.0625 0.65625-0.14062 1-0.20312 0.76562-0.54688 1.5156-1.1875 2.0938-0.15625 0.14062-0.35938 0.28125-0.53125 0.40625-0.40625-0.15625-0.84375-0.23438-1.3281-0.23438-0.67188 0-1.5 0-1.6094 0.46875 0 0.0625-0.03125 0.14062-0.03125 0.14062 0 0.4375 0.78125 0.4375 1.4531 0.4375 0.46875 0 0.96875-0.078125 1.4531-0.25 0.28125 0.21875 0.5 0.5 0.64062 0.8125 0.20312 0.42188 0.28125 0.90625 0.28125 1.4062 0 0.5625-0.09375 1.1562-0.26562 1.7656zm-1.1719-4.2656c-0.29688 0.09375-0.625 0.15625-0.92188 0.15625-0.42188 0-1.0469 0-1-0.125 0.03125-0.17188 0.67188-0.17188 1.1562-0.17188 0.28125 0 0.51562 0.03125 0.76562 0.14062z"/>
</g>
<clipPath id="m">
<path d="m0 0h450v450h-450z"/>
</clipPath>
<clipPath id="l">
<rect width="450" height="450"/>
</clipPath>
<g id="c" clip-path="url(#l)">
<g clip-path="url(#m)">
<rect x="-99" y="-99" width="648" height="648" fill="#fff"/>
<rect x="-99" y="-99" width="648" height="648" fill="#fff"/>
</g>
<path transform="matrix(1.0001 0 0 1.0001 0 -.027)" d="m190.27 65.496-111.51 289.72" fill="none" stroke="#000" stroke-dasharray="1.5 2.475" stroke-linejoin="round" stroke-width="1.5"/>
<path transform="matrix(1.0001 0 0 1.0001 0 -.027)" d="m231.08 334.8v-101.05" fill="none" stroke="#f00" stroke-linejoin="round" stroke-width="2.25"/>
<path transform="matrix(0 1.0001 -1.0001 0 0 -.027)" d="m232.94-231.08 4.4997-4.4997-15.753 4.4997 15.753 4.5036z" fill="#f00" stroke="#f00" stroke-width="1.2"/>
<path transform="matrix(1.0001 0 0 1.0001 0 -.027)" d="m234.94 218.92c0 2.1796-1.7655 3.9373-3.9373 3.9373-2.1796 0-3.9412-1.7577-3.9412-3.9373 0-2.1717 1.7616-3.9373 3.9412-3.9373 2.1717 0 3.9373 1.7655 3.9373 3.9373z" fill="#fff" stroke="#f00" stroke-linejoin="round" stroke-width="2.3625"/>
<path transform="matrix(1.0001 0 0 1.0001 0 -.027)" d="m214.53 122.89c0 2.1717-1.7616 3.9373-3.9373 3.9373-2.1717 0-3.9373-1.7655-3.9373-3.9373 0-2.1756 1.7655-3.9373 3.9373-3.9373 2.1757 0 3.9373 1.7616 3.9373 3.9373z" fill="#fff" stroke="#f00" stroke-linejoin="round" stroke-width="2.3625"/>
<path transform="matrix(1.0001 0 0 1.0001 0 -.027)" d="m271.9 410.97-0.031248-3.3787-0.085933-3.3943-0.14843-3.41-0.20702-3.4256-0.2617-3.4334-0.3242-3.449-0.38279-3.4607-0.43747-3.4685-0.49997-3.4764-0.55465-3.4881-0.61715-3.492-0.67183-3.4959-0.73042-3.4998-0.78511-3.5076-0.8437-3.5037-0.90229-3.5154-0.95697-3.5076-1.0117-3.5037-1.0702-3.5076-1.1249-3.5037-1.1796-3.4959-1.2382-3.4959-1.289-3.4842-1.3437-3.4803-1.3984-3.4685-1.4491-3.4646-1.5038-3.449-1.5585-3.4412-1.6093-3.4256-1.6601-3.4139-1.7108-3.3982-1.7616-3.3787-1.8085-3.367-1.8632-3.3475-1.9061-3.3318-1.9569-3.3084-2.0077-3.2928-2.0507-3.2654-2.1014-3.242-2.1444-3.2225-2.1874-3.1951-2.2342-3.1678-2.2811-3.1443-2.3202-3.1131-2.3592-3.0858-2.4061-3.0584-2.4452-3.0272-2.4842-2.992-2.5233-2.9647-2.5663-2.9256-2.6014-2.8983-2.6366-2.8592-2.6756-2.824-2.7069-2.785-2.7459-2.7537-2.7772-2.7069-2.8123-2.6717-2.8397-2.6327-2.8748-2.5936-2.9061-2.5506-2.9334-2.5077-2.9608-2.4647-2.992-2.4178-3.0154-2.3749-3.0467-2.328-3.0662-2.285-3.0936-2.2381-3.1131-2.1874-3.1365-2.1405-3.1561-2.0936-3.1795-2.0389-3.1951-1.9921-3.2147-1.9452-3.2303-1.8905-3.2498-1.8358-3.2615-1.785-3.2811-1.7343-3.2889-1.6796-3.3045-1.6249-3.3123-1.5741-3.324-1.5155-3.3357-1.4608-3.3396-1.4023-3.3553-1.3476-3.3553-1.2929-3.3553-1.2343-3.3709-1.1757-3.367-1.121-3.367-1.0624-3.3709-1.0038" fill="none" stroke="#00f" stroke-linejoin="round" stroke-width="1.5"/>
<path transform="matrix(1.0001 0 0 1.0001 0 -.027)" d="m78.753 355.22v-193.15" fill="none" stroke="#00f" stroke-linecap="square" stroke-linejoin="round" stroke-width="1.125"/>
<path transform="matrix(1.0001 0 0 1.0001 0 -.027)" d="m78.753 355.22 111.51-96.576" fill="none" stroke="#00f" stroke-linecap="square" stroke-linejoin="round" stroke-width="1.125"/>
<path transform="matrix(1.0001 0 0 1.0001 0 -.027)" d="m78.753 355.22 193.14 55.751" fill="none" stroke="#00f" stroke-linecap="square" stroke-linejoin="round" stroke-width="1.125"/>
<path transform="matrix(1.0001 0 0 1.0001 0 -.027)" d="m78.753 162.07 111.51-96.572" fill="none" stroke="#00f" stroke-linecap="square" stroke-linejoin="round" stroke-width="1.125"/>
<path transform="matrix(1.0001 0 0 1.0001 0 -.027)" d="m78.753 162.07 193.14 55.754" fill="none" stroke="#00f" stroke-linecap="square" stroke-linejoin="round" stroke-width="1.125"/>
<path transform="matrix(1.0001 0 0 1.0001 0 -.027)" d="m190.27 258.64v-193.14" fill="none" stroke="#00f" stroke-linecap="square" stroke-linejoin="round" stroke-width="1.125"/>
<path transform="matrix(1.0001 0 0 1.0001 0 -.027)" d="m190.27 258.64 193.14 55.758" fill="none" stroke="#00f" stroke-linecap="square" stroke-linejoin="round" stroke-width="1.125"/>
<path transform="matrix(1.0001 0 0 1.0001 0 -.027)" d="m190.27 65.496 193.14 55.758" fill="none" stroke="#00f" stroke-linecap="square" stroke-linejoin="round" stroke-width="1.125"/>
<path transform="matrix(1.0001 0 0 1.0001 0 -.027)" d="m271.9 410.97v-193.14" fill="none" stroke="#00f" stroke-linecap="square" stroke-linejoin="round" stroke-width="1.125"/>
<path transform="matrix(1.0001 0 0 1.0001 0 -.027)" d="m271.9 410.97 111.51-96.568" fill="none" stroke="#00f" stroke-linecap="square" stroke-linejoin="round" stroke-width="1.125"/>
<path transform="matrix(1.0001 0 0 1.0001 0 -.027)" d="m271.9 217.82 111.51-96.568" fill="none" stroke="#00f" stroke-linecap="square" stroke-linejoin="round" stroke-width="1.125"/>
<path transform="matrix(1.0001 0 0 1.0001 0 -.027)" d="m383.41 314.4v-193.14" fill="none" stroke="#00f" stroke-linecap="square" stroke-linejoin="round" stroke-width="1.125"/>
<path transform="matrix(1.0001 0 0 1.0001 0 -.027)" d="m264.53 267.2-96.572-124.45 96.572 27.881" fill="#f00" fill-opacity=".3" stroke="#000" stroke-linejoin="round" stroke-opacity=".3" stroke-width=".75"/>
</g>
<mask id="g">
<g filter="url(#a)">
<rect x="-99" y="-99" width="648" height="648" fill-opacity=".2"/>
</g>
</mask>
<clipPath id="k">
<rect width="450" height="450"/>
</clipPath>
<g id="b" clip-path="url(#k)">
<path transform="matrix(1.0001 0 0 1.0001 0 -.027)" d="m78.753 355.22 275.25-36.881" fill="none" stroke="#f00" stroke-linejoin="round" stroke-width="2.25"/>
<path transform="matrix(-1.0001 .13398 -.13398 -1.0001 0 -.027)" d="m-307.47-359.31 8.9175-8.9219-31.221 8.9219 31.221 8.917z" fill="#f00" stroke="#f00" stroke-width="2.3787"/>
</g>
<mask id="f">
<g filter="url(#a)">
<rect x="-99" y="-99" width="648" height="648" fill-opacity=".2"/>
</g>
</mask>
<clipPath id="j">
<rect width="450" height="450"/>
</clipPath>
<g id="e" clip-path="url(#j)">
<path transform="matrix(1.0001 0 0 1.0001 0 -.027)" d="m78.753 355.22v-101.06" fill="none" stroke="#00f" stroke-linejoin="round" stroke-width="2.25"/>
<path transform="matrix(0 1.0001 -1.0001 0 0 -.027)" d="m253.35-78.753 4.4997-4.4997-15.749 4.4997 15.749 4.4997z" fill="#00f" stroke="#00f" stroke-width="1.2"/>
</g>
<clipPath id="i">
<rect width="450" height="450"/>
</clipPath>
<g id="d" clip-path="url(#i)">
<path transform="matrix(1.0001 0 0 1.0001 0 -.027)" d="m223.68 396.97-5.0075-2.3553-1.6718-0.78511-3.3514-1.5585-3.3592-1.5507-3.3748-1.539-3.3865-1.5273-3.3943-1.5194-3.41-1.5077-3.4178-1.4999-3.4334-1.4882-3.4451-1.4765-3.4568-1.4648-3.4724-1.453-3.4842-1.4452-3.4959-1.4296-3.5115-1.4179-3.531-1.4101-3.5389-1.3905-3.5623-1.3788-3.5779-1.3632-3.5974-1.3437-3.617-1.328-3.6365-1.3085-3.656-1.2929-3.6756-1.2773-3.699-1.2577-3.7185-1.2382-3.7459-1.2187-3.7654-1.2031-3.7966-1.1718-3.824-1.1445-3.8513-1.1249-3.8748-1.1054-3.9021-1.0859-3.9177-1.0663-3.9412-1.0507-3.9646-1.0273-3.9998-0.99213-4.0505-0.95307-4.113-0.90229-4.1794-0.83979-4.2537-0.7773-4.324-0.7148-4.3982-0.6484-4.4919-0.57418-4.5935-0.48044-4.7185-0.37498-2.4295-0.12499-2.5077-0.058591-2.6092 0.031249-2.785 0.17968-2.3866 0.28123-1.2304 0.17577-1.3124 0.24217-0.73433 0.18749-0.42576 0.14452-0.24998 0.10937-0.35545 0.1953-0.42576 0.48044-0.046872 0.14843-0.015624 0.23827 0.085932 0.37107 0.35154 0.58981 0.47653 0.48044 1.1757 0.76558 1.6718 0.7812 1.7186 0.74214 1.7616 0.70699 1.8124 0.66012 3.7146 1.246 3.7576 1.207 3.8006 1.1679 3.8318 1.1406 3.8591 1.1171 3.8865 1.0976 3.906 1.0781 3.9177 1.0624 3.9334 1.0585 3.9412 1.0468 3.9451 1.0429 3.949 1.0429 11.835 3.1287 3.949 1.0468 3.9412 1.0429 3.9451 1.0468 7.8902 2.0858 3.9451 1.0468 7.8902 2.0858 3.9412 1.0429 3.9451 1.0468 7.8902 2.0858 3.9451 1.0468 7.8902 2.0858 3.9451 1.0468 7.8862 2.0858 3.949 1.0468 7.8902 2.0858 3.9451 1.0468 3.9451 1.0429 3.9412 1.0429 3.9451 1.0429 3.9451 1.0468 7.8902 2.0858 3.9451 1.0468 3.9451 1.0429 1.9725 0.52341 1.9686 0.5195 3.9451 1.0468" fill-opacity=".1" stroke="#000" stroke-linejoin="round" stroke-opacity=".8" stroke-width=".75"/>
<path transform="matrix(1.0001 0 0 1.0001 0 -.027)" d="m119.57 238.24 57.942 36.037 205.9-153.02-115.89-33.455" fill="#007f00" fill-opacity=".5" stroke="#000" stroke-linejoin="round" stroke-opacity=".5" stroke-width=".75"/>
<path transform="matrix(1.0001 0 0 1.0001 0 -.027)" d="m78.753 355.22 291.13-131.29" fill="none" stroke="#000" stroke-linejoin="round" stroke-width="2.25"/>
<path transform="matrix(-1.0001 .45099 -.45099 -1.0001 0 -.027)" d="m-224.2-324.69 4.1019-4.1069-14.359 4.1061 14.362 4.0979z" stroke="#000" stroke-width="1.0939"/>
<path transform="matrix(1.0001 0 0 1.0001 0 -.027)" d="m78.753 355.22 294.6-319.63" fill="none" stroke="#f00" stroke-linejoin="round" stroke-width="2.25"/>
<path transform="matrix(-.92177 1.0001 -1.0001 -.92177 0 -.027)" d="m-167.41-219.6 3.3096-3.3083-11.582 3.3087 11.579 3.3112z" fill="#f00" stroke="#f00" stroke-width=".88236"/>
<g mask="url(#g)">
<use transform="translate(0 2.6489e-14)" xlink:href="#b"/>
</g>
<g mask="url(#f)">
<use transform="translate(0 2.6489e-14)" xlink:href="#e"/>
</g>
<path transform="matrix(1.0001 0 0 1.0001 0 -.027)" d="m123.43 238.24c0 2.1717-1.7655 3.9373-3.9373 3.9373-2.1756 0-3.9373-1.7655-3.9373-3.9373 0-2.1757 1.7616-3.9373 3.9373-3.9373 2.1717 0 3.9373 1.7616 3.9373 3.9373z" fill="#fff" stroke="#007f00" stroke-linejoin="round" stroke-width="2.3625"/>
<path transform="matrix(1.0001 0 0 1.0001 0 -.027)" d="m181.37 274.27c0 2.1757-1.7655 3.9373-3.9373 3.9373-2.1717 0-3.9373-1.7616-3.9373-3.9373 0-2.1717 1.7655-3.9373 3.9373-3.9373 2.1717 0 3.9373 1.7655 3.9373 3.9373z" fill="#fff" stroke="#007f00" stroke-linejoin="round" stroke-width="2.3625"/>
<path transform="matrix(1.0001 0 0 1.0001 0 -.027)" d="m387.27 121.25c0 2.1717-1.7655 3.9373-3.9373 3.9373-2.1757 0-3.9373-1.7655-3.9373-3.9373 0-2.1757 1.7616-3.9373 3.9373-3.9373 2.1717 0 3.9373 1.7616 3.9373 3.9373z" fill="#fff" stroke="#007f00" stroke-linejoin="round" stroke-width="2.3625"/>
<path transform="matrix(1.0001 0 0 1.0001 0 -.027)" d="m271.38 87.799c0 2.1757-1.7655 3.9373-3.9373 3.9373-2.1757 0-3.9373-1.7616-3.9373-3.9373s1.7616-3.9373 3.9373-3.9373c2.1717 0 3.9373 1.7616 3.9373 3.9373z" fill="#fff" stroke="#007f00" stroke-linejoin="round" stroke-width="2.3625"/>
<path transform="matrix(1.0001 0 0 1.0001 0 -.027)" d="m234.94 334.8c0 2.1756-1.7655 3.9373-3.9373 3.9373-2.1796 0-3.9412-1.7616-3.9412-3.9373 0-2.1717 1.7616-3.9373 3.9412-3.9373 2.1717 0 3.9373 1.7655 3.9373 3.9373z" fill="#fff" stroke="#f00" stroke-linejoin="round" stroke-width="2.3625"/>
<path transform="matrix(1.0001 0 0 1.0001 0 -.027)" d="m215.33 394.64 1.3554-1.1991 1.3124-1.2109 1.2695-1.2187 1.2304-1.2304 1.1835-1.2421 1.1406-1.2538 1.0976-1.2616 1.0585-1.2734 1.0038-1.2773 0.96479-1.289 0.91791-1.2968 0.87104-1.3085 0.82808-1.3124 0.78511-1.3163 0.73824-1.328 0.68746-1.332 0.64449-1.3359 0.59371-1.3437 0.55075-1.3515 0.49997-1.3515 0.4531-1.3593 0.40623-1.3593 0.35935-1.3632 0.31248-1.3671 0.26561-1.371 0.21483-1.371 0.16796-1.3749 0.12109-1.3749 0.070309-1.3749 0.023436-1.3749-0.023436-1.3788-0.070309-1.3749-0.12109-1.3788-0.16796-1.371-0.21483-1.3749-0.26561-1.3632-0.31248-1.371-0.35935-1.3671-0.10937-0.27342" fill="none" stroke="#000" stroke-linejoin="round" stroke-width="1.5"/>
<path transform="matrix(.40693 1.0001 -1.0001 .40693 0 -.027)" d="m376.58-81.377 2.7792-2.7791-9.7248 2.7808 9.7247 2.7774z" stroke="#000" stroke-width=".741"/>
<path transform="matrix(1.0001 0 0 1.0001 0 -.027)" d="m78.753 162.07 0.015624 3.3592 0.050779 3.324 0.085932 3.2967 0.11718 3.2615 0.15234 3.2264 0.18749 3.1951 0.22264 3.1561 0.25389 3.1248 0.28514 3.0818 0.32029 3.0467 0.35545 3.0076 0.3906 2.9686 0.41794 2.9256 0.457 2.8826 0.48435 2.8436 0.52341 2.7967 0.55075 2.7537 0.5859 2.7069 0.61715 2.6639 0.6484 2.617 0.68355 2.5663 0.7109 2.5194 0.74605 2.4686 0.7773 2.4178 0.80464 2.371 0.83979 2.3163 0.86714 2.2655 0.89838 2.2108 0.92963 2.1561 0.95697 2.1053 0.99213 2.0507 1.0156 1.9921 1.0429 1.9374 1.0742 1.8788 1.1054 1.8241 1.1327 1.7655 1.1562 1.7069 1.1835 1.6483 1.2109 1.5897 1.0195 1.0742" fill="none" stroke="#f00" stroke-linejoin="round" stroke-width="1.5"/>
<path transform="matrix(-.94558 -1.0001 1.0001 -.94558 0 -.027)" d="m-191.57-76.142 2.1835-2.1813-7.6324 2.1812 7.63 2.1795z" fill="#f00" stroke="#f00" stroke-width=".5813"/>
<path transform="matrix(1.0001 0 0 1.0001 0 -.027)" d="m83.815 355.22c0 2.7928-2.2694 5.0622-5.0622 5.0622-2.7967 0-5.0622-2.2694-5.0622-5.0622 0-2.7967 2.2655-5.0661 5.0622-5.0661 2.7928 0 5.0622 2.2694 5.0622 5.0661z" fill="none" stroke="#f00" stroke-linejoin="round" stroke-width="1.62"/>
</g>
</defs>
<use xlink:href="#c"/>
<g>
<use x="292.01" y="36.928" xlink:href="#h"/>
</g>
<use xlink:href="#d"/>
</svg>
