<svg xmlns="http://www.w3.org/2000/svg" xmlns:dc="http://purl.org/dc/elements/1.1/" xmlns:ns2="http://creativecommons.org/ns#" xmlns:ns4="http://www.w3.org/1999/xlink" xmlns:rdf="http://www.w3.org/1999/02/22-rdf-syntax-ns#" width="600" height="600" viewBox="0 0 600 600" version="1.1">
 <defs>
  <marker id="Arrow1Mend-k:k" style="overflow:visible" refX="0" refY="0" orient="auto">
  <path style="stroke:#000000;fill:#000000;stroke-width:1pt;opacity:1;stroke-linejoin:miter" d="M 0.0,0.0 L 5.0,-5.0 L -12.5,0.0 L 5.0,5.0 L 0.0,0.0 z" transform="scale(0.4) rotate(180) translate(-0.9,0)" />
  </marker>
  <marker id="Arrow1Lend-r:r" style="overflow:visible" refX="0" refY="0" orient="auto">
  <path style="stroke:#ff0000;fill:#ff0000;stroke-width:1pt;opacity:1;stroke-linejoin:miter" d="M 0.0,0.0 L 5.0,-5.0 L -12.5,0.0 L 5.0,5.0 L 0.0,0.0 z" transform="scale(0.8) rotate(180) translate(-0.9,0)" />
  </marker>
  <marker id="Arrow1Mend-b:b" style="overflow:visible" refX="0" refY="0" orient="auto">
  <path style="stroke:#0000ff;fill:#0000ff;stroke-width:1pt;opacity:1;stroke-linejoin:miter" d="M 0.0,0.0 L 5.0,-5.0 L -12.5,0.0 L 5.0,5.0 L 0.0,0.0 z" transform="scale(0.4) rotate(180) translate(-0.9,0)" />
  </marker>
  <marker id="Arrow1Mend-r:r" style="overflow:visible" refX="0" refY="0" orient="auto">
  <path style="stroke:#ff0000;fill:#ff0000;stroke-width:1pt;opacity:1;stroke-linejoin:miter" d="M 0.0,0.0 L 5.0,-5.0 L -12.5,0.0 L 5.0,5.0 L 0.0,0.0 z" transform="scale(0.4) rotate(180) translate(-0.9,0)" />
  </marker>
  <marker id="CoG-r:r:w" style="overflow:visible" refX="0" refY="0" orient="auto">
  <circle style="fill:none;stroke:#ff0000;stroke-width:16" cx="100" cy="118.74059" r="50" transform="scale(0.03) translate(-100,-118.74059)" />
  <path style="fill:#ffffff;stroke:none" d="m 100,68.740593 a 50,50 0 0 1 50,49.999997 h -50 z" transform="scale(0.03) translate(-100,-118.74059)" />
  <path style="fill:#ff0000;stroke:none" d="M 50.565697,118.74059 A 50,50 0 0 1 100,68.740593 v 49.999997 z" transform="scale(0.03) translate(-100,-118.74059)" />
  <path style="fill:#ffffff;stroke:none" d="M 100,168.74059 A 50,50 0 0 1 65.210357,154.09593 50,50 0 0 1 50.565697,118.74059 H 100 Z" transform="scale(0.03) translate(-100,-118.74059)" />
  <path style="fill:#ff0000;stroke:none" d="m 150.5657,118.74059 a 50,50 0 0 1 -50,50 v -50 z" transform="scale(0.03) translate(-100,-118.74059)" />
  </marker>
  <marker id="Point1M-r:r:w" style="overflow:visible" refX="0" refY="0" orient="auto">
  <path style="stroke:#ff0000;fill:#ffffff;stroke-width:3;opacity:1" d="M -2.5,-1.0 C -2.5,1.7600000 -4.7400000,4.0 -7.5,4.0 C -10.260000,4.0 -12.5,1.7600000 -12.5,-1.0 C -12.5,-3.7600000 -10.260000,-6.0 -7.5,-6.0 C -4.7400000,-6.0 -2.5,-3.7600000 -2.5,-1.0 z" transform="scale(0.35) translate(7.4, 1)" />
  </marker>
  <marker id="Point1M-g:g:w" style="overflow:visible" refX="0" refY="0" orient="auto">
  <path style="stroke:#008000;fill:#ffffff;stroke-width:3;opacity:1" d="M -2.5,-1.0 C -2.5,1.7600000 -4.7400000,4.0 -7.5,4.0 C -10.260000,4.0 -12.5,1.7600000 -12.5,-1.0 C -12.5,-3.7600000 -10.260000,-6.0 -7.5,-6.0 C -4.7400000,-6.0 -2.5,-3.7600000 -2.5,-1.0 z" transform="scale(0.35) translate(7.4, 1)" />
  </marker>
</defs><metadata>
  <rdf:RDF>
   <ns2:Work>
    <dc:type rdf:resource="http://purl.org/dc/dcmitype/StillImage" />
    <dc:date>2024-10-08T21:06:15.513956</dc:date>
    <dc:format>image/svg+xml</dc:format>
    <dc:creator>
     <ns2:Agent>
      <dc:title>Matplotlib v3.9.2, https://matplotlib.org/</dc:title>
     </ns2:Agent>
    </dc:creator>
   </ns2:Work>
  </rdf:RDF>
 </metadata>
 <defs>
  <style type="text/css">*{stroke-linejoin: round; stroke-linecap: butt}</style>
 </defs>
 <g id="figure_1">
  <g id="patch_1">
   <path d="M 0 600  L 600 600  L 600 0  L 0 0  z " style="fill: #ffffff" />
  </g>
  <g id="patch_2">
   <path d="M 0 600  L 600 600  L 600 0  L 0 0  z " style="fill: #ffffff" />
  </g>
  <g id="axes_1">
   <g id="line_1">
    <path d="M 253.68648 87.329386  L 105.003826 473.618253  " style="fill: none; stroke-dasharray: 2,3.3; stroke-dashoffset: 0; stroke: #000000; stroke-width: 2" />
   </g>
   <g id="vector_4" marker-end="url(#Arrow1Mend-r:r)">
    <path d="M 308.108108 446.407439  L 308.108108 311.669718  " style="fill: none; stroke: #ff0000; stroke-width: 3" />
   </g>
   <g id="point_3" marker-start="url(#Point1M-r:r:w)">
    <path d="M 308.108108 291.891892  L 308.108108 291.891892  " style="fill: none; stroke: #ff0000; stroke-width: 3" />
   </g>
   <g id="point_4" marker-start="url(#Point1M-r:r:w)">
    <path d="M 280.897294 163.858048  L 280.897294 163.858048  " style="fill: none; stroke: #ff0000; stroke-width: 3" />
   </g>
   <g id="arc_1">
    <path d="M 362.529737 547.95958  L 362.490514 543.45381  L 362.372859 538.926768  L 362.176806 534.379833  L 361.902416 529.814389  L 361.549773 525.231827  L 361.118983 520.633543  L 360.610178 516.020937  L 360.023512 511.395416  L 359.359165 506.758387  L 358.617339 502.111263  L 357.79826 497.45546  L 356.902178 492.792396  L 355.929364 488.123491  L 354.880116 483.450168  L 353.754754 478.77385  L 352.55362 474.095962  L 351.277079 469.417928  L 349.925521 464.741173  L 348.499358 460.067123  L 346.999024 455.3972  L 345.424975 450.732828  L 343.777692 446.075427  L 342.057677 441.426415  L 340.265452 436.78721  L 338.401564 432.159223  L 336.466581 427.543866  L 334.461092 422.942543  L 332.385709 418.356657  L 330.241062 413.787603  L 328.027807 409.236775  L 325.746616 404.705558  L 323.398184 400.195332  L 320.983228 395.707472  L 318.502482 391.243344  L 315.956702 386.804308  L 313.346664 382.391717  L 310.673163 378.006914  L 307.937013 373.651236  L 305.139047 369.326008  L 302.280119 365.032548  L 299.361098 360.772165  L 296.382874 356.546156  L 293.346354 352.355808  L 290.252463 348.202398  L 287.102144 344.087191  L 283.896355 340.01144  L 280.636075 335.976388  L 277.322295 331.983262  L 273.956025 328.033279  L 270.53829 324.127644  L 267.070133 320.267544  L 263.552608 316.454157  L 259.986788 312.688643  L 256.373758 308.97215  L 252.71462 305.30581  L 249.010487 301.690739  L 245.262489 298.128039  L 241.471767 294.618796  L 237.639475 291.164077  L 233.766781 287.764935  L 229.854865 284.422406  L 225.904917 281.137508  L 221.918143 277.911242  L 217.895755 274.74459  L 213.838978 271.638517  L 209.74905 268.593968  L 205.627215 265.611872  L 201.47473 262.693137  L 197.292858 259.838652  L 193.082875 257.049286  L 188.846061 254.325889  L 184.583709 251.66929  L 180.297115 249.0803  L 175.987587 246.559706  L 171.656436 244.108276  L 167.304982 241.726757  L 162.934551 239.415874  L 158.546473 237.176332  L 154.142086 235.008812  L 149.722731 232.913975  L 145.289754 230.892459  L 140.844505 228.944879  L 136.388339 227.07183  L 131.922613 225.27388  L 127.448688 223.551579  L 122.967925 221.905451  L 118.48169 220.335996  L 113.99135 218.843694  L 109.498272 217.428999  L 105.003826 216.092342  " style="fill: none; stroke: #0000ff; stroke-width: 2" />
   </g>
   <g id="line2d_1">
    <path d="M 105.003826 473.618253  L 105.003826 216.092342  " style="fill: none; stroke: #0000ff; stroke-width: 1.5; stroke-linecap: square" />
   </g>
   <g id="line2d_2">
    <path d="M 105.003826 473.618253  L 253.68648 344.855297  " style="fill: none; stroke: #0000ff; stroke-width: 1.5; stroke-linecap: square" />
   </g>
   <g id="line2d_3">
    <path d="M 105.003826 473.618253  L 362.529737 547.95958  " style="fill: none; stroke: #0000ff; stroke-width: 1.5; stroke-linecap: square" />
   </g>
   <g id="line2d_4">
    <path d="M 105.003826 216.092342  L 253.68648 87.329386  " style="fill: none; stroke: #0000ff; stroke-width: 1.5; stroke-linecap: square" />
   </g>
   <g id="line2d_5">
    <path d="M 105.003826 216.092342  L 362.529737 290.433669  " style="fill: none; stroke: #0000ff; stroke-width: 1.5; stroke-linecap: square" />
   </g>
   <g id="line2d_6">
    <path d="M 253.68648 344.855297  L 253.68648 87.329386  " style="fill: none; stroke: #0000ff; stroke-width: 1.5; stroke-linecap: square" />
   </g>
   <g id="line2d_7">
    <path d="M 253.68648 344.855297  L 511.212391 419.196624  " style="fill: none; stroke: #0000ff; stroke-width: 1.5; stroke-linecap: square" />
   </g>
   <g id="line2d_8">
    <path d="M 253.68648 87.329386  L 511.212391 161.670713  " style="fill: none; stroke: #0000ff; stroke-width: 1.5; stroke-linecap: square" />
   </g>
   <g id="line2d_9">
    <path d="M 362.529737 547.95958  L 362.529737 290.433669  " style="fill: none; stroke: #0000ff; stroke-width: 1.5; stroke-linecap: square" />
   </g>
   <g id="line2d_10">
    <path d="M 362.529737 547.95958  L 511.212391 419.196624  " style="fill: none; stroke: #0000ff; stroke-width: 1.5; stroke-linecap: square" />
   </g>
   <g id="line2d_11">
    <path d="M 362.529737 290.433669  L 511.212391 161.670713  " style="fill: none; stroke: #0000ff; stroke-width: 1.5; stroke-linecap: square" />
   </g>
   <g id="line2d_12">
    <path d="M 511.212391 419.196624  L 511.212391 161.670713  " style="fill: none; stroke: #0000ff; stroke-width: 1.5; stroke-linecap: square" />
   </g>
   <g id="polygon_2">
    <defs>
     <path id="m9f04afe304" d="M 352.712904 -243.72663  L 223.949949 -409.660249  L 352.712904 -372.489586  " style="stroke: #000000; stroke-opacity: 0.3" />
    </defs>
    <g>
     <use ns4:href="#m9f04afe304" x="0" y="600" style="fill: #ff0000; fill-opacity: 0.3; stroke: #000000; stroke-opacity: 0.3" />
    </g>
   </g>
   <g id="text_1">
    <g>
     <text style="font: 20px 'DejaVu Sans', 'Bitstream Vera Sans', 'Computer Modern Sans Serif', 'Lucida Grande', 'Verdana', 'Geneva', 'Lucid', 'Arial', 'Helvetica', 'Avant Garde', sans-serif; text-anchor: start" x="389.349821" y="49.234246" transform="rotate(-0 389.349821 49.234246)">$\beta$</text>
    </g>
   </g>
   <g id="polygon_3">
    <defs>
     <path id="m561d7a365e" d="M 298.237364 -70.70292  L 296.014439 -71.751462  L 293.79074 -72.799336  L 291.565375 -73.845767  L 289.337498 -74.890022  L 284.871024 -76.969248  L 280.388344 -79.034439  L 275.890082 -81.086136  L 271.376907 -83.124918  L 266.84861 -85.150604  L 262.304658 -87.162732  L 257.744544 -89.160864  L 253.167807 -91.144599  L 248.574031 -93.113579  L 243.962993 -95.067609  L 239.334499 -97.006522  L 234.688372 -98.930164  L 230.024492 -100.838432  L 225.342532 -102.731042  L 220.64108 -104.606771  L 215.918411 -106.464126  L 211.172801 -108.301613  L 206.402583 -110.117789  L 201.606197 -111.911303  L 196.783212 -113.681782  L 191.933508 -115.429122  L 187.057057 -117.153297  L 182.153753 -118.854218  L 177.223285 -120.531613  L 172.263899 -122.183965  L 167.273185 -123.809186  L 162.248779 -125.405229  L 157.188288 -126.970021  L 152.089809 -128.501915  L 146.954962 -130.002313  L 141.786795 -131.473855  L 136.588371 -132.919195  L 131.362724 -134.340957  L 126.11128 -135.740379  L 120.82433 -137.109053  L 115.487483 -138.434514  L 110.086063 -139.704053  L 104.605008 -140.904627  L 99.030521 -142.024286  L 93.359911 -143.060699  L 87.594635 -144.01513  L 81.72812 -144.881885  L 75.741664 -145.644768  L 69.614702 -146.285969  L 63.323237 -146.784708  L 60.081612 -146.951031  L 56.741084 -147.031701  L 53.257849 -146.988785  L 49.545465 -146.747419  L 46.367848 -146.374445  L 44.724711 -146.140908  L 42.979266 -145.818769  L 42.000131 -145.565543  L 41.434029 -145.37265  L 41.098879 -145.231085  L 40.622348 -144.967079  L 40.056763 -144.328585  L 39.996431 -144.127654  L 39.975995 -143.81259  L 40.08941 -143.31608  L 40.558445 -142.532815  L 41.189023 -141.889451  L 42.758727 -140.869931  L 44.987065 -139.826075  L 47.277522 -138.836017  L 49.626174 -137.896356  L 52.040484 -137.013557  L 56.992987 -135.355243  L 62.006851 -133.750071  L 67.070434 -132.187957  L 72.179752 -130.66545  L 77.328159 -129.176795  L 82.509247 -127.716442  L 87.71677 -126.278983  L 92.944767 -124.859255  L 98.18842 -123.453086  L 103.443268 -122.056612  L 108.704823 -120.665946  L 113.968593 -119.277198  L 119.230831 -117.887124  L 124.491211 -116.49544  L 129.750357 -115.102688  L 135.008878 -113.709395  L 140.267414 -112.316115  L 145.526456 -110.923272  L 150.786018 -109.53088  L 156.045892 -108.138759  L 161.305945 -106.746792  L 166.565998 -105.354825  L 171.825902 -103.96273  L 177.085672 -102.570518  L 182.345353 -101.178229  L 187.605004 -99.785915  L 192.864641 -98.393587  L 198.124322 -97.001299  L 203.384032 -95.609036  L 208.643758 -94.216785  L 213.903513 -92.824561  L 219.163254 -91.432324  L 224.422994 -90.040086  L 229.68272 -88.647836  L 234.942446 -87.255586  L 240.202171 -85.863336  L 245.461897 -84.471086  L 250.721623 -83.078836  L 255.981348 -81.686586  L 261.241074 -80.294335  L 266.5008 -78.902085  L 271.760525 -77.509835  L 277.020251 -76.117585  L 282.279976 -74.725335  L 287.539702 -73.333085  L 290.169557 -72.636953  L 292.799413 -71.940822  L 295.429283 -71.244703  L 298.059153 -70.548584  " style="stroke: #000000; stroke-opacity: 0.8" />
    </defs>
    <g>
     <use ns4:href="#m561d7a365e" x="0" y="600" style="fill-opacity: 0.1; stroke: #000000; stroke-opacity: 0.8" />
    </g>
   </g>
   <g id="polygon_1">
    <defs>
     <path id="m0288157485" d="M 159.425454 -282.355517  L 236.683227 -234.300528  L 511.212391 -438.329287  L 356.696844 -482.934083  " style="stroke: #000000; stroke-opacity: 0.5" />
    </defs>
    <g>
     <use ns4:href="#m0288157485" x="0" y="600" style="fill: #008000; fill-opacity: 0.5; stroke: #000000; stroke-opacity: 0.5" />
    </g>
   </g>
   <g id="vector_1" marker-end="url(#Arrow1Mend-k:k)">
    <path d="M 105.003826 473.618253  L 493.183061 298.564209  " style="fill: none; stroke: #000000; stroke-width: 3" />
   </g>
   <g id="vector_5" marker-end="url(#Arrow1Mend-r:r)">
    <path d="M 105.003826 473.618253  L 497.808198 47.450455  " style="fill: none; stroke: #ff0000; stroke-width: 3" />
   </g>
   <g id="vector_2" marker-end="url(#Arrow1Lend-r:r)">
    <path d="M 105.003826 473.618253  L 472.007025 424.449147  " style="fill: none; stroke: #ff0000; opacity: 0.2; stroke-width: 3" />
   </g>
   <g id="vector_3" marker-end="url(#Arrow1Mend-b:b)">
    <path d="M 105.003826 473.618253  L 105.003826 338.880533  " style="fill: none; stroke: #0000ff; opacity: 0.2; stroke-width: 3" />
   </g>
   <g id="point_5" marker-start="url(#Point1M-g:g:w)">
    <path d="M 159.425454 317.644483  L 159.425454 317.644483  " style="fill: none; stroke: #008000; stroke-width: 3" />
   </g>
   <g id="point_6" marker-start="url(#Point1M-g:g:w)">
    <path d="M 236.683227 365.699472  L 236.683227 365.699472  " style="fill: none; stroke: #008000; stroke-width: 3" />
   </g>
   <g id="point_7" marker-start="url(#Point1M-g:g:w)">
    <path d="M 511.212391 161.670713  L 511.212391 161.670713  " style="fill: none; stroke: #008000; stroke-width: 3" />
   </g>
   <g id="point_8" marker-start="url(#Point1M-g:g:w)">
    <path d="M 356.696844 117.065917  L 356.696844 117.065917  " style="fill: none; stroke: #008000; stroke-width: 3" />
   </g>
   <g id="point_2" marker-start="url(#Point1M-r:r:w)">
    <path d="M 308.108108 446.407439  L 308.108108 446.407439  " style="fill: none; stroke: #ff0000; stroke-width: 3" />
   </g>
   <g id="arcmeasure_1" marker-end="url(#Arrow1Mend-k:k)">
    <path d="M 287.102144 526.185509  L 288.909259 524.588476  L 290.660356 522.975917  L 292.354899 521.348323  L 293.992374 519.70619  L 295.572281 518.050018  L 297.094139 516.380312  L 298.557484 514.69758  L 299.961871 513.002335  L 301.306872 511.295093  L 302.592077 509.576374  L 303.817095 507.846702  L 304.981553 506.106604  L 306.085095 504.35661  L 307.127386 502.597252  L 308.108108 500.829067  L 309.026963 499.052593  L 309.88367 497.268372  L 310.677969 495.476947  L 311.409617 493.678864  L 312.078392 491.874669  L 312.684091 490.064914  L 313.226528 488.250149  L 313.705538 486.430927  L 314.120976 484.607802  L 314.472714 482.781329  L 314.760647 480.952066  L 314.984685 479.120568  L 315.144761 477.287394  L 315.240826 475.453103  L 315.272851 473.618253  L 315.240826 471.783403  L 315.144761 469.949111  L 314.984685 468.115938  L 314.760647 466.28444  L 314.472714 464.455176  L 314.120976 462.628704  L 313.705538 460.805579  L 313.226528 458.986357  L 313.077583 458.620312  " style="fill: none; stroke: #000000; stroke-width: 2" />
   </g>
   <g id="arcmeasure_2" marker-end="url(#Arrow1Mend-r:r)">
    <path d="M 105.003826 216.092342  L 105.026471 220.567177  L 105.094399 225.001427  L 105.20759 229.393741  L 105.366009 233.742781  L 105.569608 238.047222  L 105.818325 242.305753  L 106.112083 246.517076  L 106.450795 250.679909  L 106.834356 254.792984  L 107.262649 258.855048  L 107.735545 262.864864  L 108.252898 266.82121  L 108.814552 270.722881  L 109.420336 274.568688  L 110.070064 278.357461  L 110.763539 282.088044  L 111.50055 285.759303  L 112.280873 289.370117  L 113.104268 292.919388  L 113.970487 296.406034  L 114.879264 299.828994  L 115.830323 303.187224  L 116.823375 306.479702  L 117.858116 309.705424  L 118.934232 312.863408  L 120.051395 315.952693  L 121.209265 318.972337  L 122.407488 321.92142  L 123.6457 324.799044  L 124.923524 327.604332  L 126.24057 330.336431  L 127.596438 332.994507  L 128.990714 335.577751  L 130.422973 338.085376  L 131.89278 340.516619  L 133.399686 342.870738  L 134.943232 345.147017  L 136.522949 347.344762  L 138.138355 349.463304  L 139.493208 350.896213  " style="fill: none; stroke: #ff0000; stroke-width: 2" />
   </g>
   <g id="point_1" marker-start="url(#CoG-r:r:w)">
    <path d="M 105.003826 473.618253  L 105.003826 473.618253  " style="fill: none; stroke: #ff0000; stroke-width: 4.5" />
   </g>
  </g>
 </g>
 <defs>
  </defs>
</svg>