<?xml version="1.0" encoding="UTF-8"?>
<svg width="450pt" height="300pt" version="1.1" viewBox="0 0 450 300" xmlns="http://www.w3.org/2000/svg" xmlns:xlink="http://www.w3.org/1999/xlink">
<defs>
<g id="t">
<path d="m5.6406-9.0625c-1.0938 0-1.9609 0.36719-2.5938 1.0938-0.63672 0.73047-0.95312 1.7266-0.95312 2.9844 0 1.3047 0.30078 2.3125 0.90625 3.0312 0.61328 0.71094 1.4883 1.0625 2.625 1.0625 0.6875 0 1.4766-0.125 2.375-0.375v1.0156c-0.6875 0.25781-1.543 0.39062-2.5625 0.39062-1.4609 0-2.5898-0.44141-3.3906-1.3281-0.79297-0.89453-1.1875-2.1641-1.1875-3.8125 0-1.0195 0.1875-1.9141 0.5625-2.6875 0.38281-0.76953 0.9375-1.3633 1.6562-1.7812 0.72656-0.42578 1.582-0.64062 2.5625-0.64062 1.0508 0 1.9688 0.19531 2.75 0.57812l-0.5 1c-0.75-0.35156-1.5-0.53125-2.25-0.53125z"/>
</g>
<g id="c">
<path d="m2.3281 0h-1.125v-10.594h1.125z"/>
</g>
<g id="g">
<path d="m5.7969 0-0.23438-1.0625h-0.046875c-0.375 0.46875-0.75 0.78906-1.125 0.95312-0.36719 0.16406-0.82422 0.25-1.375 0.25-0.74219 0-1.3242-0.19141-1.75-0.57812-0.41797-0.38281-0.625-0.92578-0.625-1.625 0-1.5078 1.207-2.3008 3.625-2.375l1.2656-0.03125v-0.46875c0-0.58203-0.13281-1.0156-0.39062-1.2969-0.25-0.28125-0.65234-0.42188-1.2031-0.42188-0.625 0-1.3281 0.19531-2.1094 0.57812l-0.34375-0.875c0.36328-0.19531 0.76562-0.35156 1.2031-0.46875 0.4375-0.11328 0.875-0.17188 1.3125-0.17188 0.89453 0 1.5547 0.19922 1.9844 0.59375 0.42578 0.39844 0.64062 1.0312 0.64062 1.9062v5.0938zm-2.5625-0.79688c0.70703 0 1.2578-0.19141 1.6562-0.57812 0.40625-0.38281 0.60938-0.92578 0.60938-1.625v-0.67188l-1.1406 0.046875c-0.89844 0.03125-1.543 0.17188-1.9375 0.42188-0.39844 0.25-0.59375 0.63672-0.59375 1.1562 0 0.40625 0.11719 0.71875 0.35938 0.9375 0.25 0.21094 0.59766 0.3125 1.0469 0.3125z"/>
</g>
<g id="e">
<path d="m4.6094-7.6094c0.33203 0 0.62891 0.03125 0.89062 0.09375l-0.15625 1.0469c-0.3125-0.070312-0.58594-0.10938-0.8125-0.10938-0.60547 0-1.125 0.24609-1.5625 0.73438-0.42969 0.49219-0.64062 1.1055-0.64062 1.8438v4h-1.125v-7.4688h0.92188l0.14062 1.3906h0.046875c0.28125-0.48828 0.61328-0.86328 1-1.125 0.39453-0.26953 0.82812-0.40625 1.2969-0.40625z"/>
</g>
<g id="i">
<path d="m2.3125-3.8281c0.19531-0.26953 0.49219-0.62891 0.89062-1.0781l2.4219-2.5625h1.3438l-3.0312 3.1875 3.2344 4.2812h-1.3594l-2.6406-3.5312-0.85938 0.73438v2.7969h-1.1094v-10.594h1.1094v5.6094c0 0.25-0.015625 0.63672-0.046875 1.1562z"/>
</g>
<g id="p">
<path d="m3.9062-4.9844 2.6562-4.9688h1.25l-3.3281 6.0938v3.8594h-1.1719v-3.8125l-3.3125-6.1406h1.2656z"/>
</g>
<g id="a">
<path d="m2.3281 0h-1.125v-7.4688h1.125zm-1.2188-9.4844c0-0.25781 0.0625-0.44531 0.1875-0.5625 0.125-0.125 0.28125-0.1875 0.46875-0.1875s0.34375 0.0625 0.46875 0.1875c0.13281 0.11719 0.20312 0.30469 0.20312 0.5625 0 0.25-0.070312 0.4375-0.20312 0.5625-0.125 0.125-0.28125 0.1875-0.46875 0.1875s-0.34375-0.0625-0.46875-0.1875-0.1875-0.3125-0.1875-0.5625z"/>
</g>
<g id="d">
<path d="m4.5625-6.5938h-1.9062v6.5938h-1.125v-6.5938h-1.3281v-0.5l1.3281-0.42188v-0.40625c0-1.832 0.80078-2.75 2.4062-2.75 0.39453 0 0.85938 0.078125 1.3906 0.23438l-0.29688 0.90625c-0.4375-0.14453-0.80859-0.21875-1.1094-0.21875-0.42969 0-0.74609 0.14844-0.95312 0.4375-0.21094 0.28125-0.3125 0.73438-0.3125 1.3594v0.48438h1.9062z"/>
</g>
<g id="h">
<path d="m7.6406-3.7344c0 1.2109-0.30859 2.1562-0.92188 2.8438-0.60547 0.6875-1.4492 1.0312-2.5312 1.0312-0.66797 0-1.2617-0.15625-1.7812-0.46875-0.52344-0.3125-0.92188-0.75781-1.2031-1.3438-0.28125-0.59375-0.42188-1.2812-0.42188-2.0625 0-1.2188 0.30078-2.1641 0.90625-2.8438 0.61328-0.6875 1.4609-1.0312 2.5469-1.0312 1.0391 0 1.8672 0.35156 2.4844 1.0469 0.61328 0.69922 0.92188 1.6406 0.92188 2.8281zm-5.6875 0c0 0.94922 0.1875 1.6719 0.5625 2.1719 0.38281 0.5 0.94531 0.75 1.6875 0.75 0.75 0 1.3125-0.24219 1.6875-0.73438 0.38281-0.5 0.57812-1.2266 0.57812-2.1875 0-0.95703-0.19531-1.6797-0.57812-2.1719-0.375-0.48828-0.9375-0.73438-1.6875-0.73438-0.74219 0-1.3047 0.24609-1.6875 0.73438-0.375 0.48047-0.5625 1.2031-0.5625 2.1719z"/>
</g>
<g id="j">
<path d="m4.4375 0h-1.1562v-8.9375h-3.1562v-1.0156h7.4688v1.0156h-3.1562z"/>
</g>
<g id="o">
<path d="m8.8906-9.9531v6.4375c0 1.1367-0.34375 2.0312-1.0312 2.6875-0.6875 0.64844-1.6328 0.96875-2.8281 0.96875-1.1992 0-2.125-0.32812-2.7812-0.98438s-0.98438-1.5547-0.98438-2.7031v-6.4062h1.1562v6.4844c0 0.83594 0.22266 1.4766 0.67188 1.9219 0.45703 0.44922 1.1289 0.67188 2.0156 0.67188 0.84375 0 1.4883-0.22266 1.9375-0.67188 0.45703-0.44531 0.6875-1.0859 0.6875-1.9219v-6.4844z"/>
</g>
<g id="n">
<path d="m9.3125-5.0781c0 1.6484-0.44922 2.9062-1.3438 3.7812-0.88672 0.86719-2.168 1.2969-3.8438 1.2969h-2.75v-9.9531h3.0469c1.5508 0 2.7539 0.42969 3.6094 1.2812 0.85156 0.85547 1.2812 2.0547 1.2812 3.5938zm-1.2188 0.046875c0-1.3008-0.32812-2.2812-0.98438-2.9375-0.64844-0.65625-1.6172-0.98438-2.9062-0.98438h-1.6719v7.9531h1.4062c1.3828 0 2.4219-0.33594 3.1094-1.0156 0.69531-0.67578 1.0469-1.6797 1.0469-3.0156z"/>
</g>
<g id="b">
<path d="m4.3594 0.14062c-1.1055 0-1.9805-0.33203-2.625-1-0.63672-0.67578-0.95312-1.6133-0.95312-2.8125 0-1.207 0.29688-2.1641 0.89062-2.875 0.59375-0.70703 1.3906-1.0625 2.3906-1.0625 0.9375 0 1.6758 0.3125 2.2188 0.9375 0.53906 0.61719 0.8125 1.4219 0.8125 2.4219v0.71875h-5.1406c0.019531 0.875 0.23828 1.543 0.65625 2 0.42578 0.44922 1.0195 0.67188 1.7812 0.67188 0.80078 0 1.5977-0.16406 2.3906-0.5v1.0156c-0.40625 0.16797-0.78906 0.28906-1.1406 0.35938-0.35547 0.082031-0.78125 0.125-1.2812 0.125zm-0.3125-6.7969c-0.60547 0-1.0859 0.19922-1.4375 0.59375-0.35547 0.38672-0.5625 0.92188-0.625 1.6094h3.9062c0-0.70703-0.16406-1.25-0.48438-1.625-0.3125-0.38281-0.76562-0.57812-1.3594-0.57812z"/>
</g>
<g id="f">
<path d="m3.6094-0.79688c0.19531 0 0.39062-0.015625 0.57812-0.046875s0.33594-0.0625 0.45312-0.09375v0.875c-0.125 0.054688-0.30859 0.097656-0.54688 0.14062-0.24219 0.039063-0.45312 0.0625-0.64062 0.0625-1.4492 0-2.1719-0.75781-2.1719-2.2812v-4.4531h-1.0625v-0.54688l1.0625-0.46875 0.46875-1.5938h0.65625v1.7344h2.1719v0.875h-2.1719v4.4062c0 0.44922 0.10156 0.79297 0.3125 1.0312 0.21875 0.24219 0.51562 0.35938 0.89062 0.35938z"/>
</g>
<g id="m">
<path d="m7.0625-9.9531h1.25l-3.5938 9.9531h-1.1562l-3.5625-9.9531h1.2188l2.2969 6.4375c0.25781 0.74219 0.46875 1.4609 0.625 2.1562 0.16406-0.72656 0.37891-1.4609 0.64062-2.2031z"/>
</g>
<g id="l">
<path d="m6.8594-7.6094c0 0.63672-0.18359 1.1562-0.54688 1.5625-0.35547 0.39844-0.85938 0.66406-1.5156 0.79688v0.0625c0.80078 0.09375 1.3945 0.35156 1.7812 0.76562 0.38281 0.40625 0.57812 0.9375 0.57812 1.5938 0 0.96094-0.32812 1.6953-0.98438 2.2031-0.65625 0.51172-1.5938 0.76562-2.8125 0.76562-0.52344 0-1-0.042969-1.4375-0.125s-0.86719-0.22266-1.2812-0.42188v-1.0781c0.42578 0.21875 0.88281 0.38672 1.375 0.5 0.48828 0.10547 0.95312 0.15625 1.3906 0.15625 1.7188 0 2.5781-0.67188 2.5781-2.0156 0-1.207-0.94922-1.8125-2.8438-1.8125h-0.98438v-0.98438h1c0.76953 0 1.3828-0.16406 1.8438-0.5 0.45703-0.34375 0.6875-0.82031 0.6875-1.4375 0-0.48828-0.16797-0.86719-0.5-1.1406-0.33594-0.28125-0.78906-0.42188-1.3594-0.42188-0.4375 0-0.85156 0.0625-1.2344 0.1875-0.38672 0.11719-0.82812 0.32812-1.3281 0.64062l-0.57812-0.75c0.41406-0.32031 0.89062-0.57812 1.4219-0.76562s1.0938-0.28125 1.6875-0.28125c0.96875 0 1.7188 0.22656 2.25 0.67188 0.53906 0.4375 0.8125 1.0469 0.8125 1.8281z"/>
</g>
<g id="s">
<path d="m4.1875 0.14062c-1.0859 0-1.9219-0.33203-2.5156-1-0.59375-0.66406-0.89062-1.6094-0.89062-2.8281 0-1.25 0.30078-2.2109 0.90625-2.8906 0.60156-0.6875 1.4609-1.0312 2.5781-1.0312 0.35156 0 0.70703 0.042969 1.0625 0.125 0.36328 0.074219 0.64453 0.16406 0.84375 0.26562l-0.34375 0.96875c-0.25-0.10156-0.52344-0.1875-0.8125-0.25-0.29297-0.070312-0.55469-0.10938-0.78125-0.10938-1.5234 0-2.2812 0.96875-2.2812 2.9062 0 0.91797 0.17969 1.6211 0.54688 2.1094 0.375 0.49219 0.92578 0.73438 1.6562 0.73438 0.625 0 1.2656-0.12891 1.9219-0.39062v1c-0.5 0.25781-1.1328 0.39062-1.8906 0.39062z"/>
</g>
<g id="k">
<path d="m6.3125 0v-4.8281c0-0.61328-0.14062-1.0664-0.42188-1.3594-0.27344-0.30078-0.70312-0.45312-1.2969-0.45312-0.78125 0-1.3555 0.21484-1.7188 0.64062-0.36719 0.41797-0.54688 1.1094-0.54688 2.0781v3.9219h-1.125v-7.4688h0.92188l0.17188 1.0312h0.0625c0.22656-0.375 0.55078-0.66016 0.96875-0.85938 0.41406-0.20703 0.88281-0.3125 1.4062-0.3125 0.89453 0 1.5664 0.21875 2.0156 0.65625 0.45703 0.4375 0.6875 1.1328 0.6875 2.0781v4.875z"/>
</g>
<g id="r">
<path d="m4.6719 0.14062c-0.49219 0-0.9375-0.089844-1.3438-0.26562-0.39844-0.1875-0.73047-0.46094-1-0.82812h-0.078125c0.050781 0.42969 0.078125 0.83984 0.078125 1.2344v3.0781h-1.125v-10.828h0.92188l0.15625 1.0312h0.046875c0.28906-0.41406 0.62891-0.71094 1.0156-0.89062 0.38281-0.1875 0.82812-0.28125 1.3281-0.28125 0.98828 0 1.7539 0.33984 2.2969 1.0156 0.53906 0.67969 0.8125 1.6328 0.8125 2.8594 0 1.2188-0.27734 2.1719-0.82812 2.8594-0.55469 0.67969-1.3125 1.0156-2.2812 1.0156zm-0.15625-6.7812c-0.77344 0-1.3281 0.21484-1.6719 0.64062-0.33594 0.41797-0.50781 1.0859-0.51562 2v0.26562c0 1.043 0.17188 1.793 0.51562 2.25 0.35156 0.44922 0.91406 0.67188 1.6875 0.67188 0.64453 0 1.1484-0.25781 1.5156-0.78125 0.375-0.51953 0.5625-1.2383 0.5625-2.1562 0-0.9375-0.1875-1.6484-0.5625-2.1406-0.36719-0.5-0.875-0.75-1.5312-0.75z"/>
</g>
<g id="q">
<path d="m10.719 0v-4.8594c0-0.59375-0.13281-1.0352-0.39062-1.3281-0.25-0.30078-0.64062-0.45312-1.1719-0.45312-0.71094 0-1.2344 0.20312-1.5781 0.60938-0.33594 0.39844-0.5 1.0156-0.5 1.8594v4.1719h-1.125v-4.8594c0-0.59375-0.13281-1.0352-0.39062-1.3281-0.25-0.30078-0.64844-0.45312-1.1875-0.45312-0.71094 0-1.2305 0.21484-1.5625 0.64062-0.32422 0.41797-0.48438 1.1094-0.48438 2.0781v3.9219h-1.125v-7.4688h0.92188l0.17188 1.0312h0.0625c0.20703-0.36328 0.50391-0.64844 0.89062-0.85938 0.39453-0.20703 0.83203-0.3125 1.3125-0.3125 1.1641 0 1.9297 0.42188 2.2969 1.2656h0.046875c0.22656-0.38281 0.55078-0.69141 0.96875-0.92188 0.42578-0.22656 0.90625-0.34375 1.4375-0.34375 0.85156 0 1.4883 0.21875 1.9062 0.65625 0.41406 0.4375 0.625 1.1328 0.625 2.0781v4.875z"/>
</g>
</defs>
<rect x="-45" y="-30" width="540" height="360" fill="#fff"/>
<path d="m75.004-0.019531h300.02v300.02h-300.02z" fill="#fff"/>
<path transform="matrix(1.0001 0 0 1.0001 -.00032 -.01832)" d="m407.47 252.78-3.5662-0.84761-3.5701-0.8437-3.5662-0.83979-3.5701-0.83198-7.1363-1.6444-7.1363-1.6015-7.1363-1.5663-7.1402-1.5273-7.1324-1.4921-7.1402-1.4569-7.1363-1.4179-7.1363-1.3749-7.1363-1.3398-7.1363-1.2929-7.1363-1.2538-7.1363-1.2109-7.1363-1.1679-7.1402-1.121-7.1363-1.0781-7.1363-1.0273-7.1363-0.9726-7.1363-0.91401-7.1363-0.8476-7.1363-0.78511-7.1363-0.72261-7.1402-0.66012-7.1324-0.59371-7.1402-0.52731-7.1363-0.457-7.1363-0.38279-7.1363-0.30467-7.1363-0.21483-7.1363-0.12499-7.1363-0.03906-7.1363 0.042966-7.1402 0.11327-7.1363 0.18358-7.1363 0.24217-7.1363 0.3242-7.1363 0.44919-7.1363 0.60153-7.1363 0.79292-7.1363 1.0195-7.1402 1.246-7.1324 1.4765-7.1402 1.7186-7.1363 2.0038-7.1363 2.3436-7.1363 2.7381-3.5701 1.6015-3.5662 1.8358-3.5701 2.1796-3.5662 2.7264-2.8553 2.6834-1.4296 1.4726-1.4257 1.7147-0.7148 1.1132-0.35545 0.74214-0.17968 0.49606-0.17577 0.83198 0.17577 1.6679 0.17968 0.4531 0.35545 0.66793 0.7148 0.96479 1.4257 1.3437 1.4296 0.96088 2.8553 1.1757 3.5662 0.83198 3.5701 0.68355 3.5662 0.54684 3.5701 0.38279 7.1363 0.47653 7.1363 0.32811 7.1363 0.21092 7.1402 0.097651 7.1324 0.003906 7.1402-0.074214 7.1363-0.13671 7.1363-0.18358 7.1363-0.22655 7.1363-0.24998 7.1363-0.26561 14.273-0.53903 7.1402-0.26561 7.1363-0.2578 7.1363-0.2617 7.1363-0.2578 35.685-1.3085 7.1324-0.26561 64.234-2.3553 7.1363-0.26561 64.231-2.3553 7.1363-0.26561 14.273-0.52341 3.5701-0.1289 3.5662-0.1328 3.5701-0.1289 3.5662-0.1328" fill-opacity=".1" stroke="#000" stroke-linejoin="round" stroke-opacity=".8" stroke-width="1.5"/>
<g>
<use x="182.668" y="295.819" xlink:href="#t"/>
<use x="191.468999" y="295.819" xlink:href="#c"/>
<use x="194.997767" y="295.819" xlink:href="#g"/>
<use x="202.752688" y="295.819" xlink:href="#e"/>
<use x="208.44335" y="295.819" xlink:href="#i"/>
<use x="219.378346" y="295.819" xlink:href="#p"/>
<use x="230.81546" y="295.819" xlink:href="#g"/>
<use x="238.570382" y="295.819" xlink:href="#a"/>
<use x="242.09915" y="295.819" xlink:href="#e"/>
<use x="247.789811" y="295.819" xlink:href="#d"/>
<use x="252.518082" y="295.819" xlink:href="#h"/>
<use x="260.942492" y="295.819" xlink:href="#a"/>
<use x="264.47126" y="295.819" xlink:href="#c"/>
<use x="139.842" y="199.475" xlink:href="#j"/>
<use x="147.555078" y="199.475" xlink:href="#o"/>
<use x="161.321458" y="199.475" xlink:href="#n"/>
<use x="171.489331" y="199.475" xlink:href="#b"/>
<use x="179.313991" y="199.475" xlink:href="#c"/>
<use x="182.842759" y="199.475" xlink:href="#d"/>
<use x="187.571029" y="199.475" xlink:href="#f"/>
<use x="196.120969" y="199.475" xlink:href="#m"/>
<use x="204.419851" y="199.475" xlink:href="#l"/>
<use x="216.024337" y="199.475" xlink:href="#i"/>
<use x="223.34688" y="199.475" xlink:href="#a"/>
<use x="226.875648" y="199.475" xlink:href="#f"/>
<use x="231.799186" y="199.475" xlink:href="#b"/>
<use x="243.250248" y="199.475" xlink:href="#s"/>
<use x="249.889353" y="199.475" xlink:href="#b"/>
<use x="257.714013" y="199.475" xlink:href="#k"/>
<use x="266.2779" y="199.475" xlink:href="#f"/>
<use x="271.201439" y="199.475" xlink:href="#b"/>
<use x="279.026098" y="199.475" xlink:href="#e"/>
<use x="288.329214" y="199.475" xlink:href="#g"/>
<use x="296.084135" y="199.475" xlink:href="#a"/>
<use x="299.612904" y="199.475" xlink:href="#e"/>
<use x="305.303565" y="199.475" xlink:href="#d"/>
<use x="310.031835" y="199.475" xlink:href="#h"/>
<use x="318.456246" y="199.475" xlink:href="#a"/>
<use x="321.985014" y="199.475" xlink:href="#c"/>
<use x="146.983" y="131.676" xlink:href="#j"/>
<use x="154.696078" y="131.676" xlink:href="#o"/>
<use x="168.462458" y="131.676" xlink:href="#n"/>
<use x="178.630331" y="131.676" xlink:href="#b"/>
<use x="186.454991" y="131.676" xlink:href="#c"/>
<use x="189.983759" y="131.676" xlink:href="#d"/>
<use x="194.712029" y="131.676" xlink:href="#f"/>
<use x="203.261969" y="131.676" xlink:href="#m"/>
<use x="211.560851" y="131.676" xlink:href="#l"/>
<use x="223.165337" y="131.676" xlink:href="#i"/>
<use x="230.48788" y="131.676" xlink:href="#a"/>
<use x="234.016648" y="131.676" xlink:href="#f"/>
<use x="238.940186" y="131.676" xlink:href="#b"/>
<use x="250.391248" y="131.676" xlink:href="#r"/>
<use x="258.941188" y="131.676" xlink:href="#c"/>
<use x="262.469956" y="131.676" xlink:href="#g"/>
<use x="270.224877" y="131.676" xlink:href="#k"/>
<use x="278.788765" y="131.676" xlink:href="#d"/>
<use x="283.517035" y="131.676" xlink:href="#h"/>
<use x="291.941446" y="131.676" xlink:href="#e"/>
<use x="297.632108" y="131.676" xlink:href="#q"/>
</g>
<path transform="matrix(1.0001 0 0 1.0001 -.00032 -.01832)" d="m52.509 174.72 1.0117-1.5038 1.1991-1.3593 1.3671-1.1913 1.5116-0.99994 1.6327-0.80073 1.7186-0.57809 1.785-0.35154 1.8124-0.11718 1.8124 0.12499 1.785 0.35154 1.7186 0.5859 1.6288 0.80073 1.5077 1.0078 1.3632 1.1952 1.1952 1.3632 1.0078 1.5038 0.80073 1.6249 0.582 1.7147 0.35154 1.7733 0.11718 1.8046-0.12109 1.8046-0.35935 1.7733-0.5859 1.7147-0.80464 1.621-1.0117 1.5038-1.2031 1.3593-1.3671 1.1874-1.5116 1.0038-1.6288 0.80073-1.7226 0.57809-1.785 0.34764-1.8124 0.11718-1.8124-0.12109-1.7811-0.35545-1.7186-0.582-1.6288-0.80464-1.5116-1.0078-1.3632-1.1952-1.1952-1.3593-1.0078-1.5038-0.80073-1.6249-0.582-1.7147-0.35154-1.7733-0.11327-1.8085 0.11718-1.8046 0.35935-1.7733 0.5859-1.7108 0.062496-0.16796 0.63668-1.6601 0.63277-1.6601 0.32029-0.83979 0.8437-1.5624 0.8476-1.5663 0.39451-0.73042 1.3046-1.3124 1.2616-1.2695 1.2655-1.2655 1.2616-1.2695 0.69918-0.69918 8.562-5.5114 11.3-4.5114 13.718-2.9373 13.667-1.2812 5.3551-0.50388 13.71 0.63668 13.71 0.64059 12.796 0.59371 2.8787 0.13671 13.62 1.7382 27.229 3.4842 1.6132 0.20702 13.616 1.7382 13.612 1.7421 13.616 1.7382 12.839 1.6444 13.612 1.7382 13.616 1.7421 13.612 1.7382 12.839 1.6444 13.616 1.7382 27.229 3.4842 12.839 1.6366 27.225 3.4842 19.807 2.5311-11.249-1.4374-8.5581-1.0937-27.225-3.4842-12.839-1.6366-13.616-1.7421-13.612-1.7421-13.616-1.7382-12.839-1.6444-13.612-1.7382-13.616-1.7421-13.612-1.7382-12.839-1.6444-13.616-1.7382-13.612-1.7421-13.616-1.7382-1.6132-0.20702-13.616-1.7421-13.612-1.7421-13.62-1.7382-2.8787-0.13671-12.796-0.59371-13.71-0.64059-13.71-0.63668-5.3551 0.50388-13.667 1.2812-13.718 2.9373-11.3 4.5114-8.562 5.5114-0.69918 0.69918-1.2616 1.2695-1.2655 1.2655-1.2616 1.2695-1.3046 1.3124-0.39451 0.73042-0.8476 1.5663-0.8437 1.5624-0.32029 0.83979-0.63277 1.6601-0.63668 1.6601-0.062496 0.16796" fill-opacity=".1" stroke="#000" stroke-linejoin="round" stroke-opacity=".8" stroke-width="1.5"/>
<path transform="matrix(1.0001 0 0 1.0001 -.00032 -.01832)" d="m82.628 73.787 0.32029 13.366-0.32029-13.366 0.32029-11.937 0.46872-8.8549 0.94135-9.7377 1.4452-5.2458 1.0078-3.656 3.8748-2.8709 26.041-4.8669-1.7811 12.601 3.9021 64.492-3.9021-64.492 1.7811-12.601 19.62-3.1209 23.096-1.5937-2.2108 10.644 3.0115 75.062-3.0115-75.062 2.2108-10.644 21.948-2.0585 23.655-0.58981 0.33201 89.42-0.33201-89.42 24.01-0.37498 24.006 0.37498-0.33201 89.42 0.33201-89.42 23.655 0.58981 21.944 2.0585 2.2147 10.644-3.0154 75.062 3.0154-75.062-2.2147-10.644 23.1 1.5937 19.62 3.1209 1.7811 12.601-3.906 64.492 3.906-64.492-1.7811-12.601 16.542 2.6131 9.4994 2.2538 3.8709 2.8709 1.0078 3.656-3.2771 54.684 3.1912-53.399 1.5351 3.9607 0.94135 9.7377 0.46482 8.8549 0.3242 11.937-0.32029 13.366 0.32029-13.366" fill="none" stroke="#000" stroke-linejoin="round" stroke-width="7.5"/>
<path transform="matrix(1.0001 0 0 1.0001 -.00032 -.01832)" d="m82.948 87.154-0.32029-13.366 0.32029-11.937 0.46872-8.8549 0.94135-9.7377 2.453-8.9018 3.8748-2.8709 9.4994-2.2538 16.022-2.7928 20.139-2.9412 21.69-1.996 23.35-1.6562 23.397-0.77339 24.272-0.1914 24.268 0.1914 23.397 0.77339 23.346 1.6562 21.694 1.996 20.139 2.9412 16.022 2.7928 9.4994 2.2538 3.8709 2.8709 2.4569 8.9018 0.94135 9.7377 0.46482 8.8549 0.3242 11.937-0.32029 13.366-6.1403 5.484-12.366 5.1013-6.1364 2.0038-11.171 3.7771-13.698-0.10156-11.409 1.2226-15.921 2.6366-17.097-0.34373-10.41 0.15624-18.061 1.4921-15.448-0.82808-8.2456 0.023436-8.2495-0.023436-15.452 0.82808-18.058-1.4921-10.41-0.15624-17.104 0.34373-15.913-2.6366-11.413-1.2226-13.698 0.10156-11.167-3.7771-6.1442-2.0038-12.366-5.1013-6.1324-5.484 1.4101-43.896" fill="#fff" fill-opacity=".5" stroke="#000" stroke-linejoin="round" stroke-opacity=".8" stroke-width="1.5"/>
</svg>
