<?xml version="1.0" encoding="UTF-8"?>
<svg width="450pt" height="450pt" version="1.1" viewBox="0 0 450 450" xmlns="http://www.w3.org/2000/svg" xmlns:xlink="http://www.w3.org/1999/xlink">
<defs>
<g id="v">
<path d="m5.6562-9.0938c0.75 0 1.5156 0.17188 2.2656 0.53125l0.5-1c-0.79688-0.39062-1.7031-0.57812-2.75-0.57812-0.98438 0-1.8438 0.21875-2.5625 0.625-0.73438 0.42188-1.2969 1.0312-1.6719 1.7969-0.39062 0.76562-0.57812 1.6719-0.57812 2.7031 0 1.6562 0.40625 2.9219 1.1875 3.8125 0.8125 0.89062 1.9531 1.3438 3.4219 1.3438 1.0156 0 1.8594-0.14062 2.5625-0.39062v-1.0156c-0.90625 0.25-1.6875 0.375-2.3906 0.375-1.1406 0-2.0156-0.35938-2.625-1.0781s-0.92188-1.7188-0.92188-3.0312c0-1.2656 0.32812-2.2812 0.95312-3 0.64062-0.73438 1.5-1.0938 2.6094-1.0938z"/>
</g>
<g id="c">
<path d="m2.3438 0v-10.641h-1.1406v10.641z"/>
</g>
<g id="g">
<path d="m5.8125 0h0.84375v-5.1094c0-0.875-0.21875-1.5156-0.65625-1.9062-0.42188-0.40625-1.0781-0.59375-1.9844-0.59375-0.4375 0-0.875 0.046875-1.3281 0.17188-0.4375 0.10938-0.82812 0.26562-1.2031 0.46875l0.34375 0.85938c0.79688-0.375 1.5-0.5625 2.125-0.5625 0.54688 0 0.95312 0.14062 1.2188 0.40625 0.25 0.29688 0.375 0.71875 0.375 1.3125v0.46875l-1.2812 0.03125c-2.4062 0.078125-3.625 0.875-3.625 2.375 0 0.70312 0.21875 1.25 0.625 1.6406 0.4375 0.375 1.0156 0.57812 1.75 0.57812 0.5625 0 1.0312-0.078125 1.4062-0.25 0.35938-0.17188 0.73438-0.48438 1.1094-0.95312h0.046875zm-2.5625-0.79688c-0.45312 0-0.79688-0.10938-1.0469-0.32812-0.25-0.20312-0.375-0.51562-0.375-0.9375 0-0.51562 0.20312-0.90625 0.60938-1.1562 0.39062-0.25 1.0469-0.39062 1.9375-0.42188l1.1406-0.046875v0.67188c0 0.70312-0.20312 1.25-0.60938 1.6406-0.39062 0.39062-0.95312 0.57812-1.6562 0.57812z"/>
</g>
<g id="e">
<path d="m4.625-7.625c-0.46875 0-0.90625 0.125-1.2969 0.39062s-0.71875 0.64062-1 1.125h-0.0625l-0.125-1.3906h-0.9375v7.5h1.1406v-4.0156c0-0.73438 0.21875-1.3438 0.64062-1.8438 0.4375-0.48438 0.95312-0.73438 1.5625-0.73438 0.23438 0 0.5 0.03125 0.8125 0.09375l0.15625-1.0469c-0.26562-0.0625-0.5625-0.078125-0.89062-0.078125z"/>
</g>
<g id="i">
<path d="m2.3281-3.8281h-0.0625c0.03125-0.53125 0.0625-0.92188 0.0625-1.1719v-5.6406h-1.125v10.641h1.125v-2.7969l0.84375-0.75 2.6562 3.5469h1.375l-3.25-4.2969 3.0312-3.2031h-1.3438l-2.4219 2.5781c-0.40625 0.4375-0.70312 0.8125-0.89062 1.0938z"/>
</g>
<g id="r">
<path d="m3.9219-5-2.6562-5h-1.2656l3.3281 6.1719v3.8281h1.1719v-3.875l3.3438-6.125h-1.2656z"/>
</g>
<g id="a">
<path d="m2.3438 0v-7.5h-1.1406v7.5zm-1.2344-9.5156c0 0.25 0.0625 0.4375 0.1875 0.5625s0.29688 0.1875 0.48438 0.1875 0.34375-0.0625 0.46875-0.1875 0.20312-0.3125 0.20312-0.5625c0-0.26562-0.078125-0.45312-0.20312-0.57812s-0.28125-0.1875-0.46875-0.1875-0.35938 0.0625-0.48438 0.1875-0.1875 0.3125-0.1875 0.57812z"/>
</g>
<g id="d">
<path d="m4.5781-6.6094v-0.89062h-1.9062v-0.48438c0-0.625 0.10938-1.0781 0.3125-1.375 0.20312-0.26562 0.51562-0.42188 0.95312-0.42188 0.29688 0 0.67188 0.078125 1.1094 0.21875l0.29688-0.90625c-0.53125-0.15625-1-0.25-1.3906-0.25-1.6094 0-2.4219 0.92188-2.4219 2.7656v0.42188l-1.3281 0.40625v0.51562h1.3281v6.6094h1.1406v-6.6094z"/>
</g>
<g id="h">
<path d="m7.6719-3.75c0-1.1875-0.3125-2.1406-0.9375-2.8281-0.60938-0.70312-1.4375-1.0469-2.4844-1.0469-1.0938 0-1.9375 0.34375-2.5469 1.0156-0.60938 0.6875-0.92188 1.625-0.92188 2.8594 0 0.78125 0.15625 1.4688 0.42188 2.0625 0.28125 0.59375 0.6875 1.0312 1.2031 1.3594 0.53125 0.3125 1.125 0.46875 1.7969 0.46875 1.0781 0 1.9219-0.34375 2.5469-1.0312 0.60938-0.6875 0.92188-1.6406 0.92188-2.8594zm-5.7031 0c0-0.96875 0.1875-1.7031 0.5625-2.1875s0.9375-0.73438 1.6875-0.73438 1.3125 0.25 1.7031 0.75c0.375 0.5 0.57812 1.2188 0.57812 2.1719s-0.20312 1.6875-0.57812 2.1875c-0.39062 0.5-0.95312 0.75-1.7031 0.75-0.73438 0-1.2969-0.25-1.6875-0.75-0.375-0.5-0.5625-1.2344-0.5625-2.1875z"/>
</g>
<g id="j">
<path d="m4.4531 0v-8.9688h3.1562v-1.0312h-7.4844v1.0312h3.1562v8.9688z"/>
</g>
<g id="o">
<path d="m8.9219-10h-1.1562v6.5156c0 0.84375-0.23438 1.4844-0.6875 1.9219-0.45312 0.45312-1.1094 0.6875-1.9531 0.6875-0.875 0-1.5469-0.23438-2-0.67188-0.46875-0.45312-0.6875-1.0938-0.6875-1.9219v-6.5312h-1.1719v6.4375c0 1.1562 0.32812 2.0625 0.98438 2.7188 0.67188 0.65625 1.5938 0.98438 2.7969 0.98438s2.1562-0.32812 2.8438-0.98438c0.6875-0.64062 1.0312-1.5469 1.0312-2.6875z"/>
</g>
<g id="n">
<path d="m9.3594-5.0938c0-1.5469-0.4375-2.75-1.2969-3.6094s-2.0781-1.2969-3.625-1.2969h-3.0625v10h2.7656c1.6875 0 2.9688-0.4375 3.875-1.3125 0.89062-0.875 1.3438-2.1406 1.3438-3.7812zm-1.2344 0.046875c0 1.3281-0.35938 2.3438-1.0469 3.0156-0.70312 0.6875-1.7344 1.0312-3.125 1.0312h-1.4219v-7.9844h1.6875c1.2969 0 2.2656 0.32812 2.9219 0.98438 0.65625 0.67188 0.98438 1.6406 0.98438 2.9531z"/>
</g>
<g id="b">
<path d="m4.375 0.14062c0.5 0 0.9375-0.046875 1.2812-0.10938 0.35938-0.09375 0.75-0.20312 1.1406-0.375v-1.0156c-0.78125 0.32812-1.5781 0.5-2.3906 0.5-0.76562 0-1.3594-0.21875-1.7812-0.67188-0.42188-0.46875-0.64062-1.125-0.65625-2.0156h5.1562v-0.71875c0-1-0.28125-1.8125-0.82812-2.4375s-1.2812-0.92188-2.2188-0.92188c-1.0156 0-1.8125 0.34375-2.3906 1.0625-0.60938 0.70312-0.90625 1.6719-0.90625 2.875s0.32812 2.1406 0.96875 2.8125 1.5156 1.0156 2.625 1.0156zm-0.3125-6.8125c0.59375 0 1.0469 0.1875 1.3594 0.5625 0.32812 0.375 0.48438 0.92188 0.48438 1.6406h-3.9219c0.0625-0.6875 0.28125-1.2344 0.64062-1.625s0.82812-0.57812 1.4375-0.57812z"/>
</g>
<g id="f">
<path d="m3.625-0.79688c-0.375 0-0.67188-0.125-0.89062-0.35938-0.20312-0.25-0.3125-0.59375-0.3125-1.0469v-4.4062h2.1719v-0.89062h-2.1719v-1.7344h-0.65625l-0.48438 1.6094-1.0625 0.46875v0.54688h1.0625v4.4531c0 1.5312 0.73438 2.2969 2.1719 2.2969 0.20312 0 0.42188-0.03125 0.65625-0.0625s0.42188-0.078125 0.54688-0.14062v-0.875c-0.10938 0.03125-0.26562 0.0625-0.45312 0.09375s-0.375 0.046875-0.57812 0.046875z"/>
</g>
<g id="m">
<path d="m7.0781-10-2.2812 6.4375c-0.26562 0.71875-0.46875 1.4688-0.64062 2.2031-0.15625-0.70312-0.35938-1.4219-0.625-2.1719l-2.2969-6.4688h-1.2344l3.5781 10h1.1562l3.5938-10z"/>
</g>
<g id="l">
<path d="m6.875-7.6406c0-0.78125-0.26562-1.3906-0.79688-1.8281-0.54688-0.4375-1.2969-0.67188-2.2656-0.67188-0.59375 0-1.1562 0.09375-1.6875 0.28125-0.54688 0.17188-1.0156 0.4375-1.4219 0.76562l0.5625 0.76562c0.5-0.32812 0.9375-0.54688 1.3281-0.65625 0.39062-0.125 0.79688-0.1875 1.2344-0.1875 0.57812 0 1.0469 0.14062 1.375 0.42188s0.5 0.65625 0.5 1.1406c0 0.60938-0.23438 1.0938-0.6875 1.4375s-1.0781 0.51562-1.8438 0.51562h-1v0.98438h0.98438c1.9062 0 2.8594 0.60938 2.8594 1.8125 0 1.3594-0.875 2.0312-2.5938 2.0312-0.4375 0-0.90625-0.046875-1.3906-0.17188-0.5-0.10938-0.95312-0.26562-1.3906-0.48438v1.0781c0.42188 0.20312 0.84375 0.34375 1.2812 0.42188s0.92188 0.125 1.4531 0.125c1.2188 0 2.1562-0.26562 2.8125-0.76562 0.67188-0.53125 1-1.25 1-2.2031 0-0.67188-0.1875-1.2031-0.57812-1.6094-0.39062-0.42188-0.98438-0.67188-1.7969-0.76562v-0.0625c0.65625-0.14062 1.1719-0.40625 1.5312-0.8125s0.53125-0.92188 0.53125-1.5625z"/>
</g>
<g id="u">
<path d="m4.2031 0.14062c0.75 0 1.3906-0.14062 1.8906-0.39062v-1.0156c-0.65625 0.28125-1.2969 0.40625-1.9219 0.40625-0.73438 0-1.2812-0.23438-1.6562-0.73438-0.375-0.48438-0.54688-1.2031-0.54688-2.125 0-1.9375 0.75-2.9062 2.2812-2.9062 0.21875 0 0.48438 0.03125 0.78125 0.10938 0.29688 0.0625 0.5625 0.14062 0.82812 0.23438l0.34375-0.95312c-0.20312-0.10938-0.48438-0.20312-0.84375-0.28125-0.375-0.078125-0.71875-0.10938-1.0938-0.10938-1.1094 0-1.9688 0.34375-2.5625 1.0156-0.60938 0.6875-0.92188 1.6562-0.92188 2.9062 0 1.2344 0.29688 2.1719 0.90625 2.8438 0.57812 0.65625 1.4219 1 2.5156 1z"/>
</g>
<g id="k">
<path d="m6.3281 0h1.1406v-4.8906c0-0.95312-0.23438-1.6562-0.6875-2.0781-0.45312-0.4375-1.1406-0.65625-2.0312-0.65625-0.51562 0-0.98438 0.09375-1.4062 0.29688s-0.75 0.48438-0.98438 0.85938h-0.046875l-0.1875-1.0312h-0.92188v7.5h1.1406v-3.9375c0-0.96875 0.17188-1.6719 0.54688-2.0938 0.35938-0.42188 0.9375-0.64062 1.7188-0.64062 0.59375 0 1.0312 0.15625 1.2969 0.45312 0.28125 0.3125 0.42188 0.76562 0.42188 1.375z"/>
</g>
<g id="t">
<path d="m4.6875 0.14062c0.98438 0 1.7344-0.34375 2.2812-1.0312 0.5625-0.67188 0.82812-1.625 0.82812-2.8594s-0.26562-2.1875-0.8125-2.8594c-0.53125-0.67188-1.2969-1.0156-2.2969-1.0156-0.5 0-0.9375 0.078125-1.3281 0.26562s-0.73438 0.48438-1.0156 0.89062h-0.0625l-0.15625-1.0312h-0.92188v10.859h1.1406v-3.0781c0-0.39062-0.03125-0.8125-0.09375-1.25h0.09375c0.26562 0.375 0.60938 0.65625 1 0.82812 0.42188 0.1875 0.85938 0.28125 1.3438 0.28125zm-0.15625-6.8125c0.65625 0 1.1719 0.26562 1.5469 0.75 0.35938 0.5 0.54688 1.2188 0.54688 2.1562 0 0.92188-0.1875 1.6406-0.54688 2.1719-0.375 0.51562-0.875 0.78125-1.5312 0.78125-0.76562 0-1.3281-0.23438-1.6875-0.67188-0.34375-0.46875-0.51562-1.2188-0.51562-2.2656v-0.25c0-0.92188 0.17188-1.6094 0.51562-2.0312s0.90625-0.64062 1.6719-0.64062z"/>
</g>
<g id="s">
<path d="m10.75 0h1.1406v-4.8906c0-0.95312-0.21875-1.6562-0.64062-2.0781-0.42188-0.4375-1.0469-0.65625-1.8906-0.65625-0.54688 0-1.0312 0.10938-1.4531 0.34375-0.42188 0.21875-0.75 0.53125-0.96875 0.92188h-0.0625c-0.35938-0.84375-1.125-1.2656-2.2969-1.2656-0.48438 0-0.90625 0.09375-1.3125 0.29688-0.375 0.21875-0.6875 0.5-0.90625 0.85938h-0.046875l-0.1875-1.0312h-0.92188v7.5h1.1406v-3.9375c0-0.96875 0.15625-1.6562 0.48438-2.0938 0.34375-0.42188 0.85938-0.64062 1.5625-0.64062 0.54688 0 0.95312 0.15625 1.2031 0.45312s0.375 0.75 0.375 1.3438v4.875h1.1406v-4.1875c0-0.84375 0.17188-1.4688 0.5-1.875 0.34375-0.39062 0.875-0.60938 1.5781-0.60938 0.53125 0 0.9375 0.15625 1.1875 0.45312s0.375 0.75 0.375 1.3438z"/>
</g>
<clipPath id="y">
<path d="m0 0h450v450h-450z"/>
</clipPath>
<clipPath id="x">
<rect width="450" height="450"/>
</clipPath>
<g id="q" clip-path="url(#x)">
<g clip-path="url(#y)">
<rect x="-99" y="-99" width="648" height="648" fill="#fff"/>
<rect x="-99" y="-99" width="648" height="648" fill="#fff"/>
</g>
<path transform="matrix(1.0001 0 0 1.0001 0 -.027)" d="m423.77 411.38-3.8513-0.9101-3.8552-0.91401-3.8552-0.9062-3.8513-0.89838-7.7066-1.7733-7.7105-1.7304-7.7066-1.6913-7.7066-1.6522-7.7066-1.6132-7.7105-1.5702-7.7066-1.5312-7.7105-1.4882-7.7066-1.4413-7.7066-1.3984-7.7066-1.3554-7.7066-1.3046-7.7105-1.2616-7.7066-1.2148-7.7105-1.164-7.7066-1.1093-7.7066-1.0507-7.7066-0.98432-7.7105-0.91791-7.7066-0.84761-7.7066-0.7812-7.7066-0.7109-7.7066-0.64059-7.7105-0.57028-7.7105-0.49606-7.7066-0.41404-7.7066-0.3281-7.7066-0.23046-7.7066-0.13671-7.7066-0.03906-7.7105 0.046872-7.7105 0.12109-7.7066 0.1953-7.7066 0.2617-7.7066 0.35545-7.7066 0.48044-7.7105 0.6523-7.7066 0.85542-7.7066 1.0976-7.7066 1.3515-7.7105 1.5897-7.7105 1.8593-7.7066 2.1639-7.7066 2.5311-7.7066 2.9569-3.8552 1.7265-3.8513 1.9843-3.8552 2.3553-3.8513 2.9451-3.0858 2.8983-1.539 1.5897-1.5429 1.8515-0.76948 1.2031-0.3906 0.80073-0.18749 0.53512-0.1953 0.90229 0.1953 1.7968 0.18749 0.49216 0.3906 0.71871 0.76948 1.0429 1.5429 1.453 1.539 1.0351 3.0858 1.2773 3.8513 0.89448 3.8552 0.73824 3.8513 0.5859 3.8552 0.41794 7.7066 0.51559 7.7066 0.35545 7.7066 0.22655 7.7105 0.10546 7.7105 0.003906 7.7066-0.082026 7.7066-0.14452 7.7066-0.19921 7.7105-0.24217 7.7066-0.26952 7.7066-0.28904 7.7066-0.29295 7.7066-0.28904 7.7105-0.28514 7.7105-0.28123 7.7066-0.28514 7.7066-0.27342 7.7066-0.28123 15.413-0.57028 7.7105-0.28514 15.417-0.56247 23.12-0.85542 7.7105-0.27733 7.7066-0.28123 15.413-0.57028 7.7105-0.28514 7.7066-0.27733 23.124-0.85542 7.7066-0.28123 7.7066-0.28514 7.7105-0.27733 7.7066-0.28904 7.7105-0.28123 7.7066-0.28514 15.413-0.55856 7.7105-0.28904 11.558-0.42185 7.7105-0.28514 3.8513-0.14062" fill-opacity=".1" stroke="#000" stroke-linejoin="round" stroke-opacity=".8" stroke-width="1.5"/>
</g>
<clipPath id="w">
<rect width="450" height="450"/>
</clipPath>
<g id="p" clip-path="url(#w)">
<path transform="matrix(1.0001 0 0 1.0001 0 -.027)" d="m40.412 327.07 1.0937-1.6249 1.2929-1.4687 1.4804-1.2851 1.6327-1.082 1.7616-0.86323 1.8593-0.62496 1.9257-0.37888 1.9569-0.12499 1.9569 0.1328 1.9257 0.38279 1.8593 0.63278 1.7577 0.86323 1.6288 1.0898 1.4726 1.289 1.2929 1.4726 1.0859 1.6249 0.86714 1.7538 0.62887 1.8515 0.37888 1.9179 0.12499 1.9491-0.1328 1.9491-0.3867 1.9139-0.63278 1.8515-0.87104 1.7499-1.0898 1.6249-1.2968 1.4648-1.4804 1.2851-1.6327 1.0859-1.7577 0.86323-1.8632 0.62496-1.9257 0.37498-1.9569 0.1289-1.9569-0.1328-1.9257-0.38279-1.8554-0.62887-1.7577-0.86714-1.6327-1.0859-1.4726-1.2929-1.289-1.4726-1.0898-1.6249-0.86714-1.7538-0.62496-1.8515-0.38279-1.9179-0.12499-1.9491 0.1328-1.9491 0.3867-1.9139 0.63277-1.8515 0.062497-0.17968 0.68746-1.7929 0.68746-1.7968 0.34764-0.90229 0.9101-1.6874 0.91401-1.6952 0.42576-0.78511 1.4101-1.4179 1.3632-1.371 1.3671-1.3671 1.3593-1.371 0.75777-0.75777 9.2455-5.9528 12.202-4.8708 14.819-3.1717 14.757-1.3866 5.7848-0.54294 14.808 0.69136 14.808 0.68746 13.819 0.64449 3.1092 0.14452 14.706 1.8827 14.706 1.8788 14.702 1.8788 1.746 0.22264 14.702 1.8788 14.702 1.8827 14.706 1.8788 13.866 1.7733 29.404 3.7576 14.706 1.8827 13.862 1.7694 14.706 1.8827 29.404 3.7576 13.866 1.7733 14.706 1.8788 14.702 1.8827 9.2416 1.1796 12.148 1.5546-12.148-1.5546-9.2416-1.1796-14.702-1.8827-14.706-1.8788-13.866-1.7733-29.404-3.7576-14.706-1.8827-13.862-1.7694-14.706-1.8827-29.404-3.7576-13.866-1.7733-14.706-1.8788-14.702-1.8827-14.702-1.8788-1.746-0.22264-29.408-3.7576-14.706-1.8827-3.1092-0.14452-13.819-0.64449-14.808-0.68746-14.808-0.69136-5.7848 0.54294-14.757 1.3866-14.819 3.1717-12.202 4.8708-9.2455 5.9528-0.75777 0.75777-1.3593 1.371-1.3671 1.3671-1.3632 1.371-1.4101 1.4179-0.42576 0.78511-0.91401 1.6952-0.9101 1.6874-0.34764 0.90229-0.68746 1.7968-0.68746 1.7929-0.062497 0.17968" fill-opacity=".1" stroke="#000" stroke-linejoin="round" stroke-opacity=".8" stroke-width="1.5"/>
<path transform="matrix(1.0001 0 0 1.0001 0 -.027)" d="m72.941 218.06 0.34373 14.437-0.34373-14.437 0.34764-12.894 0.50388-9.5619 1.0195-10.519 1.5624-5.6598 1.0859-3.949 4.1833-3.1053 28.127-5.2536-1.9257 13.609 4.2146 69.652-4.2146-69.652 1.9257-13.609 21.186-3.3709 24.944-1.7265-2.3866 11.503 3.2576 81.062-3.2576-81.062 2.3866-11.503 23.702-2.2186 25.549-0.63668 0.35935 96.572-0.35935-96.572 25.932-0.40232 25.924 0.40232-0.35935 96.572 0.35935-96.572 25.549 0.63668 23.702 2.2186 2.3905 11.503-3.2537 81.062 3.2537-81.062-2.3905-11.503 24.944 1.7265 21.194 3.3709 1.9218 13.609-4.2185 69.652 4.2185-69.652-1.9218-13.609 17.866 2.824 10.253 2.4295 4.1833 3.1053 1.0898 3.949-3.5389 59.055 3.4451-57.668 1.6562 4.2732 1.0195 10.519 0.49997 9.5619 0.35154 12.894-0.34764 14.437 0.34764-14.437" fill="none" stroke="#000" stroke-linejoin="round" stroke-width="7.5"/>
<path transform="matrix(1.0001 0 0 1.0001 0 -.027)" d="m73.285 232.5-0.34373-14.437 0.34764-12.894 0.50388-9.5619 1.0195-10.519 2.6483-9.6088 4.1833-3.1053 10.253-2.4295 17.308-3.0194 21.753-3.1756 23.428-2.1522 25.213-1.7929 25.272-0.83589 26.213-0.20311 26.209 0.20311 25.268 0.83589 25.217 1.7929 23.424 2.1522 21.753 3.1756 17.308 3.0194 10.253 2.4295 4.1833 3.1053 2.6522 9.6088 1.0195 10.519 0.49997 9.5619 0.35154 12.894-0.34764 14.437-6.6246 5.9215-13.355 5.5075-6.6324 2.1678-12.066 4.0779-14.792-0.10937-12.327 1.3202-17.186 2.8475-18.472-0.37107-11.242 0.16796-19.503 1.6132-16.69-0.89448-8.9018 0.023436-8.9096-0.023436-16.686 0.89448-19.503-1.6132-11.245-0.16796-18.468 0.37107-17.19-2.8475-12.323-1.3202-14.796 0.10937-12.066-4.0779-6.6246-2.1678-13.359-5.5075-6.6285-5.9215 1.5273-47.411" fill="#fff" fill-opacity=".8" stroke="#000" stroke-linejoin="round" stroke-opacity=".8" stroke-width="1.5"/>
</g>
</defs>
<use xlink:href="#q"/>
<g>
<use x="180.979" y="442.44" xlink:href="#v"/>
<use x="189.811663" y="442.44" xlink:href="#c"/>
<use x="193.352288" y="442.44" xlink:href="#g"/>
<use x="201.139144" y="442.44" xlink:href="#e"/>
<use x="206.853985" y="442.44" xlink:href="#i"/>
<use x="217.842663" y="442.44" xlink:href="#r"/>
<use x="229.324145" y="442.44" xlink:href="#g"/>
<use x="237.111001" y="442.44" xlink:href="#a"/>
<use x="240.651626" y="442.44" xlink:href="#e"/>
<use x="246.366467" y="442.44" xlink:href="#d"/>
<use x="251.111101" y="442.44" xlink:href="#h"/>
<use x="259.567161" y="442.44" xlink:href="#a"/>
<use x="263.107787" y="442.44" xlink:href="#c"/>
<use x="134.734" y="353.801" xlink:href="#j"/>
<use x="142.478855" y="353.801" xlink:href="#o"/>
<use x="156.310954" y="353.801" xlink:href="#n"/>
<use x="166.517027" y="353.801" xlink:href="#b"/>
<use x="174.371083" y="353.801" xlink:href="#c"/>
<use x="177.911708" y="353.801" xlink:href="#d"/>
<use x="182.656342" y="353.801" xlink:href="#f"/>
<use x="191.238404" y="353.801" xlink:href="#m"/>
<use x="199.571263" y="353.801" xlink:href="#l"/>
<use x="211.202546" y="353.801" xlink:href="#i"/>
<use x="218.551199" y="353.801" xlink:href="#a"/>
<use x="222.091824" y="353.801" xlink:href="#f"/>
<use x="227.033859" y="353.801" xlink:href="#b"/>
<use x="238.527941" y="353.801" xlink:href="#u"/>
<use x="245.193389" y="353.801" xlink:href="#b"/>
<use x="253.047445" y="353.801" xlink:href="#k"/>
<use x="261.640706" y="353.801" xlink:href="#f"/>
<use x="266.582742" y="353.801" xlink:href="#b"/>
<use x="274.436798" y="353.801" xlink:href="#e"/>
<use x="283.791665" y="353.801" xlink:href="#g"/>
<use x="291.57852" y="353.801" xlink:href="#a"/>
<use x="295.119146" y="353.801" xlink:href="#e"/>
<use x="300.833986" y="353.801" xlink:href="#d"/>
<use x="305.57862" y="353.801" xlink:href="#h"/>
<use x="314.034681" y="353.801" xlink:href="#a"/>
<use x="317.575306" y="353.801" xlink:href="#c"/>
<use x="142.445" y="280.584" xlink:href="#j"/>
<use x="150.189855" y="280.584" xlink:href="#o"/>
<use x="164.021954" y="280.584" xlink:href="#n"/>
<use x="174.228027" y="280.584" xlink:href="#b"/>
<use x="182.082083" y="280.584" xlink:href="#c"/>
<use x="185.622708" y="280.584" xlink:href="#d"/>
<use x="190.367342" y="280.584" xlink:href="#f"/>
<use x="198.949404" y="280.584" xlink:href="#m"/>
<use x="207.282263" y="280.584" xlink:href="#l"/>
<use x="218.913546" y="280.584" xlink:href="#i"/>
<use x="226.262199" y="280.584" xlink:href="#a"/>
<use x="229.802824" y="280.584" xlink:href="#f"/>
<use x="234.744859" y="280.584" xlink:href="#b"/>
<use x="246.238941" y="280.584" xlink:href="#t"/>
<use x="254.818203" y="280.584" xlink:href="#c"/>
<use x="258.358828" y="280.584" xlink:href="#g"/>
<use x="266.145684" y="280.584" xlink:href="#k"/>
<use x="274.738945" y="280.584" xlink:href="#d"/>
<use x="279.483579" y="280.584" xlink:href="#h"/>
<use x="287.939639" y="280.584" xlink:href="#e"/>
<use x="293.65448" y="280.584" xlink:href="#s"/>
</g>
<use xlink:href="#p"/>
</svg>
