<svg xmlns="http://www.w3.org/2000/svg" xmlns:dc="http://purl.org/dc/elements/1.1/" xmlns:ns2="http://creativecommons.org/ns#" xmlns:ns4="http://www.w3.org/1999/xlink" xmlns:rdf="http://www.w3.org/1999/02/22-rdf-syntax-ns#" width="432" height="288" viewBox="0 0 432 288" version="1.1">
 <defs>
</defs><metadata>
  <rdf:RDF>
   <ns2:Work>
    <dc:type rdf:resource="http://purl.org/dc/dcmitype/StillImage" />
    <dc:date>2024-10-04T09:16:01.839136</dc:date>
    <dc:format>image/svg+xml</dc:format>
    <dc:creator>
     <ns2:Agent>
      <dc:title>Matplotlib v3.8.4, https://matplotlib.org/</dc:title>
     </ns2:Agent>
    </dc:creator>
   </ns2:Work>
  </rdf:RDF>
 </metadata>
 <defs>
  <style type="text/css">*{stroke-linejoin: round; stroke-linecap: butt}</style>
 </defs>
 <g id="figure_1">
  <g id="patch_1">
   <path d="M 0 288  L 432 288  L 432 0  L 0 0  z " style="fill: #ffffff" />
  </g>
  <g id="patch_2">
   <path d="M 72 288  L 360 288  L 360 0  L 72 0  z " style="fill: #ffffff" />
  </g>
  <g id="axes_1">
   <g id="polygon_1">
    <defs>
     <path id="m99c2dd3ba9" d="M 343.215232 -24.716367  L 340.748766 -25.300845  L 338.282299 -25.884041  L 335.815832 -26.464475  L 333.349365 -27.04074  L 328.416432 -28.175488  L 323.483498 -29.283351  L 318.550564 -30.365365  L 313.617631 -31.422641  L 308.684697 -32.454832  L 303.751763 -33.461052  L 298.81883 -34.440461  L 293.885896 -35.392296  L 288.952963 -36.315864  L 284.020029 -37.210797  L 279.087095 -38.076773  L 274.154162 -38.913498  L 269.221228 -39.720772  L 264.288295 -40.498055  L 259.355361 -41.243002  L 254.422427 -41.952752  L 249.489494 -42.624445  L 244.55656 -43.255318  L 239.623626 -43.842781  L 234.690693 -44.386119  L 229.757759 -44.885134  L 224.824826 -45.339778  L 219.891892 -45.749878  L 214.958958 -46.114915  L 210.026025 -46.431979  L 205.093091 -46.697075  L 200.160157 -46.906281  L 195.227224 -47.055625  L 190.29429 -47.141952  L 185.361357 -47.167948  L 180.428423 -47.138671  L 175.495489 -47.059202  L 170.562556 -46.934571  L 165.629622 -46.767147  L 160.696688 -46.540824  L 155.763755 -46.231727  L 150.830821 -45.81551  L 145.897888 -45.26719  L 140.964954 -44.563877  L 136.03202 -43.701107  L 131.099087 -42.681297  L 126.166153 -41.493545  L 121.233219 -40.106824  L 116.300286 -38.487021  L 111.367352 -36.594328  L 108.900885 -35.488907  L 106.434419 -34.219417  L 103.967952 -32.713195  L 101.501485 -30.826841  L 99.528311 -28.973192  L 98.541725 -27.956243  L 97.555138 -26.769577  L 97.061845 -25.999719  L 96.815198 -25.487828  L 96.691875 -25.145458  L 96.568551 -24.568551  L 96.691875 -23.416711  L 96.815198 -23.103026  L 97.061845 -22.64192  L 97.555138 -21.975653  L 98.541725 -21.044907  L 99.528311 -20.382143  L 101.501485 -19.568456  L 103.967952 -18.992955  L 106.434419 -18.520503  L 108.900885 -18.144589  L 111.367352 -17.877594  L 116.300286 -17.54911  L 121.233219 -17.322417  L 126.166153 -17.178203  L 131.099087 -17.109857  L 136.03202 -17.106355  L 140.964954 -17.157065  L 145.897888 -17.25163  L 150.830821 -17.380157  L 155.763755 -17.534657  L 160.696688 -17.707729  L 165.629622 -17.891924  L 170.562556 -18.079795  L 175.495489 -18.265125  L 180.428423 -18.447373  L 185.361357 -18.627573  L 190.29429 -18.806737  L 195.227224 -18.985926  L 200.160157 -19.165953  L 205.093091 -19.346844  L 210.026025 -19.528252  L 214.958958 -19.709957  L 219.891892 -19.891662  L 224.824826 -20.07312  L 229.757759 -20.254356  L 234.690693 -20.435444  L 239.623626 -20.616482  L 244.55656 -20.797496  L 249.489494 -20.978584  L 254.422427 -21.159722  L 259.355361 -21.340883  L 264.288295 -21.522095  L 269.221228 -21.703281  L 274.154162 -21.884468  L 279.087095 -22.06563  L 284.020029 -22.246792  L 288.952963 -22.427954  L 293.885896 -22.609116  L 298.81883 -22.790278  L 303.751763 -22.97144  L 308.684697 -23.152602  L 313.617631 -23.333764  L 318.550564 -23.514926  L 323.483498 -23.696088  L 328.416432 -23.87725  L 333.349365 -24.058412  L 335.815832 -24.148981  L 338.282299 -24.239549  L 340.748766 -24.330143  L 343.215232 -24.420736  " style="stroke: #000000; stroke-opacity: 0.8; stroke-width: 2" />
    </defs>
    <g>
     <use ns4:href="#m99c2dd3ba9" x="0" y="288" style="fill-opacity: 0.1; stroke: #000000; stroke-opacity: 0.8; stroke-width: 2" />
    </g>
   </g>
   <g id="text_1">
    <g>
     <text style="font: 20px 'DejaVu Sans', 'Bitstream Vera Sans', 'Computer Modern Sans Serif', 'Lucida Grande', 'Verdana', 'Geneva', 'Lucid', 'Arial', 'Helvetica', 'Avant Garde', sans-serif; text-anchor: start" x="187.827823" y="283.163183" transform="rotate(-0 187.827823 283.163183)">Clark Y airfoil</text>
    </g>
   </g>
   <g id="text_2">
    <g>
     <text style="font: 20px 'DejaVu Sans', 'Bitstream Vera Sans', 'Computer Modern Sans Serif', 'Lucida Grande', 'Verdana', 'Geneva', 'Lucid', 'Arial', 'Helvetica', 'Avant Garde', sans-serif; text-anchor: start" x="158.230222" y="226.434447" transform="rotate(-0 158.230222 226.434447)">TU Delft V3 kite  center airfoil</text>
    </g>
   </g>
   <g id="text_3">
    <g>
     <text style="font: 20px 'DejaVu Sans', 'Bitstream Vera Sans', 'Computer Modern Sans Serif', 'Lucida Grande', 'Verdana', 'Geneva', 'Lucid', 'Arial', 'Helvetica', 'Avant Garde', sans-serif; text-anchor: start" x="163.163155" y="179.571577" transform="rotate(-0 163.163155 179.571577)">TU Delft V3 kite  planform</text>
    </g>
   </g>
   <g id="polygon_2">
    <defs>
     <path id="mfdcdaee1ba" d="M 97.86247 -78.676018  L 98.561329 -79.71476  L 99.390817 -80.654059  L 100.336977 -81.476615  L 101.381982 -82.169806  L 102.509887 -82.721994  L 103.699041 -83.122394  L 104.931527 -83.364081  L 106.185558 -83.444808  L 107.438426 -83.360418  L 108.670136 -83.115336  L 109.85884 -82.711112  L 110.984466 -82.156914  L 112.027432 -81.460968  L 112.970385 -80.634385  L 113.797039 -79.693035  L 114.49319 -78.652822  L 115.047009 -77.529687  L 115.448852 -76.3453  L 115.691966 -75.118529  L 115.772223 -73.870185  L 115.688121 -72.623014  L 115.441147 -71.396967  L 115.035614 -70.212986  L 114.478304 -69.092055  L 113.778876 -68.053303  L 112.949293 -67.114002  L 112.003702 -66.291456  L 110.958223 -65.598257  L 109.831267 -65.046085  L 108.641164 -64.645669  L 107.408677 -64.403982  L 106.155596 -64.32327  L 104.901779 -64.407645  L 103.671017 -64.652742  L 102.482313 -65.056966  L 101.356687 -65.611164  L 100.313232 -66.308051  L 99.370199 -67.133684  L 98.543925 -68.07504  L 97.847015 -69.115241  L 97.293954 -70.238388  L 96.891732 -71.42277  L 96.648239 -72.649534  L 96.568551 -73.897888  L 96.652083 -75.145049  L 96.899153 -76.371098  L 97.30535 -77.555089  L 97.346222 -77.669602  L 97.786195 -78.818076  L 98.225219 -79.966535  L 98.44656 -80.545064  L 99.029943 -81.625611  L 99.614229 -82.709019  L 99.887041 -83.21341  L 100.790101 -84.120673  L 101.663289 -84.997097  L 102.536478 -85.873521  L 103.408718 -86.74993  L 103.891549 -87.23395  L 109.810381 -91.044017  L 117.620474 -94.16218  L 127.104396 -96.1931  L 136.550122 -97.079107  L 140.250187 -97.426569  L 149.72715 -96.984696  L 159.204098 -96.543772  L 168.050081 -96.131686  L 170.040614 -96.039136  L 179.451247 -94.836183  L 188.8618 -93.632279  L 198.272452 -92.429326  L 199.389216 -92.286784  L 208.799821 -91.08383  L 218.210402 -89.879927  L 227.621035 -88.676974  L 236.493819 -87.542299  L 245.904452 -86.339345  L 255.31499 -85.136391  L 264.725623 -83.933437  L 273.598502 -82.798763  L 283.009135 -81.59581  L 292.419673 -80.392855  L 301.830605 -79.188958  L 310.70328 -78.05523  L 320.114117 -76.851331  L 329.523991 -75.648365  L 335.43974 -74.892557  L 343.215232 -73.897888  L 335.43974 -74.892557  L 329.523991 -75.648365  L 320.114117 -76.851331  L 310.70328 -78.05523  L 301.830605 -79.188958  L 292.419673 -80.392855  L 283.009135 -81.59581  L 273.598502 -82.798763  L 264.725623 -83.933437  L 255.31499 -85.136391  L 245.904452 -86.339345  L 236.493819 -87.542299  L 227.621035 -88.676974  L 218.210402 -89.879927  L 208.799821 -91.08383  L 199.389216 -92.286784  L 198.272452 -92.429326  L 188.8618 -93.632279  L 179.451247 -94.836183  L 170.040614 -96.039136  L 168.050081 -96.131686  L 159.204098 -96.543772  L 149.72715 -96.984696  L 140.250187 -97.426569  L 136.550122 -97.079107  L 127.104396 -96.1931  L 117.620474 -94.16218  L 109.810381 -91.044017  L 103.891549 -87.23395  L 103.408718 -86.74993  L 102.536478 -85.873521  L 101.663289 -84.997097  L 100.790101 -84.120673  L 99.887041 -83.21341  L 99.614229 -82.709019  L 99.029943 -81.625611  L 98.44656 -80.545064  L 98.225219 -79.966535  L 97.786195 -78.818076  L 97.346222 -77.669602  L 97.30535 -77.555089  " style="stroke: #000000; stroke-opacity: 0.8; stroke-width: 2" />
    </defs>
    <g>
     <use ns4:href="#mfdcdaee1ba" x="0" y="288" style="fill-opacity: 0.1; stroke: #000000; stroke-opacity: 0.8; stroke-width: 2" />
    </g>
   </g>
   <g id="polygon_3">
    <defs>
     <path id="mcbb2616101" d="M 118.682153 -148.437573  L 118.903568 -139.200162  L 118.682153 -148.437573  L 118.905541 -156.689557  L 119.227242 -162.809922  L 119.879228 -169.541773  L 120.878837 -173.165901  L 121.575861 -175.692969  L 124.252791 -177.679387  L 142.25134 -181.043056  L 141.019857 -172.333517  L 143.718098 -127.754202  L 141.019857 -172.333517  L 142.25134 -181.043056  L 155.813232 -183.200548  L 171.77803 -184.301974  L 170.249142 -176.943739  L 172.33158 -125.06151  L 170.249142 -176.943739  L 171.77803 -184.301974  L 186.945617 -185.724188  L 203.298588 -186.131993  L 203.527773 -124.324703  L 203.298588 -186.131993  L 219.891892 -186.390923  L 219.891892 -186.390923  L 236.485195 -186.131993  L 236.256011 -124.324703  L 236.485195 -186.131993  L 252.838166 -185.724188  L 268.005753 -184.301974  L 269.534642 -176.943739  L 267.452204 -125.06151  L 269.534642 -176.943739  L 268.005753 -184.301974  L 283.970552 -183.200548  L 297.532444 -181.043056  L 298.763926 -172.333517  L 296.065686 -127.754202  L 298.763926 -172.333517  L 297.532444 -181.043056  L 308.968365 -179.235086  L 315.530992 -177.679387  L 318.207923 -175.692969  L 318.904946 -173.165901  L 316.64068 -135.369221  L 318.844814 -172.277331  L 319.904556 -169.541773  L 320.556542 -162.809922  L 320.878243 -156.689557  L 321.101631 -148.437573  L 320.880216 -139.200162  L 321.101631 -148.437573  " style="stroke: #000000; stroke-width: 10" />
    </defs>
    <g>
     <use ns4:href="#mcbb2616101" x="0" y="288" style="fill-opacity: 0; stroke: #000000; stroke-width: 10" />
    </g>
   </g>
   <g id="polygon_4">
    <defs>
     <path id="m69ec485962" d="M 118.903568 -139.200162  L 118.682153 -148.437573  L 118.905541 -156.689557  L 119.227242 -162.81007  L 119.879228 -169.541773  L 121.575861 -175.692969  L 124.252791 -177.679387  L 130.815418 -179.235086  L 141.890742 -181.166798  L 155.813232 -183.200548  L 170.806687 -184.578415  L 186.943151 -185.724188  L 203.116391 -186.259214  L 219.891892 -186.390923  L 236.667393 -186.259214  L 252.840633 -185.724188  L 268.977097 -184.578415  L 283.970552 -183.200548  L 297.893042 -181.166798  L 308.968365 -179.235086  L 315.530992 -177.679387  L 318.207923 -175.692969  L 319.904556 -169.541773  L 320.556542 -162.809922  L 320.878243 -156.689557  L 321.101631 -148.437573  L 320.880216 -139.200162  L 320.880216 -139.200162  L 316.639373 -135.410781  L 308.091438 -131.884917  L 303.848523 -130.497505  L 296.127742 -127.88638  L 286.658828 -127.95766  L 278.770746 -127.11186  L 267.769762 -125.290448  L 255.950971 -125.528289  L 248.755029 -125.419395  L 236.271476 -124.387474  L 225.591009 -124.960755  L 219.891892 -124.945611  L 214.192775 -124.960755  L 203.512308 -124.387474  L 191.028755 -125.419395  L 183.832813 -125.528289  L 172.014022 -125.290448  L 161.013037 -127.11186  L 153.124956 -127.95766  L 143.656042 -127.88638  L 135.935261 -130.497505  L 131.692346 -131.884917  L 123.144411 -135.410781  L 118.903568 -139.200162  L 119.879228 -169.541773  " style="stroke: #000000; stroke-opacity: 0.8; stroke-width: 2" />
    </defs>
    <g>
     <use ns4:href="#m69ec485962" x="0" y="288" style="fill: #ffffff; fill-opacity: 0.5; stroke: #000000; stroke-opacity: 0.8; stroke-width: 2" />
    </g>
   </g>
  </g>
 </g>
 <defs>
  </defs>
</svg>