<?xml version="1.0" encoding="UTF-8"?>
<svg width="324pt" height="216pt" version="1.1" viewBox="0 0 324 216" xmlns="http://www.w3.org/2000/svg" xmlns:xlink="http://www.w3.org/1999/xlink">
<defs>
<g id="v">
<path d="m5.6562-9.0938c0.75 0 1.5156 0.17188 2.2656 0.53125l0.5-1c-0.79688-0.39062-1.7031-0.57812-2.75-0.57812-0.98438 0-1.8438 0.21875-2.5625 0.625-0.73438 0.42188-1.2969 1.0312-1.6719 1.7969-0.39062 0.76562-0.57812 1.6719-0.57812 2.7031 0 1.6562 0.40625 2.9219 1.1875 3.8125 0.8125 0.89062 1.9531 1.3438 3.4219 1.3438 1.0156 0 1.8594-0.14062 2.5625-0.39062v-1.0156c-0.90625 0.25-1.6875 0.375-2.3906 0.375-1.1406 0-2.0156-0.35938-2.625-1.0781s-0.92188-1.7188-0.92188-3.0312c0-1.2656 0.32812-2.2812 0.95312-3 0.64062-0.73438 1.5-1.0938 2.6094-1.0938z"/>
</g>
<g id="c">
<path d="m2.3438 0v-10.641h-1.1406v10.641z"/>
</g>
<g id="g">
<path d="m5.8125 0h0.84375v-5.1094c0-0.875-0.21875-1.5156-0.65625-1.9062-0.42188-0.40625-1.0781-0.59375-1.9844-0.59375-0.4375 0-0.875 0.046875-1.3281 0.17188-0.4375 0.10938-0.82812 0.26562-1.2031 0.46875l0.34375 0.85938c0.79688-0.375 1.5-0.5625 2.125-0.5625 0.54688 0 0.95312 0.14062 1.2188 0.40625 0.25 0.29688 0.375 0.71875 0.375 1.3125v0.46875l-1.2812 0.03125c-2.4062 0.078125-3.625 0.875-3.625 2.375 0 0.70312 0.21875 1.25 0.625 1.6406 0.4375 0.375 1.0156 0.57812 1.75 0.57812 0.5625 0 1.0312-0.078125 1.4062-0.25 0.35938-0.17188 0.73438-0.48438 1.1094-0.95312h0.046875zm-2.5625-0.79688c-0.45312 0-0.79688-0.10938-1.0469-0.32812-0.25-0.20312-0.375-0.51562-0.375-0.9375 0-0.51562 0.20312-0.90625 0.60938-1.1562 0.39062-0.25 1.0469-0.39062 1.9375-0.42188l1.1406-0.046875v0.67188c0 0.70312-0.20312 1.25-0.60938 1.6406-0.39062 0.39062-0.95312 0.57812-1.6562 0.57812z"/>
</g>
<g id="e">
<path d="m4.625-7.625c-0.46875 0-0.90625 0.125-1.2969 0.39062s-0.71875 0.64062-1 1.125h-0.0625l-0.125-1.3906h-0.9375v7.5h1.1406v-4.0156c0-0.73438 0.21875-1.3438 0.64062-1.8438 0.4375-0.48438 0.95312-0.73438 1.5625-0.73438 0.23438 0 0.5 0.03125 0.8125 0.09375l0.15625-1.0469c-0.26562-0.0625-0.5625-0.078125-0.89062-0.078125z"/>
</g>
<g id="i">
<path d="m2.3281-3.8281h-0.0625c0.03125-0.53125 0.0625-0.92188 0.0625-1.1719v-5.6406h-1.125v10.641h1.125v-2.7969l0.84375-0.75 2.6562 3.5469h1.375l-3.25-4.2969 3.0312-3.2031h-1.3438l-2.4219 2.5781c-0.40625 0.4375-0.70312 0.8125-0.89062 1.0938z"/>
</g>
<g id="r">
<path d="m3.9219-5-2.6562-5h-1.2656l3.3281 6.1719v3.8281h1.1719v-3.875l3.3438-6.125h-1.2656z"/>
</g>
<g id="a">
<path d="m2.3438 0v-7.5h-1.1406v7.5zm-1.2344-9.5156c0 0.25 0.0625 0.4375 0.1875 0.5625s0.29688 0.1875 0.48438 0.1875 0.34375-0.0625 0.46875-0.1875 0.20312-0.3125 0.20312-0.5625c0-0.26562-0.078125-0.45312-0.20312-0.57812s-0.28125-0.1875-0.46875-0.1875-0.35938 0.0625-0.48438 0.1875-0.1875 0.3125-0.1875 0.57812z"/>
</g>
<g id="d">
<path d="m4.5781-6.6094v-0.89062h-1.9062v-0.48438c0-0.625 0.10938-1.0781 0.3125-1.375 0.20312-0.26562 0.51562-0.42188 0.95312-0.42188 0.29688 0 0.67188 0.078125 1.1094 0.21875l0.29688-0.90625c-0.53125-0.15625-1-0.25-1.3906-0.25-1.6094 0-2.4219 0.92188-2.4219 2.7656v0.42188l-1.3281 0.40625v0.51562h1.3281v6.6094h1.1406v-6.6094z"/>
</g>
<g id="h">
<path d="m7.6719-3.75c0-1.1875-0.3125-2.1406-0.9375-2.8281-0.60938-0.70312-1.4375-1.0469-2.4844-1.0469-1.0938 0-1.9375 0.34375-2.5469 1.0156-0.60938 0.6875-0.92188 1.625-0.92188 2.8594 0 0.78125 0.15625 1.4688 0.42188 2.0625 0.28125 0.59375 0.6875 1.0312 1.2031 1.3594 0.53125 0.3125 1.125 0.46875 1.7969 0.46875 1.0781 0 1.9219-0.34375 2.5469-1.0312 0.60938-0.6875 0.92188-1.6406 0.92188-2.8594zm-5.7031 0c0-0.96875 0.1875-1.7031 0.5625-2.1875s0.9375-0.73438 1.6875-0.73438 1.3125 0.25 1.7031 0.75c0.375 0.5 0.57812 1.2188 0.57812 2.1719s-0.20312 1.6875-0.57812 2.1875c-0.39062 0.5-0.95312 0.75-1.7031 0.75-0.73438 0-1.2969-0.25-1.6875-0.75-0.375-0.5-0.5625-1.2344-0.5625-2.1875z"/>
</g>
<g id="j">
<path d="m4.4531 0v-8.9688h3.1562v-1.0312h-7.4844v1.0312h3.1562v8.9688z"/>
</g>
<g id="o">
<path d="m8.9219-10h-1.1562v6.5156c0 0.84375-0.23438 1.4844-0.6875 1.9219-0.45312 0.45312-1.1094 0.6875-1.9531 0.6875-0.875 0-1.5469-0.23438-2-0.67188-0.46875-0.45312-0.6875-1.0938-0.6875-1.9219v-6.5312h-1.1719v6.4375c0 1.1562 0.32812 2.0625 0.98438 2.7188 0.67188 0.65625 1.5938 0.98438 2.7969 0.98438s2.1562-0.32812 2.8438-0.98438c0.6875-0.64062 1.0312-1.5469 1.0312-2.6875z"/>
</g>
<g id="n">
<path d="m9.3594-5.0938c0-1.5469-0.4375-2.75-1.2969-3.6094s-2.0781-1.2969-3.625-1.2969h-3.0625v10h2.7656c1.6875 0 2.9688-0.4375 3.875-1.3125 0.89062-0.875 1.3438-2.1406 1.3438-3.7812zm-1.2344 0.046875c0 1.3281-0.35938 2.3438-1.0469 3.0156-0.70312 0.6875-1.7344 1.0312-3.125 1.0312h-1.4219v-7.9844h1.6875c1.2969 0 2.2656 0.32812 2.9219 0.98438 0.65625 0.67188 0.98438 1.6406 0.98438 2.9531z"/>
</g>
<g id="b">
<path d="m4.375 0.14062c0.5 0 0.9375-0.046875 1.2812-0.10938 0.35938-0.09375 0.75-0.20312 1.1406-0.375v-1.0156c-0.78125 0.32812-1.5781 0.5-2.3906 0.5-0.76562 0-1.3594-0.21875-1.7812-0.67188-0.42188-0.46875-0.64062-1.125-0.65625-2.0156h5.1562v-0.71875c0-1-0.28125-1.8125-0.82812-2.4375s-1.2812-0.92188-2.2188-0.92188c-1.0156 0-1.8125 0.34375-2.3906 1.0625-0.60938 0.70312-0.90625 1.6719-0.90625 2.875s0.32812 2.1406 0.96875 2.8125 1.5156 1.0156 2.625 1.0156zm-0.3125-6.8125c0.59375 0 1.0469 0.1875 1.3594 0.5625 0.32812 0.375 0.48438 0.92188 0.48438 1.6406h-3.9219c0.0625-0.6875 0.28125-1.2344 0.64062-1.625s0.82812-0.57812 1.4375-0.57812z"/>
</g>
<g id="f">
<path d="m3.625-0.79688c-0.375 0-0.67188-0.125-0.89062-0.35938-0.20312-0.25-0.3125-0.59375-0.3125-1.0469v-4.4062h2.1719v-0.89062h-2.1719v-1.7344h-0.65625l-0.48438 1.6094-1.0625 0.46875v0.54688h1.0625v4.4531c0 1.5312 0.73438 2.2969 2.1719 2.2969 0.20312 0 0.42188-0.03125 0.65625-0.0625s0.42188-0.078125 0.54688-0.14062v-0.875c-0.10938 0.03125-0.26562 0.0625-0.45312 0.09375s-0.375 0.046875-0.57812 0.046875z"/>
</g>
<g id="m">
<path d="m7.0781-10-2.2812 6.4375c-0.26562 0.71875-0.46875 1.4688-0.64062 2.2031-0.15625-0.70312-0.35938-1.4219-0.625-2.1719l-2.2969-6.4688h-1.2344l3.5781 10h1.1562l3.5938-10z"/>
</g>
<g id="l">
<path d="m6.875-7.6406c0-0.78125-0.26562-1.3906-0.79688-1.8281-0.54688-0.4375-1.2969-0.67188-2.2656-0.67188-0.59375 0-1.1562 0.09375-1.6875 0.28125-0.54688 0.17188-1.0156 0.4375-1.4219 0.76562l0.5625 0.76562c0.5-0.32812 0.9375-0.54688 1.3281-0.65625 0.39062-0.125 0.79688-0.1875 1.2344-0.1875 0.57812 0 1.0469 0.14062 1.375 0.42188s0.5 0.65625 0.5 1.1406c0 0.60938-0.23438 1.0938-0.6875 1.4375s-1.0781 0.51562-1.8438 0.51562h-1v0.98438h0.98438c1.9062 0 2.8594 0.60938 2.8594 1.8125 0 1.3594-0.875 2.0312-2.5938 2.0312-0.4375 0-0.90625-0.046875-1.3906-0.17188-0.5-0.10938-0.95312-0.26562-1.3906-0.48438v1.0781c0.42188 0.20312 0.84375 0.34375 1.2812 0.42188s0.92188 0.125 1.4531 0.125c1.2188 0 2.1562-0.26562 2.8125-0.76562 0.67188-0.53125 1-1.25 1-2.2031 0-0.67188-0.1875-1.2031-0.57812-1.6094-0.39062-0.42188-0.98438-0.67188-1.7969-0.76562v-0.0625c0.65625-0.14062 1.1719-0.40625 1.5312-0.8125s0.53125-0.92188 0.53125-1.5625z"/>
</g>
<g id="u">
<path d="m4.2031 0.14062c0.75 0 1.3906-0.14062 1.8906-0.39062v-1.0156c-0.65625 0.28125-1.2969 0.40625-1.9219 0.40625-0.73438 0-1.2812-0.23438-1.6562-0.73438-0.375-0.48438-0.54688-1.2031-0.54688-2.125 0-1.9375 0.75-2.9062 2.2812-2.9062 0.21875 0 0.48438 0.03125 0.78125 0.10938 0.29688 0.0625 0.5625 0.14062 0.82812 0.23438l0.34375-0.95312c-0.20312-0.10938-0.48438-0.20312-0.84375-0.28125-0.375-0.078125-0.71875-0.10938-1.0938-0.10938-1.1094 0-1.9688 0.34375-2.5625 1.0156-0.60938 0.6875-0.92188 1.6562-0.92188 2.9062 0 1.2344 0.29688 2.1719 0.90625 2.8438 0.57812 0.65625 1.4219 1 2.5156 1z"/>
</g>
<g id="k">
<path d="m6.3281 0h1.1406v-4.8906c0-0.95312-0.23438-1.6562-0.6875-2.0781-0.45312-0.4375-1.1406-0.65625-2.0312-0.65625-0.51562 0-0.98438 0.09375-1.4062 0.29688s-0.75 0.48438-0.98438 0.85938h-0.046875l-0.1875-1.0312h-0.92188v7.5h1.1406v-3.9375c0-0.96875 0.17188-1.6719 0.54688-2.0938 0.35938-0.42188 0.9375-0.64062 1.7188-0.64062 0.59375 0 1.0312 0.15625 1.2969 0.45312 0.28125 0.3125 0.42188 0.76562 0.42188 1.375z"/>
</g>
<g id="t">
<path d="m4.6875 0.14062c0.98438 0 1.7344-0.34375 2.2812-1.0312 0.5625-0.67188 0.82812-1.625 0.82812-2.8594s-0.26562-2.1875-0.8125-2.8594c-0.53125-0.67188-1.2969-1.0156-2.2969-1.0156-0.5 0-0.9375 0.078125-1.3281 0.26562s-0.73438 0.48438-1.0156 0.89062h-0.0625l-0.15625-1.0312h-0.92188v10.859h1.1406v-3.0781c0-0.39062-0.03125-0.8125-0.09375-1.25h0.09375c0.26562 0.375 0.60938 0.65625 1 0.82812 0.42188 0.1875 0.85938 0.28125 1.3438 0.28125zm-0.15625-6.8125c0.65625 0 1.1719 0.26562 1.5469 0.75 0.35938 0.5 0.54688 1.2188 0.54688 2.1562 0 0.92188-0.1875 1.6406-0.54688 2.1719-0.375 0.51562-0.875 0.78125-1.5312 0.78125-0.76562 0-1.3281-0.23438-1.6875-0.67188-0.34375-0.46875-0.51562-1.2188-0.51562-2.2656v-0.25c0-0.92188 0.17188-1.6094 0.51562-2.0312s0.90625-0.64062 1.6719-0.64062z"/>
</g>
<g id="s">
<path d="m10.75 0h1.1406v-4.8906c0-0.95312-0.21875-1.6562-0.64062-2.0781-0.42188-0.4375-1.0469-0.65625-1.8906-0.65625-0.54688 0-1.0312 0.10938-1.4531 0.34375-0.42188 0.21875-0.75 0.53125-0.96875 0.92188h-0.0625c-0.35938-0.84375-1.125-1.2656-2.2969-1.2656-0.48438 0-0.90625 0.09375-1.3125 0.29688-0.375 0.21875-0.6875 0.5-0.90625 0.85938h-0.046875l-0.1875-1.0312h-0.92188v7.5h1.1406v-3.9375c0-0.96875 0.15625-1.6562 0.48438-2.0938 0.34375-0.42188 0.85938-0.64062 1.5625-0.64062 0.54688 0 0.95312 0.15625 1.2031 0.45312s0.375 0.75 0.375 1.3438v4.875h1.1406v-4.1875c0-0.84375 0.17188-1.4688 0.5-1.875 0.34375-0.39062 0.875-0.60938 1.5781-0.60938 0.53125 0 0.9375 0.15625 1.1875 0.45312s0.375 0.75 0.375 1.3438z"/>
</g>
<clipPath id="z">
<path d="m0 0h324v216h-324z"/>
</clipPath>
<clipPath id="y">
<path d="m54 0h217v216h-217z"/>
</clipPath>
<clipPath id="x">
<rect width="324" height="217"/>
</clipPath>
<g id="q" clip-path="url(#x)">
<g clip-path="url(#z)">
<path d="m0-0.015625h324.03v216.02h-324.03z" fill="#fff"/>
</g>
<g clip-path="url(#y)">
<path d="m54.004-0.015625h216.02v216.02h-216.02z" fill="#fff"/>
</g>
<path transform="matrix(1.0001 0 0 1.0001 0 -.01528)" d="m257.41 197.46-1.8475-0.43746-1.8514-0.43746-1.8475-0.43356-1.8514-0.43356-3.6989-0.8515-3.6989-0.82806-3.6989-0.81244-3.6989-0.7929-3.7028-0.77338-3.6989-0.75775-3.6989-0.73432-3.7028-0.71088-3.6989-0.69526-3.6989-0.66792-3.6989-0.65229-3.6989-0.62495-3.7028-0.60542-3.6989-0.58589-3.6989-0.55855-3.6989-0.53121-3.6989-0.50387-3.6989-0.47262-3.6989-0.44137-3.6989-0.40622-3.7067-0.37497-3.6989-0.33982-3.6989-0.30857-3.6989-0.27342-3.6989-0.23826-3.6989-0.1992-3.6989-0.15624-3.6989-0.11327-3.6989-0.062495-3.7028-0.01953-3.6989 0.01953-3.6989 0.062495-3.6989 0.093742-3.6989 0.12499-3.7028 0.16796-3.6989 0.23436-3.6989 0.30857-3.7028 0.41403-3.6989 0.5273-3.6989 0.64448-3.6989 0.76556-3.6989 0.89055-3.6989 1.039-3.6989 1.2147-3.6989 1.4218-1.8514 0.82806-1.8514 0.95305-1.8475 1.1288-1.8514 1.4139-1.4804 1.3905-0.74213 0.76166-0.73432 0.89055-0.37106 0.57808-0.18748 0.38278-0.089837 0.25779-0.093742 0.43356 0.093742 0.86321 0.089837 0.23436 0.18748 0.34763 0.37106 0.49996 0.73432 0.69526 0.74213 0.49996 1.4804 0.60933 1.8514 0.42965 1.8475 0.35544 1.8514 0.28123 1.8514 0.20311 3.6989 0.24607 3.6989 0.16796 3.6989 0.10937 3.6989 0.050777 3.6989 0.003906 3.6989-0.039059 3.6989-0.070307 3.7028-0.097648 3.6989-0.11718 3.6989-0.1289 3.7028-0.13671 7.3978-0.28123 3.6989-0.13671 3.6989-0.1328 3.7028-0.13671 3.6989-0.1328 7.3978-0.27342 3.6989-0.1328 14.796-0.54683 3.7067-0.13671 3.6989-0.1328 11.097-0.41012 3.6989-0.1328 7.3978-0.27342 7.4018-0.27342 3.6989-0.1328 14.8-0.54683 3.6989-0.1328 11.101-0.41012 3.6989-0.1328 3.6989-0.13671 1.8514-0.070307 1.8475-0.066401 1.8514-0.066401 1.8475-0.070307" fill-opacity=".1" stroke="#000" stroke-linejoin="round" stroke-opacity=".8" stroke-width="1.5"/>
</g>
<clipPath id="w">
<rect width="324" height="217"/>
</clipPath>
<g id="p" clip-path="url(#w)">
<path transform="matrix(1.0001 0 0 1.0001 0 -.01528)" d="m73.396 156.99 0.5273-0.77728 0.62104-0.70697 0.71088-0.61714 0.78119-0.51949 0.84759-0.41403 0.88665-0.29685 0.92961-0.18358 0.94133-0.058589 0.93742 0.062495 0.92571 0.18358 0.89055 0.30076 0.84368 0.41794 0.78119 0.51949 0.70698 0.62104 0.62104 0.70698 0.5234 0.78119 0.41403 0.83978 0.30076 0.89055 0.18358 0.9179 0.058589 0.93742-0.062495 0.93352-0.18358 0.9218-0.30466 0.88665-0.41794 0.84368-0.5234 0.77728-0.62495 0.70307-0.70698 0.61714-0.78509 0.5234-0.84368 0.41403-0.89446 0.30076-0.92571 0.17577-0.93742 0.066401-0.94133-0.066401-0.9218-0.17967-0.89055-0.30466-0.84759-0.41403-0.78509-0.5234-0.70698-0.62495-0.62104-0.70307-0.51558-0.78119-0.41794-0.84368-0.30466-0.88274-0.18358-0.92571-0.054683-0.93352 0.058589-0.93742 0.19139-0.9179 0.30076-0.89055 0.031247-0.085931 0.332-0.85931 0.3281-0.86321 0.16796-0.43356 0.43356-0.80853 0.44137-0.81244 0.20311-0.37888 0.67963-0.67963 0.65229-0.6562 0.65229-0.6601 1.0194-1.0194 4.4411-2.8552 5.855-2.3397 7.1127-1.5233 7.0854-0.66401 2.7732-0.2617 7.1088 0.332 7.1049 0.332 6.6401 0.30857 1.4921 0.066401 7.058 0.90227 7.0541 0.90618 7.058 0.90227 0.83978 0.10546 7.058 0.90227 7.0541 0.90227 7.0619 0.90227 6.6557 0.85149 7.058 0.90227 7.0541 0.90227 7.058 0.90227 6.6557 0.85149 21.174 2.7068 6.6557 0.84759 7.058 0.90618 7.058 0.90227 4.4332 0.56636 5.8316 0.74603-5.8316-0.74603-4.4332-0.56636-7.058-0.90227-7.058-0.90618-6.6557-0.84759-21.174-2.7068-6.6557-0.85149-7.058-0.90227-7.0541-0.90227-7.058-0.90227-6.6557-0.85149-7.0619-0.90227-7.0541-0.90227-7.058-0.90227-0.83978-0.10546-7.058-0.90227-7.0541-0.90618-7.058-0.90227-1.4921-0.066401-6.6401-0.30857-14.214-0.66401-2.7732 0.2617-7.0854 0.66401-7.1127 1.5233-5.855 2.3397-4.4411 2.8552-1.0194 1.0194-0.65229 0.6601-0.65229 0.6562-0.67963 0.67963-0.20311 0.37888-0.44137 0.81244-0.43356 0.80853-0.16796 0.43356-0.3281 0.86321-0.332 0.85931-0.031247 0.085931" fill-opacity=".1" stroke="#000" stroke-linejoin="round" stroke-opacity=".8" stroke-width="1.5"/>
<path transform="matrix(1.0001 0 0 1.0001 0 -.01528)" d="m89.012 104.67 0.16405 6.9291-0.16405-6.9291 0.16796-6.187 0.24217-4.5934 0.48824-5.0465 0.74994-2.7185 0.5234-1.8944 2.0077-1.4882 13.495-2.5232-0.9218 6.5307 2.0233 33.435-2.0233-33.435 0.9218-6.5307 10.171-1.621 11.976-0.82415-1.1444 5.5191 1.5624 38.911-1.5624-38.911 1.1444-5.5191 11.378-1.0663 12.261-0.30466 0.17186 46.356-0.17186-46.356 12.444-0.1953 12.448 0.1953-0.17186 46.356 0.17186-46.356 12.265 0.30466 11.374 1.0663 1.1483 5.5191-1.5624 38.911 1.5624-38.911-1.1483-5.5191 11.972 0.82415 10.171 1.621 0.92961 6.5307-2.0233 33.435 2.0233-33.435-0.92961-6.5307 8.5813 1.3554 4.9215 1.1679 2.0077 1.4882 0.5234 1.8944-1.6991 28.349 1.6522-27.681 0.79681 2.0506 0.48824 5.0465 0.24217 4.5934 0.16796 6.187-0.16796 6.9291 0.16796-6.9291" fill="none" stroke="#000" stroke-linejoin="round" stroke-width="7.5"/>
<path transform="matrix(1.0001 0 0 1.0001 0 -.01528)" d="m89.176 111.6-0.16405-6.9291 0.16796-6.187 0.24217-4.5934 0.48824-5.0465 1.2733-4.6129 2.0077-1.4882 4.9215-1.1679 8.304-1.4491 10.441-1.5272 11.249-1.0312 12.101-0.85931 12.128-0.40231 12.581-0.097649 12.585 0.097649 12.128 0.40231 12.104 0.85931 11.241 1.0312 10.444 1.5272 8.3079 1.4491 4.9215 1.1679 2.0077 1.4882 1.2733 4.6129 0.48824 5.0465 0.24217 4.5934 0.16796 6.187-0.16796 6.9291-3.1794 2.8396-6.4096 2.6482-3.1833 1.039-5.7886 1.9608-7.1088-0.058589-5.9136 0.64057-8.2493 1.3632-8.8626-0.17967-5.398 0.082025-9.3625 0.77728-8.015-0.42965-4.2731 0.007812-4.2731-0.007812-8.0111 0.42965-9.3586-0.77728-5.398-0.082025-8.8626 0.17967-8.2493-1.3632-5.9214-0.64057-7.101 0.058589-5.7886-1.9608-3.1833-1.039-6.4096-2.6482-3.1833-2.8396 0.73432-22.756" fill="#fff" fill-opacity=".5" stroke="#000" stroke-linejoin="round" stroke-opacity=".8" stroke-width="1.5"/>
</g>
</defs>
<use xlink:href="#q"/>
<g>
<use x="140.87" y="212.373" xlink:href="#v"/>
<use x="149.702663" y="212.373" xlink:href="#c"/>
<use x="153.243288" y="212.373" xlink:href="#g"/>
<use x="161.030144" y="212.373" xlink:href="#e"/>
<use x="166.744985" y="212.373" xlink:href="#i"/>
<use x="177.733663" y="212.373" xlink:href="#r"/>
<use x="189.215145" y="212.373" xlink:href="#g"/>
<use x="197.002001" y="212.373" xlink:href="#a"/>
<use x="200.542626" y="212.373" xlink:href="#e"/>
<use x="206.257467" y="212.373" xlink:href="#d"/>
<use x="211.002101" y="212.373" xlink:href="#h"/>
<use x="219.458161" y="212.373" xlink:href="#a"/>
<use x="222.998787" y="212.373" xlink:href="#c"/>
<use x="118.672" y="169.826" xlink:href="#j"/>
<use x="126.416855" y="169.826" xlink:href="#o"/>
<use x="140.248954" y="169.826" xlink:href="#n"/>
<use x="150.455027" y="169.826" xlink:href="#b"/>
<use x="158.309083" y="169.826" xlink:href="#c"/>
<use x="161.849708" y="169.826" xlink:href="#d"/>
<use x="166.594342" y="169.826" xlink:href="#f"/>
<use x="175.176404" y="169.826" xlink:href="#m"/>
<use x="183.509263" y="169.826" xlink:href="#l"/>
<use x="195.140546" y="169.826" xlink:href="#i"/>
<use x="202.489199" y="169.826" xlink:href="#a"/>
<use x="206.029824" y="169.826" xlink:href="#f"/>
<use x="210.971859" y="169.826" xlink:href="#b"/>
<use x="222.465941" y="169.826" xlink:href="#u"/>
<use x="229.131389" y="169.826" xlink:href="#b"/>
<use x="236.985445" y="169.826" xlink:href="#k"/>
<use x="245.578706" y="169.826" xlink:href="#f"/>
<use x="250.520742" y="169.826" xlink:href="#b"/>
<use x="258.374798" y="169.826" xlink:href="#e"/>
<use x="267.729665" y="169.826" xlink:href="#g"/>
<use x="275.51652" y="169.826" xlink:href="#a"/>
<use x="279.057146" y="169.826" xlink:href="#e"/>
<use x="284.771986" y="169.826" xlink:href="#d"/>
<use x="289.51662" y="169.826" xlink:href="#h"/>
<use x="297.972681" y="169.826" xlink:href="#a"/>
<use x="301.513306" y="169.826" xlink:href="#c"/>
<use x="122.37" y="134.681" xlink:href="#j"/>
<use x="130.114855" y="134.681" xlink:href="#o"/>
<use x="143.946954" y="134.681" xlink:href="#n"/>
<use x="154.153027" y="134.681" xlink:href="#b"/>
<use x="162.007083" y="134.681" xlink:href="#c"/>
<use x="165.547708" y="134.681" xlink:href="#d"/>
<use x="170.292342" y="134.681" xlink:href="#f"/>
<use x="178.874404" y="134.681" xlink:href="#m"/>
<use x="187.207263" y="134.681" xlink:href="#l"/>
<use x="198.838546" y="134.681" xlink:href="#i"/>
<use x="206.187199" y="134.681" xlink:href="#a"/>
<use x="209.727824" y="134.681" xlink:href="#f"/>
<use x="214.669859" y="134.681" xlink:href="#b"/>
<use x="226.163941" y="134.681" xlink:href="#t"/>
<use x="234.743203" y="134.681" xlink:href="#c"/>
<use x="238.283828" y="134.681" xlink:href="#g"/>
<use x="246.070684" y="134.681" xlink:href="#k"/>
<use x="254.663945" y="134.681" xlink:href="#d"/>
<use x="259.408579" y="134.681" xlink:href="#h"/>
<use x="267.864639" y="134.681" xlink:href="#e"/>
<use x="273.57948" y="134.681" xlink:href="#s"/>
</g>
<use xlink:href="#p"/>
</svg>
